<?xml version="1.0" standalone="no"?>
<!DOCTYPE svg PUBLIC "-//W3C//DTD SVG 1.1//EN" "http://www.w3.org/Graphics/SVG/1.1/DTD/svg11.dtd" >
<svg xmlns="http://www.w3.org/2000/svg" xmlns:xlink="http://www.w3.org/1999/xlink" version="1.1">
<metadata></metadata>
<defs>
<font id="mixolydian_titlingbook" horiz-adv-x="610" >
<font-face units-per-em="1000" ascent="760" descent="-240" />
<missing-glyph horiz-adv-x="296" />
<glyph unicode=" "  horiz-adv-x="296" />
<glyph unicode="&#x09;" horiz-adv-x="296" />
<glyph unicode="&#xa0;" horiz-adv-x="296" />
<glyph unicode="!" horiz-adv-x="262" d="M101 214l-27 263v250h113v-250l-27 -263h-59zM80 0v132h101v-132h-101z" />
<glyph unicode="#" horiz-adv-x="612" d="M395 463h-132l-41 -195h129zM296 0l39 188h-129l-41 -188h-75l39 188h-107v82h124l40 192h-119v82h137l37 183h77l-37 -183h128l42 183h74l-40 -183h102v-82h-117l-43 -192h117v-82h-132l-42 -188h-74z" />
<glyph unicode="$" horiz-adv-x="517" d="M208 0v80q-64 11 -111 50.5t-57 103.5l99 21q4 -18 12 -35t21.5 -30t33 -21t46.5 -8q45 0 73.5 20.5t28.5 60.5q0 26 -25.5 50.5t-84.5 38.5q-45 11 -80 25t-59 33.5t-37 46.5t-13 65q0 30 12.5 54t33.5 42.5t49 30.5t58 17v82h90v-81q66 -9 107 -49.5t43 -112.5l-98 -6 q-3 38 -24.5 64t-69.5 26q-45 0 -73.5 -17t-28.5 -53q0 -29 28 -48t93 -35q94 -24 139 -69t45 -108q0 -67 -44.5 -108.5t-116.5 -50.5v-79h-90z" />
<glyph unicode="&#x26;" horiz-adv-x="715" d="M585 0l-76 72q-51 -49 -108.5 -68t-116.5 -19q-66 0 -113.5 15t-78.5 42t-45.5 63t-14.5 78q0 41 11 72t31.5 55.5t49.5 44t65 36.5q-46 46 -66 86.5t-20 85.5q0 49 19.5 83.5t50 55.5t67 30.5t69.5 9.5q40 0 77 -12t64.5 -34t44 -53t16.5 -68q0 -71 -45.5 -119 t-126.5 -82l158 -153h2q17 30 28 63.5t16 75.5h99q-4 -57 -21.5 -109.5t-48.5 -103.5l152 -147h-139zM246 331q-106 -39 -106 -131q0 -50 36.5 -85t109.5 -35q42 0 80 17.5t70 49.5zM287 429q70 28 97.5 59t27.5 72t-25.5 67.5t-72.5 26.5t-76 -24.5t-29 -72.5q0 -16 4 -30 t13 -29t24 -31.5t37 -37.5z" />
<glyph unicode="'" horiz-adv-x="203" d="M63 424l-13 318h103l-18 -318h-72z" />
<glyph unicode="(" horiz-adv-x="367" d="M243 -181q-142 228 -142 469t142 468h97q-81 -108 -119.5 -224t-38.5 -244q0 -118 38 -234.5t117 -234.5h-94z" />
<glyph unicode=")" horiz-adv-x="366" d="M27 -181q42 61 72 118t48.5 113.5t27.5 115t9 122.5q0 130 -39.5 242t-118.5 226h96q72 -115 106.5 -228.5t34.5 -239.5t-34.5 -240t-106.5 -229h-95z" />
<glyph unicode="*" horiz-adv-x="541" d="M304 436l4 -189h-76l3 189l-160 -98l-36 63l164 93l-166 90l35 63l163 -96l-3 190h76l-4 -190l164 96l34 -63l-166 -90l164 -93l-35 -63z" />
<glyph unicode="+" horiz-adv-x="580" d="M246 108v207h-207v87h207v206h87v-206h206v-87h-206v-207h-87z" />
<glyph unicode="," horiz-adv-x="248" d="M74 -115l38 111l-2 4h-35v132h100v-132l-45 -115h-56z" />
<glyph unicode="-" horiz-adv-x="265" d="M30 322v99h205v-99h-205z" />
<glyph unicode="." horiz-adv-x="246" d="M72 0v132h100v-132h-100z" />
<glyph unicode="/" horiz-adv-x="415" d="M20 -97l290 853h83l-289 -853h-84z" />
<glyph unicode="0" horiz-adv-x="673" d="M336 -15q-59 0 -107 24t-82 71.5t-52.5 118.5t-18.5 166q0 94 18.5 164.5t52 117.5t81.5 71t108 24t108 -24t82.5 -71t53 -117.5t18.5 -164.5q0 -95 -18.5 -166t-53 -118.5t-83 -71.5t-107.5 -24zM336 85q37 0 66 15t49.5 48.5t31.5 87t11 129.5q0 75 -11 128t-31.5 86.5 t-49.5 48.5t-66 15q-36 0 -65 -15t-49.5 -48.5t-31 -86.5t-10.5 -128q0 -76 10.5 -129.5t31 -87t49.5 -48.5t65 -15z" />
<glyph unicode="1" horiz-adv-x="320" d="M140 0v551h-95v91h41q27 0 44 19t17 50v16h92v-727h-99z" />
<glyph unicode="2" horiz-adv-x="556" d="M60 0v69q0 76 11.5 131.5t37.5 96t67.5 68.5t101.5 48q33 11 56 22.5t37 25.5t20 32t6 42q0 102 -116 102q-54 0 -88.5 -26.5t-54.5 -74.5l-79 68q32 64 86 101t146 37q42 0 79.5 -12.5t65.5 -38t44.5 -63.5t16.5 -89q0 -41 -9.5 -72.5t-30 -56.5t-53.5 -44.5t-79 -36.5 q-50 -18 -80 -38.5t-46.5 -47.5t-22 -62t-5.5 -82h321v-99h-432z" />
<glyph unicode="3" horiz-adv-x="573" d="M118 160q26 -36 60 -55.5t80 -19.5q66 0 108 41t42 113q0 30 -10.5 57t-29.5 47.5t-45.5 32.5t-58.5 12q-23 0 -36.5 -0.5t-24.5 -2.5l-17 63l166 176l-1 5h-272v98h387v-109l-141 -154q38 -5 72.5 -21.5t60.5 -44t41 -65.5t15 -86q0 -64 -19 -113t-53.5 -82t-82.5 -50 t-106 -17q-29 0 -58 6t-56 18.5t-50.5 31.5t-41.5 44z" />
<glyph unicode="4" horiz-adv-x="585" d="M361 0v150h-315v95l174 482h106l-173 -481h208v249h98v-249h81v-96h-81v-150h-98z" />
<glyph unicode="5" horiz-adv-x="579" d="M118 155q26 -32 63 -51t86 -19q33 0 61.5 10.5t49.5 31.5t33 52t12 72q0 43 -11.5 74.5t-31 51t-47 29t-58.5 9.5q-45 0 -73.5 -16.5t-42.5 -40.5l-92 23l27 346h382v-100h-295l-12 -163q23 21 51.5 30t64.5 9q52 0 95.5 -16t75 -47.5t49 -78.5t17.5 -110 q0 -65 -18.5 -114.5t-52.5 -83t-82.5 -51t-107.5 -17.5q-69 0 -119 25t-89 61z" />
<glyph unicode="6" horiz-adv-x="578" d="M438 215q0 58 -38 92.5t-101 34.5q-30 0 -56.5 -8.5t-46.5 -24t-32 -37.5t-12 -49q0 -66 39.5 -103t105.5 -37q62 0 101.5 35.5t39.5 96.5zM168 370q23 26 63 44t91 18q48 0 87 -15t66 -42.5t42 -66t15 -85.5q0 -54 -17 -98t-48 -75t-74.5 -48t-96.5 -17q-58 0 -104 18.5 t-77.5 53.5t-48 85.5t-16.5 113.5q0 102 30.5 186.5t81 147t116 99.5t134.5 45l20 -98q-53 -9 -99.5 -33.5t-83 -59.5t-59.5 -79.5t-27 -92.5z" />
<glyph unicode="7" horiz-adv-x="526" d="M146 0l231 627h-350v100h456v-102l-224 -625h-113z" />
<glyph unicode="8" horiz-adv-x="588" d="M418 395q52 -16 87.5 -60.5t35.5 -122.5q0 -50 -17 -92t-49 -72t-78 -46.5t-103 -16.5q-58 0 -104 16.5t-78 46.5t-49 72t-17 92q0 78 35 124t88 59q-38 14 -65.5 55t-27.5 101q0 40 14.5 75t42.5 60.5t68.5 40.5t92.5 15q51 0 91 -15t68 -40.5t42.5 -60.5t14.5 -75 q0 -60 -25.5 -99.5t-66.5 -56.5zM439 213q0 63 -39 94t-106 31q-65 0 -105.5 -30.5t-40.5 -94.5q0 -62 39 -94.5t107 -32.5t106.5 32.5t38.5 94.5zM419 539q0 49 -33.5 78t-91.5 29q-60 0 -93 -29t-33 -78t33 -77.5t93 -28.5q59 0 92 28.5t33 77.5z" />
<glyph unicode="9" horiz-adv-x="579" d="M431 495q0 69 -39.5 109t-105.5 40q-63 0 -102.5 -37.5t-39.5 -100.5q0 -66 40 -101.5t102 -35.5q34 0 61 10.5t46 27.5t28.5 40t9.5 48zM215 70q38 21 73 49t63 62.5t47 74.5t25 86l-4 1q-19 -22 -62 -40.5t-95 -18.5q-43 0 -81.5 14.5t-68 43t-47 71t-17.5 97.5 q0 51 17 93.5t48.5 73t75.5 48t98 17.5q58 0 104.5 -19.5t78 -55.5t48.5 -87t17 -115q0 -104 -25.5 -182.5t-65.5 -137t-87.5 -97.5t-90.5 -63z" />
<glyph unicode=":" horiz-adv-x="246" d="M72 0v132h101v-132h-101zM72 415v132h101v-132h-101z" />
<glyph unicode=";" horiz-adv-x="249" d="M74 -115l38 111l-2 4h-35v132h100v-132l-45 -115h-56zM75 415v132h100v-132h-100z" />
<glyph unicode="&#x3c;" horiz-adv-x="580" d="M39 315v87l500 196v-88l-396 -152l396 -151v-88z" />
<glyph unicode="=" horiz-adv-x="580" d="M39 468v86h500v-86h-500zM39 164v86h500v-86h-500z" />
<glyph unicode="&#x3e;" horiz-adv-x="580" d="M39 119v88l397 151l-397 152v88l500 -196v-87z" />
<glyph unicode="?" horiz-adv-x="482" d="M172 203v21q0 33 4 61t14.5 52.5t27.5 46t43 41.5q21 16 35 29.5t23 27t12.5 27.5t3.5 32q0 24 -9.5 42.5t-25 31t-35 19t-39.5 6.5q-46 0 -75.5 -25.5t-42.5 -59.5l-84 57q11 26 29 49.5t43.5 41.5t59 28.5t76.5 10.5q38 0 75.5 -10.5t67 -33.5t48 -60t18.5 -90 q0 -33 -9 -59.5t-24 -49t-34.5 -42.5t-41.5 -39q-19 -17 -31 -32t-18.5 -31t-8.5 -35t-2 -44v-13h-100zM171 0v132h101v-132h-101z" />
<glyph unicode="@" horiz-adv-x="844" d="M398 -211q-81 15 -146 49.5t-110.5 89t-70.5 129t-25 169.5q0 106 31.5 186.5t85.5 135t125 82t149 27.5t144 -23t114 -66.5t75 -106t27 -142.5q0 -64 -15.5 -112t-42 -79.5t-62 -47.5t-74.5 -16q-36 0 -60 13.5t-34 26.5q-13 -14 -39 -27.5t-64 -13.5q-24 0 -46.5 10 t-39.5 30.5t-27.5 52t-10.5 75.5q0 45 10.5 77t27.5 52t40 29t47 9q32 0 52.5 -10t31.5 -23v30h63v-231q5 -13 17 -21t32 -8q16 0 35 8.5t34.5 28.5t26 54.5t10.5 86.5q0 63 -19.5 112.5t-55 83t-85 51.5t-110.5 18q-71 0 -127 -25t-95 -71t-59.5 -111t-20.5 -144 q0 -86 19.5 -147t55 -103.5t86.5 -68t114 -40.5zM478 309q-6 12 -20 20t-37 8q-32 0 -51.5 -24.5t-19.5 -78.5q0 -52 19 -76.5t49 -24.5q25 0 39 7t21 18v151z" />
<glyph unicode="B" horiz-adv-x="580" d="M69 0v727h260q39 0 74 -12.5t61.5 -37.5t42 -62t15.5 -86q0 -47 -19 -84t-52 -57q18 -8 35 -21.5t30 -34t21 -48.5t8 -65q0 -105 -61 -162t-178 -57h-237zM321 97q54 0 85 32t31 89q0 53 -29.5 82t-74.5 29h-164v-232h152zM330 421q19 0 36 8t30 21.5t20 32t7 40.5 q0 26 -8 46t-21.5 33.5t-31.5 20t-37 6.5h-156v-208h161z" />
<glyph unicode="C" horiz-adv-x="649" d="M601 228q-5 -54 -25 -98.5t-53 -76.5t-76.5 -50t-94.5 -18q-65 0 -118.5 22t-92.5 68t-60.5 117.5t-21.5 171.5q0 99 21.5 170.5t60.5 117.5t92.5 68t118.5 22q51 0 95 -17.5t76.5 -49.5t53 -76.5t25.5 -98.5l-98 -10q-11 71 -52.5 107.5t-107.5 36.5q-41 0 -75 -15.5 t-58 -48.5t-37 -84t-13 -122t13 -122.5t37 -84.5t58 -49t75 -16q65 0 106.5 38t52.5 108z" />
<glyph unicode="D" horiz-adv-x="658" d="M69 0v727h235q87 0 145 -28t93 -76.5t49.5 -115t14.5 -143.5q0 -78 -14.5 -144.5t-49.5 -115t-93 -76.5t-145 -28h-235zM298 99q57 0 96 15t64 47.5t36 82.5t11 120q0 69 -11 119t-36 82t-64 47t-96 15h-129v-528h129z" />
<glyph unicode="E" horiz-adv-x="521" d="M69 0v727h386v-100h-286v-205h282v-98h-282v-225h286v-99h-386z" />
<glyph unicode="F" horiz-adv-x="494" d="M69 0v727h391v-100h-291v-205h282v-98h-282v-324h-100z" />
<glyph unicode="G" horiz-adv-x="676" d="M374 280v100h255q1 -11 1.5 -28t0.5 -35q0 -63 -14.5 -122.5t-48 -106t-87.5 -75t-133 -28.5q-59 0 -111.5 22t-92 68t-62.5 117.5t-23 171.5q0 99 23 170.5t64 117.5t96 68t120 22q46 0 87.5 -14.5t75 -41t57 -63t33.5 -81.5l-96 -17q-18 53 -62.5 84t-102.5 31 q-42 0 -78 -16t-62 -50t-41 -86t-15 -124q0 -73 14.5 -125.5t40.5 -86.5t61.5 -50t76.5 -16q46 0 79 14t54.5 39.5t32 61.5t12.5 79h-155z" />
<glyph unicode="H" horiz-adv-x="657" d="M489 0v324h-320v-324h-100v727h100v-305h320v305h99v-727h-99z" />
<glyph unicode="I" horiz-adv-x="246" d="M73 0v727h101v-727h-101z" />
<glyph unicode="J" horiz-adv-x="524" d="M358 727h101v-478q0 -57 -14.5 -105.5t-45 -84t-77 -55t-109.5 -19.5q-54 0 -104 19.5t-85 62.5l68 78q20 -34 52.5 -48.5t70.5 -14.5q72 0 107.5 42t35.5 132v471z" />
<glyph unicode="K" horiz-adv-x="596" d="M453 0l-268 343h-16v-343h-100v727h100v-300h12l265 300h126l-296 -333l309 -394h-132z" />
<glyph unicode="L" horiz-adv-x="548" d="M69 0v727h100v-628h352v-99h-452z" />
<glyph unicode="M" horiz-adv-x="731" d="M563 0v524h-5l-151 -364h-86l-148 364h-5v-524h-99v727h133l164 -417h4l167 417h125v-727h-99z" />
<glyph unicode="N" horiz-adv-x="658" d="M491 0l-320 548h-4v-548h-98v727h119l299 -528h4v528h98v-727h-98z" />
<glyph unicode="O" horiz-adv-x="693" d="M352 -15q-63 0 -116.5 26t-92.5 75t-61.5 119t-22.5 159q0 88 22.5 158t61.5 119t92.5 75t116.5 26q61 0 113 -26.5t89 -76t58 -119t21 -156.5t-21 -157t-58 -119.5t-89 -76t-113 -26.5zM347 92q40 0 74 17.5t59 52t39 85t14 117.5q0 66 -14 116.5t-39 84.5t-59 51.5 t-74 17.5q-39 0 -73.5 -17t-60 -51t-40 -84.5t-14.5 -117.5t14.5 -118t40 -85t60 -51.5t73.5 -17.5z" />
<glyph unicode="P" horiz-adv-x="591" d="M340 377q58 0 88.5 31.5t30.5 91.5q0 63 -29.5 96t-86.5 33h-174v-252h171zM69 0v727h276q49 0 88.5 -15.5t67.5 -44.5t43 -70.5t15 -92.5q0 -54 -16 -96t-45.5 -70.5t-71 -43t-92.5 -14.5h-165v-280h-100z" />
<glyph unicode="Q" horiz-adv-x="693" d="M471 -88l-43 88q-17 -5 -36.5 -8t-39.5 -3q-63 0 -116.5 25.5t-92.5 74t-61.5 118t-22.5 158.5q0 87 22 157t61 119t92 75t115 26t114.5 -26.5t90 -75.5t58.5 -118.5t21 -156.5q0 -42 -7 -86.5t-21.5 -86.5t-37.5 -79.5t-54 -65.5l43 -90zM302 261l86 47l79 -165 q35 38 51 96t16 123q0 135 -50.5 203t-136.5 68q-41 0 -75.5 -17t-59.5 -51t-39.5 -85t-14.5 -118q0 -68 14.5 -118.5t40 -84t60 -50.5t74.5 -17q18 0 35 3z" />
<glyph unicode="R" horiz-adv-x="598" d="M454 0q-7 15 -7 34v164q0 54 -26.5 77.5t-75.5 23.5h-176v-299h-100v727h259q101 0 156 -56.5t55 -154.5q0 -72 -25 -109.5t-57 -51.5q17 -6 33.5 -16t29 -27t20.5 -42.5t8 -61.5v-171q0 -9 2 -17.5t5 -19.5h-101zM334 392q50 0 78.5 27.5t28.5 90.5q0 57 -28.5 87 t-88.5 30h-155v-235h165z" />
<glyph unicode="S" horiz-adv-x="556" d="M397 519q0 27 -6.5 50.5t-20 41t-36 27.5t-53.5 10q-55 0 -89 -27.5t-34 -72.5q0 -22 6.5 -39.5t22.5 -32t43.5 -27.5t69.5 -25q110 -32 157.5 -87t47.5 -140q0 -50 -16.5 -89.5t-46.5 -66.5t-71.5 -41.5t-90.5 -14.5q-47 0 -88 14t-73 40.5t-53 65t-26 88.5l100 26 q3 -25 12 -49.5t25.5 -44t40.5 -31.5t58 -12q56 0 90.5 31t34.5 89q0 46 -31 76t-101 50q-50 15 -89 33t-65.5 44t-40.5 61.5t-14 84.5q0 46 18.5 82t49 60t70 36.5t81.5 12.5q48 0 87.5 -13t68 -39.5t44.5 -66.5t16 -94z" />
<glyph unicode="T" horiz-adv-x="557" d="M226 0v627h-196v100h496v-100h-194v-627h-106z" />
<glyph unicode="U" horiz-adv-x="622" d="M456 727h100v-468q0 -77 -16 -129t-46.5 -84.5t-75.5 -46.5t-103 -14q-60 0 -106.5 14t-78.5 46t-48.5 83.5t-16.5 126.5v472h99v-478q0 -48 10 -79.5t29 -51t47.5 -27.5t64.5 -8q34 0 60.5 8t44.5 27.5t27 51.5t9 80v477z" />
<glyph unicode="V" d="M240 0l-226 727h109l181 -576h4l178 576h109l-227 -727h-128z" />
<glyph unicode="W" horiz-adv-x="899" d="M576 0l-122 517h-5l-130 -517h-134l-169 727h114l123 -570h5l139 570h109l134 -570h5l124 570h113l-172 -727h-134z" />
<glyph unicode="X" horiz-adv-x="598" d="M455 0l-158 277l-158 -277h-119l219 366l-219 361h123l160 -276l161 276h113l-216 -362l216 -365h-122z" />
<glyph unicode="Y" horiz-adv-x="581" d="M237 0v284l-225 443h113l167 -331l166 331h111l-223 -441v-286h-109z" />
<glyph unicode="Z" horiz-adv-x="591" d="M50 0v104l360 522v4h-360v97h491v-92l-360 -532v-5h361v-98h-492z" />
<glyph unicode="[" horiz-adv-x="353" d="M111 -181v937h208v-79h-134v-779h134v-79h-208z" />
<glyph unicode="\" horiz-adv-x="415" d="M310 -97l-290 853h84l289 -853h-83z" />
<glyph unicode="]" horiz-adv-x="353" d="M33 -181v79h135v779h-135v79h208v-937h-208z" />
<glyph unicode="^" horiz-adv-x="574" d="M438 215l-151 408l-152 -408h-87l195 512h88l195 -512h-88z" />
<glyph unicode="_" horiz-adv-x="587" d="M8 -91v87h571v-87h-571z" />
<glyph unicode="`" horiz-adv-x="350" d="M49 736l44 67l209 -167l-35 -52z" />
<glyph unicode="a" d="M14 0zM486 0l-43 135h-279l-41 -135h-109l227 727h128l226 -727h-109zM306 576h-5l-108 -345h221z" />
<glyph unicode="b" horiz-adv-x="580" d="M69 0zM69 0v727h260q39 0 74 -12.5t61.5 -37.5t42 -62t15.5 -86q0 -47 -19 -84t-52 -57q18 -8 35 -21.5t30 -34t21 -48.5t8 -65q0 -105 -61 -162t-178 -57h-237zM321 97q54 0 85 32t31 89q0 53 -29.5 82t-74.5 29h-164v-232h152zM330 421q19 0 36 8t30 21.5t20 32t7 40.5 q0 26 -8 46t-21.5 33.5t-31.5 20t-37 6.5h-156v-208h161z" />
<glyph unicode="c" horiz-adv-x="649" d="M59 0zM601 228q-5 -54 -25 -98.5t-53 -76.5t-76.5 -50t-94.5 -18q-65 0 -118.5 22t-92.5 68t-60.5 117.5t-21.5 171.5q0 99 21.5 170.5t60.5 117.5t92.5 68t118.5 22q51 0 95 -17.5t76.5 -49.5t53 -76.5t25.5 -98.5l-98 -10q-11 71 -52.5 107.5t-107.5 36.5 q-41 0 -75 -15.5t-58 -48.5t-37 -84t-13 -122t13 -122.5t37 -84.5t58 -49t75 -16q65 0 106.5 38t52.5 108z" />
<glyph unicode="d" horiz-adv-x="658" d="M69 0zM69 0v727h235q87 0 145 -28t93 -76.5t49.5 -115t14.5 -143.5q0 -78 -14.5 -144.5t-49.5 -115t-93 -76.5t-145 -28h-235zM298 99q57 0 96 15t64 47.5t36 82.5t11 120q0 69 -11 119t-36 82t-64 47t-96 15h-129v-528h129z" />
<glyph unicode="e" horiz-adv-x="521" d="M69 0zM69 0v727h386v-100h-286v-205h282v-98h-282v-225h286v-99h-386z" />
<glyph unicode="f" horiz-adv-x="494" d="M69 0zM69 0v727h391v-100h-291v-205h282v-98h-282v-324h-100z" />
<glyph unicode="g" horiz-adv-x="676" d="M59 0zM374 280v100h255q1 -11 1.5 -28t0.5 -35q0 -63 -14.5 -122.5t-48 -106t-87.5 -75t-133 -28.5q-59 0 -111.5 22t-92 68t-62.5 117.5t-23 171.5q0 99 23 170.5t64 117.5t96 68t120 22q46 0 87.5 -14.5t75 -41t57 -63t33.5 -81.5l-96 -17q-18 53 -62.5 84t-102.5 31 q-42 0 -78 -16t-62 -50t-41 -86t-15 -124q0 -73 14.5 -125.5t40.5 -86.5t61.5 -50t76.5 -16q46 0 79 14t54.5 39.5t32 61.5t12.5 79h-155z" />
<glyph unicode="h" horiz-adv-x="657" d="M69 0zM489 0v324h-320v-324h-100v727h100v-305h320v305h99v-727h-99z" />
<glyph unicode="i" horiz-adv-x="246" d="M73 0zM73 0v727h101v-727h-101z" />
<glyph unicode="j" horiz-adv-x="524" d="M24 0zM358 727h101v-478q0 -57 -14.5 -105.5t-45 -84t-77 -55t-109.5 -19.5q-54 0 -104 19.5t-85 62.5l68 78q20 -34 52.5 -48.5t70.5 -14.5q72 0 107.5 42t35.5 132v471z" />
<glyph unicode="k" horiz-adv-x="596" d="M69 0zM453 0l-268 343h-16v-343h-100v727h100v-300h12l265 300h126l-296 -333l309 -394h-132z" />
<glyph unicode="l" horiz-adv-x="548" d="M69 0zM69 0v727h100v-628h352v-99h-452z" />
<glyph unicode="m" horiz-adv-x="731" d="M69 0zM563 0v524h-5l-151 -364h-86l-148 364h-5v-524h-99v727h133l164 -417h4l167 417h125v-727h-99z" />
<glyph unicode="n" horiz-adv-x="658" d="M69 0zM491 0l-320 548h-4v-548h-98v727h119l299 -528h4v528h98v-727h-98z" />
<glyph unicode="o" horiz-adv-x="693" d="M59 0zM352 -15q-63 0 -116.5 26t-92.5 75t-61.5 119t-22.5 159q0 88 22.5 158t61.5 119t92.5 75t116.5 26q61 0 113 -26.5t89 -76t58 -119t21 -156.5t-21 -157t-58 -119.5t-89 -76t-113 -26.5zM347 92q40 0 74 17.5t59 52t39 85t14 117.5q0 66 -14 116.5t-39 84.5 t-59 51.5t-74 17.5q-39 0 -73.5 -17t-60 -51t-40 -84.5t-14.5 -117.5t14.5 -118t40 -85t60 -51.5t73.5 -17.5z" />
<glyph unicode="p" horiz-adv-x="591" d="M69 0zM340 377q58 0 88.5 31.5t30.5 91.5q0 63 -29.5 96t-86.5 33h-174v-252h171zM69 0v727h276q49 0 88.5 -15.5t67.5 -44.5t43 -70.5t15 -92.5q0 -54 -16 -96t-45.5 -70.5t-71 -43t-92.5 -14.5h-165v-280h-100z" />
<glyph unicode="q" horiz-adv-x="693" d="M59 0zM471 -88l-43 88q-17 -5 -36.5 -8t-39.5 -3q-63 0 -116.5 25.5t-92.5 74t-61.5 118t-22.5 158.5q0 87 22 157t61 119t92 75t115 26t114.5 -26.5t90 -75.5t58.5 -118.5t21 -156.5q0 -42 -7 -86.5t-21.5 -86.5t-37.5 -79.5t-54 -65.5l43 -90zM302 261l86 47l79 -165 q35 38 51 96t16 123q0 135 -50.5 203t-136.5 68q-41 0 -75.5 -17t-59.5 -51t-39.5 -85t-14.5 -118q0 -68 14.5 -118.5t40 -84t60 -50.5t74.5 -17q18 0 35 3z" />
<glyph unicode="r" horiz-adv-x="598" d="M69 0zM454 0q-7 15 -7 34v164q0 54 -26.5 77.5t-75.5 23.5h-176v-299h-100v727h259q101 0 156 -56.5t55 -154.5q0 -72 -25 -109.5t-57 -51.5q17 -6 33.5 -16t29 -27t20.5 -42.5t8 -61.5v-171q0 -9 2 -17.5t5 -19.5h-101zM334 392q50 0 78.5 27.5t28.5 90.5q0 57 -28.5 87 t-88.5 30h-155v-235h165z" />
<glyph unicode="s" horiz-adv-x="556" d="M40 0zM397 519q0 27 -6.5 50.5t-20 41t-36 27.5t-53.5 10q-55 0 -89 -27.5t-34 -72.5q0 -22 6.5 -39.5t22.5 -32t43.5 -27.5t69.5 -25q110 -32 157.5 -87t47.5 -140q0 -50 -16.5 -89.5t-46.5 -66.5t-71.5 -41.5t-90.5 -14.5q-47 0 -88 14t-73 40.5t-53 65t-26 88.5 l100 26q3 -25 12 -49.5t25.5 -44t40.5 -31.5t58 -12q56 0 90.5 31t34.5 89q0 46 -31 76t-101 50q-50 15 -89 33t-65.5 44t-40.5 61.5t-14 84.5q0 46 18.5 82t49 60t70 36.5t81.5 12.5q48 0 87.5 -13t68 -39.5t44.5 -66.5t16 -94z" />
<glyph unicode="t" horiz-adv-x="557" d="M30 0zM226 0v627h-196v100h496v-100h-194v-627h-106z" />
<glyph unicode="u" horiz-adv-x="622" d="M65 0zM456 727h100v-468q0 -77 -16 -129t-46.5 -84.5t-75.5 -46.5t-103 -14q-60 0 -106.5 14t-78.5 46t-48.5 83.5t-16.5 126.5v472h99v-478q0 -48 10 -79.5t29 -51t47.5 -27.5t64.5 -8q34 0 60.5 8t44.5 27.5t27 51.5t9 80v477z" />
<glyph unicode="v" d="M14 0zM240 0l-226 727h109l181 -576h4l178 576h109l-227 -727h-128z" />
<glyph unicode="w" horiz-adv-x="899" d="M16 0zM576 0l-122 517h-5l-130 -517h-134l-169 727h114l123 -570h5l139 570h109l134 -570h5l124 570h113l-172 -727h-134z" />
<glyph unicode="x" horiz-adv-x="598" d="M20 0zM455 0l-158 277l-158 -277h-119l219 366l-219 361h123l160 -276l161 276h113l-216 -362l216 -365h-122z" />
<glyph unicode="y" horiz-adv-x="581" d="M12 0zM237 0v284l-225 443h113l167 -331l166 331h111l-223 -441v-286h-109z" />
<glyph unicode="z" horiz-adv-x="591" d="M50 0zM50 0v104l360 522v4h-360v97h491v-92l-360 -532v-5h361v-98h-492z" />
<glyph unicode="{" horiz-adv-x="446" d="M357 -180q-87 0 -125 41t-38 126v114q0 39 -7.5 67t-24.5 45.5t-44 26t-66 9.5v78q39 1 66 9.5t44 26t24.5 45.5t7.5 67v114q0 85 38 126t125 41h68v-74h-53q-46 0 -67.5 -22.5t-21.5 -75.5v-125q0 -58 -20 -101.5t-75 -69.5q55 -27 75 -70.5t20 -100.5v-125 q0 -53 21.5 -75.5t67.5 -22.5h53v-74h-68z" />
<glyph unicode="|" horiz-adv-x="287" d="M106 -181v937h73v-937h-73z" />
<glyph unicode="}" horiz-adv-x="446" d="M21 -180v74h53q46 0 67.5 22.5t21.5 75.5v125q0 57 20 100.5t74 70.5q-54 26 -74 69.5t-20 101.5v125q0 53 -21.5 75.5t-67.5 22.5h-53v74h68q87 0 124.5 -41t37.5 -126v-114q0 -79 32.5 -112.5t110.5 -35.5v-78q-78 -2 -110.5 -35.5t-32.5 -112.5v-114q0 -85 -37.5 -126 t-124.5 -41h-68z" />
<glyph unicode="~" horiz-adv-x="580" d="M540 371q-27 -47 -65 -72t-83 -25q-38 0 -65 14t-51 30.5t-47.5 30.5t-54.5 14q-24 0 -44 -16.5t-38 -45.5l-61 45q28 47 65 69.5t82 22.5q41 0 69.5 -14t51.5 -30.5t44.5 -30t48.5 -13.5q29 0 49.5 17.5t37.5 48.5z" />
<glyph unicode="&#xa2;" horiz-adv-x="562" d="M246 0v84q-91 14 -145 83t-54 198t54 197.5t145 82.5v82h89v-80q76 -9 123.5 -57.5t58.5 -124.5l-97 -10q-26 103 -127 103q-66 0 -105 -47.5t-39 -145.5q0 -99 39 -146.5t105 -47.5q50 0 81.5 26.5t45.5 77.5l97 -10q-12 -78 -59.5 -126.5t-122.5 -56.5v-82h-89z" />
<glyph unicode="&#xa3;" horiz-adv-x="554" d="M46 0v99q33 5 55 19.5t35.5 35.5t19.5 47t6 54v14h-91v92h74q-9 20 -18.5 39t-17.5 41t-13.5 49t-5.5 63t14 70.5t41.5 60.5t69.5 42t99 16q33 0 62.5 -9t53.5 -24.5t41 -36.5t26 -45l-80 -61q-14 29 -41 51t-72 22q-51 0 -79.5 -28t-28.5 -72q0 -30 5.5 -52t14 -42 t18.5 -40t18 -44h184v-92h-173q0 -55 -17 -100.5t-45 -65.5l2 -4h303v-99h-460z" />
<glyph unicode="&#xa4;" horiz-adv-x="572" d="M483 100l-91 91q-21 -17 -48 -25t-57 -8q-62 0 -108 34l-92 -92l-56 56l96 95q-25 44 -25 108t25 107l-95 95l55 56l91 -92q47 36 109 36q30 0 57 -9t49 -26l90 91l56 -56l-97 -95q24 -45 24 -107q0 -32 -6.5 -58t-17.5 -48l97 -97zM285 228q45 0 75.5 33t30.5 98 q0 66 -30.5 98.5t-75.5 32.5t-75.5 -32.5t-30.5 -98.5q0 -65 30.5 -98t75.5 -33z" />
<glyph unicode="&#xa5;" horiz-adv-x="643" d="M377 80v-80h-109v80h-177v82h177v107h-177v82h173v31l-220 345h124l155 -260l155 260h123l-222 -345v-31h166v-82h-168v-107h168v-82h-168z" />
<glyph unicode="&#xa6;" horiz-adv-x="287" d="M106 407v349h73v-349h-73zM106 -181v349h73v-349h-73z" />
<glyph unicode="&#xa7;" horiz-adv-x="587" d="M136 22q4 -22 14 -43.5t26.5 -39t40.5 -28t57 -10.5q60 0 98 28.5t38 82.5q0 45 -33 72t-108 44q-51 12 -92 27.5t-69.5 38.5t-44 56.5t-15.5 81.5q0 41 17.5 72.5t47.5 54.5q-14 20 -22 45t-8 58q0 43 19.5 77t51.5 56.5t73.5 34.5t85.5 12q91 0 148.5 -46.5 t61.5 -142.5l-94 -13q-1 24 -7.5 45.5t-21 37t-36 24.5t-52.5 9q-61 0 -97.5 -27.5t-36.5 -68.5q0 -21 6.5 -37t24 -28.5t46.5 -23.5t74 -21q46 -10 85.5 -26.5t68.5 -42t45.5 -60.5t16.5 -81q0 -43 -15 -77t-43 -59q24 -41 24 -97q0 -45 -17.5 -81t-48.5 -61.5t-74 -39 t-94 -13.5q-45 0 -85 12t-71.5 35t-52.5 57t-27 79zM415 170q29 29 29 73q0 45 -33 72.5t-108 44.5q-35 8 -63 17.5t-50 23.5q-46 -26 -46 -72q0 -21 6.5 -37t23.5 -29t46 -24t74 -21q39 -9 69 -20.5t52 -27.5z" />
<glyph unicode="&#xa8;" horiz-adv-x="393" d="M38 644v132h101v-132h-101zM254 644v132h101v-132h-101z" />
<glyph unicode="&#xa9;" horiz-adv-x="821" d="M409 -10q-75 0 -141 29.5t-115 80t-77.5 118.5t-28.5 146q0 77 28.5 145t77.5 118.5t115 80t141 29.5t141 -29.5t115.5 -80t78.5 -118.5t29 -145q0 -78 -29 -146t-78.5 -118.5t-115.5 -80t-141 -29.5zM409 56q64 0 119.5 24t97 66t65.5 98t24 120t-24 120t-65.5 97.5 t-97 65.5t-119.5 24q-63 0 -118.5 -24t-97 -65.5t-65.5 -97.5t-24 -120t24 -120t65.5 -98t97 -66t118.5 -24zM558 291q-3 -31 -14.5 -56.5t-31 -44t-45 -29t-55.5 -10.5q-38 0 -70 12.5t-55 39.5t-35.5 68t-12.5 98t12.5 98t35.5 67.5t55 39t70 12.5q30 0 55.5 -10t45 -28.5 t31.5 -44t15 -55.5l-57 -7q-7 38 -31.5 60t-62.5 22q-50 0 -79.5 -36.5t-29.5 -117.5q0 -82 29.5 -118.5t79.5 -36.5q38 0 62.5 21.5t30.5 61.5z" />
<glyph unicode="&#xac;" horiz-adv-x="567" d="M440 0v319h-401v87h488v-406h-87z" />
<glyph unicode="&#xae;" horiz-adv-x="821" d="M409 -10q-75 0 -141 29.5t-115 80t-77.5 118.5t-28.5 146q0 77 28.5 145t77.5 118.5t115 80t141 29.5t141 -29.5t115.5 -80t78.5 -118.5t29 -145q0 -78 -29 -146t-78.5 -118.5t-115.5 -80t-141 -29.5zM409 56q64 0 119.5 24t97 66t65.5 98t24 120t-24 120t-65.5 97.5 t-97 65.5t-119.5 24q-63 0 -118.5 -24t-97 -65.5t-65.5 -97.5t-24 -120t24 -120t65.5 -98t97 -66t118.5 -24zM502 160q-5 7 -5 23v90q0 31 -17 44.5t-46 13.5h-101v-171h-59v417h152q60 0 92.5 -32.5t32.5 -88.5q0 -40 -14 -61.5t-36 -30.5q23 -8 39 -26.5t16 -58.5v-96 q0 -10 5 -23h-59zM427 385q32 0 49.5 16.5t17.5 51.5q0 31 -17 48.5t-53 17.5h-91v-134h94z" />
<glyph unicode="&#xaf;" horiz-adv-x="378" d="M49 708v61h279v-61h-279z" />
<glyph unicode="&#xb0;" horiz-adv-x="432" d="M216 428q-31 0 -58.5 12t-47.5 33t-32 49t-12 60t12 60t32 49t47.5 33.5t58.5 12.5t58 -12.5t47.5 -33.5t32.5 -49t12 -60t-12 -60t-32.5 -49t-47.5 -33t-58 -12zM216 486q19 0 35.5 7.5t29 20.5t19.5 30t7 37q0 41 -26.5 68t-64.5 27t-64 -27.5t-26 -67.5q0 -20 7 -37 t19 -30t28.5 -20.5t35.5 -7.5z" />
<glyph unicode="&#xb4;" horiz-adv-x="350" d="M83 584l-34 52l208 167l45 -67z" />
<glyph unicode="&#xb6;" horiz-adv-x="753" d="M574 -179v806h-134v-806h-101v455h-72q-50 0 -91.5 15t-71.5 43.5t-46.5 70.5t-16.5 97q0 52 15.5 93.5t44 71t68 45t88.5 15.5h417v-906h-100zM339 627h-80q-58 0 -88.5 -33t-30.5 -96q0 -61 31.5 -91.5t89.5 -30.5h78v251z" />
<glyph unicode="&#xb8;" horiz-adv-x="211" d="M60 -236l31 83l-2 4h-35v123h100v-123l-37 -87h-57z" />
<glyph unicode="&#xc6;" horiz-adv-x="856" d="M455 0l-21 135h-275l-41 -135h-104l227 727h549v-100h-329l31 -205h294v-98h-279l35 -225h248v-99h-335zM360 627h-52l-120 -396h232z" />
<glyph unicode="&#xd0;" horiz-adv-x="656" d="M68 0v324h-60v98h60v305h235q87 0 145 -28t93 -76.5t49.5 -115t14.5 -143.5q0 -78 -14.5 -144.5t-49.5 -115t-93 -76.5t-145 -28h-235zM297 99q56 0 95.5 15t64 47.5t35.5 82.5t11 120q0 69 -11 119t-35.5 82t-64 47t-95.5 15h-129v-205h189v-98h-189v-225h129z" />
<glyph unicode="&#xd7;" horiz-adv-x="580" d="M290 297l-146 -146l-62 61l147 146l-147 146l62 61l146 -146l146 146l60 -61l-145 -146l145 -145l-60 -62z" />
<glyph unicode="&#xd8;" horiz-adv-x="693" d="M83 -51l67 128q-43 50 -67 122t-24 165q0 88 22.5 158t61.5 119t92.5 75t116.5 26q69 0 127 -35l37 71h93l-66 -125q42 -50 66 -123t24 -166q0 -87 -21 -157t-58 -119.5t-89 -76t-113 -26.5q-39 0 -74 10t-66 29l-40 -75h-89zM260 116q39 -24 87 -24q40 0 74 17.5t59 52 t39 85t14 117.5q0 60 -11.5 106.5t-32.5 80.5zM429 612q-38 22 -82 22q-39 0 -73.5 -17t-60 -51t-40 -84.5t-14.5 -117.5q0 -60 11.5 -106t31.5 -80z" />
<glyph unicode="&#xde;" horiz-adv-x="591" d="M169 137v-137h-100v727h100v-140h174q49 0 89 -15.5t68 -44.5t43.5 -70.5t15.5 -93.5q0 -55 -16.5 -97t-46 -70.5t-71.5 -43.5t-93 -15h-163zM338 233q59 0 90 32.5t31 92.5q0 63 -30 97.5t-88 34.5h-172v-257h169z" />
<glyph unicode="&#xdf;" horiz-adv-x="602" d="M275 98q11 -7 27 -11.5t35 -4.5q51 0 81.5 38.5t30.5 103.5q0 70 -35 98t-107 28h-8v84h6q44 0 66 29t22 81q0 61 -29 88.5t-80 27.5q-63 0 -89.5 -33.5t-26.5 -103.5v-523h-99v532q0 114 53 171t155 57q105 0 160 -53t55 -152q0 -57 -22 -96t-47 -53q19 -5 41 -17 t41 -33.5t31.5 -53.5t12.5 -76q0 -53 -12.5 -97t-38 -76t-63 -50t-87.5 -18q-32 0 -61 7.5t-52 18.5z" />
<glyph unicode="&#xe6;" horiz-adv-x="856" d="M14 0zM455 0l-21 135h-275l-41 -135h-104l227 727h549v-100h-329l31 -205h294v-98h-279l35 -225h248v-99h-335zM360 627h-52l-120 -396h232z" />
<glyph unicode="&#xf0;" horiz-adv-x="656" d="M8 0zM68 0v324h-60v98h60v305h235q87 0 145 -28t93 -76.5t49.5 -115t14.5 -143.5q0 -78 -14.5 -144.5t-49.5 -115t-93 -76.5t-145 -28h-235zM297 99q56 0 95.5 15t64 47.5t35.5 82.5t11 120q0 69 -11 119t-35.5 82t-64 47t-95.5 15h-129v-205h189v-98h-189v-225h129z" />
<glyph unicode="&#xf8;" horiz-adv-x="693" d="M59 0zM83 -51l67 128q-43 50 -67 122t-24 165q0 88 22.5 158t61.5 119t92.5 75t116.5 26q69 0 127 -35l37 71h93l-66 -125q42 -50 66 -123t24 -166q0 -87 -21 -157t-58 -119.5t-89 -76t-113 -26.5q-39 0 -74 10t-66 29l-40 -75h-89zM260 116q39 -24 87 -24q40 0 74 17.5 t59 52t39 85t14 117.5q0 60 -11.5 106.5t-32.5 80.5zM429 612q-38 22 -82 22q-39 0 -73.5 -17t-60 -51t-40 -84.5t-14.5 -117.5q0 -60 11.5 -106t31.5 -80z" />
<glyph unicode="&#xfe;" horiz-adv-x="591" d="M69 0zM169 137v-137h-100v727h100v-140h174q49 0 89 -15.5t68 -44.5t43.5 -70.5t15.5 -93.5q0 -55 -16.5 -97t-46 -70.5t-71.5 -43.5t-93 -15h-163zM338 233q59 0 90 32.5t31 92.5q0 63 -30 97.5t-88 34.5h-172v-257h169z" />
<glyph unicode="&#x141;" horiz-adv-x="547" d="M68 0v361l-60 -33v99l60 33v267h100v-212l204 118v-100l-204 -117v-317h351v-99h-451z" />
<glyph unicode="&#x142;" horiz-adv-x="547" d="M8 0zM68 0v361l-60 -33v99l60 33v267h100v-212l204 118v-100l-204 -117v-317h351v-99h-451z" />
<glyph unicode="&#x152;" horiz-adv-x="961" d="M509 0v48q-32 -30 -71 -46.5t-86 -16.5q-63 0 -116.5 26t-92.5 75t-61.5 119t-22.5 159q0 88 22.5 158t61.5 119t92.5 75t116.5 26q47 0 86 -17t71 -47v49h386v-100h-285v-205h281v-98h-281v-225h285v-99h-386zM509 537q-19 42 -58.5 69.5t-95.5 27.5q-42 0 -78 -17 t-62.5 -51t-41 -84.5t-14.5 -117.5t14.5 -118t41 -85t62.5 -51.5t78 -17.5q56 0 95.5 24t58.5 59v362z" />
<glyph unicode="&#x153;" horiz-adv-x="961" d="M59 0zM509 0v48q-32 -30 -71 -46.5t-86 -16.5q-63 0 -116.5 26t-92.5 75t-61.5 119t-22.5 159q0 88 22.5 158t61.5 119t92.5 75t116.5 26q47 0 86 -17t71 -47v49h386v-100h-285v-205h281v-98h-281v-225h285v-99h-386zM509 537q-19 42 -58.5 69.5t-95.5 27.5 q-42 0 -78 -17t-62.5 -51t-41 -84.5t-14.5 -117.5t14.5 -118t41 -85t62.5 -51.5t78 -17.5q56 0 95.5 24t58.5 59v362z" />
<glyph unicode="&#x192;" horiz-adv-x="502" d="M21 -100q57 11 86 47.5t42 106.5l68 388h-66l18 98h66q19 104 62 153t120 49q20 0 33.5 -2.5t24.5 -6.5v-95q-10 5 -24 9t-34 4q-44 0 -65.5 -29t-29.5 -82h117l-17 -98h-113l-71 -399q-17 -98 -69 -160t-148 -77v94z" />
<glyph unicode="&#x2c6;" horiz-adv-x="409" d="M204 703l-120 -111l-35 39l155 164l157 -164l-36 -39z" />
<glyph unicode="&#x2c7;" horiz-adv-x="409" d="M49 756l35 39l121 -110l120 110l36 -39l-156 -164z" />
<glyph unicode="&#x2d8;" horiz-adv-x="376" d="M345 791q-1 -32 -11 -63.5t-29.5 -57t-48.5 -41.5t-69 -16q-39 0 -68.5 16t-49 41.5t-29.5 57t-11 63.5h58q3 -54 28 -87t72 -33q24 0 42 10.5t30.5 27t19 38t8.5 44.5h58z" />
<glyph unicode="&#x2d9;" horiz-adv-x="206" d="M52 644v132h101v-132h-101z" />
<glyph unicode="&#x2da;" horiz-adv-x="312" d="M156 584q-23 0 -42.5 8.5t-33.5 23.5t-22.5 35.5t-8.5 43.5q0 22 8.5 41.5t22.5 34.5t33.5 23.5t42.5 8.5q21 0 40.5 -8.5t34 -23.5t23.5 -34.5t9 -41.5q0 -23 -9 -43t-23.5 -35t-34 -24t-40.5 -9zM156 636q22 0 37.5 16.5t15.5 42.5q0 22 -15.5 38.5t-37.5 16.5 q-23 0 -39 -16.5t-16 -38.5q0 -26 16 -42.5t39 -16.5z" />
<glyph unicode="&#x2db;" horiz-adv-x="295" d="M234 -225q-20 -7 -36 -9t-43 -2q-44 0 -75 26t-31 79q0 25 10 46.5t26 39t37 29t42 16.5h52q-49 -15 -72.5 -45.5t-23.5 -56.5q0 -33 18 -45t44 -12q15 0 31.5 3t32.5 11z" />
<glyph unicode="&#x2dc;" horiz-adv-x="532" d="M482 741q-18 -51 -54 -77.5t-76 -26.5q-31 0 -54 14t-43 31t-39.5 31t-41.5 14q-26 0 -44.5 -23t-34.5 -55l-46 41q17 45 50.5 72.5t71.5 27.5q34 0 58.5 -14t45 -30.5t39 -30.5t41.5 -14q27 0 45.5 23.5t35.5 57.5z" />
<glyph unicode="&#x2dd;" horiz-adv-x="575" d="M308 584l-35 52l208 167l45 -67zM83 584l-34 52l207 167l46 -67z" />
<glyph unicode="&#x394;" d="M14 0l227 727h128l226 -727h-581zM306 604h-5l-156 -508h318z" />
<glyph unicode="&#x3a9;" horiz-adv-x="690" d="M368 2l3 81q46 48 76.5 91.5t49 86.5t26 87t7.5 93q0 103 -48 152t-138 49t-138 -49t-48 -152q0 -49 7.5 -93t26 -87t49 -86.5t76.5 -91.5l4 -81h-264v99h142q-36 40 -62.5 79t-44 79t-26.5 83t-9 91q0 147 72 228t215 81q144 0 215.5 -81t71.5 -228q0 -48 -9 -91 t-26.5 -83t-44 -79t-62.5 -79h142v-99h-263z" />
<glyph unicode="&#x3bc;" horiz-adv-x="566" d="M540 3q-8 -5 -24 -9t-38 -4q-23 0 -42.5 13t-24.5 37q-11 -20 -40.5 -37.5t-81.5 -17.5q-47 0 -76 16t-45 36l-4 -2q4 -20 5 -42.5t1 -51.5v-119h-100v744h100v-391q5 -16 15 -31.5t24.5 -28t33.5 -20t42 -7.5q52 0 78 25t26 79v374h99v-444q0 -22 10 -32t25 -10 q7 0 10 1z" />
<glyph unicode="&#x3c0;" horiz-adv-x="613" d="M586 6q-9 -6 -29 -11t-56 -5q-64 0 -98 43.5t-34 115.5v317h-200v-466h-100v566h399v-404q0 -72 63 -72q40 0 71 25z" />
<glyph unicode="&#x2013;" horiz-adv-x="533" d="M30 322v99h471v-99h-471z" />
<glyph unicode="&#x2014;" horiz-adv-x="920" d="M30 322v99h858v-99h-858z" />
<glyph unicode="&#x2018;" horiz-adv-x="248" d="M72 495v132l46 115h55l-38 -112l2 -3h35v-132h-100z" />
<glyph unicode="&#x2019;" horiz-adv-x="248" d="M74 480l38 111l-2 4h-35v132h100v-132l-45 -115h-56z" />
<glyph unicode="&#x201a;" horiz-adv-x="248" d="M74 -115l38 111l-2 4h-35v132h100v-132l-45 -115h-56z" />
<glyph unicode="&#x2020;" horiz-adv-x="463" d="M191 0v496h-123v82h123v149h83v-149h120v-82h-120v-496h-83z" />
<glyph unicode="&#x2021;" horiz-adv-x="463" d="M191 0v148h-123v82h123v266h-123v82h123v149h83v-149h120v-82h-120v-266h120v-82h-120v-148h-83z" />
<glyph unicode="&#x2022;" horiz-adv-x="302" d="M150 252q-22 0 -40.5 8.5t-32.5 22.5t-22 33.5t-8 41.5q0 21 8 40t22 33.5t32.5 23t40.5 8.5t40.5 -8.5t32.5 -23t22 -33.5t8 -40q0 -22 -8 -41.5t-22 -33.5t-32.5 -22.5t-40.5 -8.5z" />
<glyph unicode="&#x2039;" horiz-adv-x="275" d="M205 213l-181 171l181 172l43 -40l-119 -132l119 -132z" />
<glyph unicode="&#x203a;" horiz-adv-x="275" d="M68 213l-44 39l121 132l-121 132l44 40l180 -172z" />
<glyph unicode="&#x2044;" horiz-adv-x="232" d="M-209 0l563 727h87l-564 -727h-86z" />
<glyph unicode="&#x20ac;" horiz-adv-x="625" d="M594 163q-25 -81 -87 -129.5t-149 -48.5q-115 0 -187.5 66.5t-95.5 193.5h-45l13 82h23q-1 10 -1 19.5v20.5v20t1 21h-36l13 79h33q23 117 98 186t206 69q60 0 103.5 -11t70.5 -30l-41 -104q-26 17 -60 27t-73 10q-43 0 -76 -10.5t-57 -29.5t-40 -46t-25 -61h289l-32 -79 h-271q-1 -11 -1 -21.5v-21.5v-19t1 -19h239l-32 -82h-194q9 -33 23 -61t35 -48.5t48.5 -32t62.5 -11.5q53 0 90 25.5t55 73.5z" />
<glyph unicode="&#x2117;" horiz-adv-x="821" d="M409 -10q-75 0 -141 29.5t-115 80t-77.5 118.5t-28.5 146q0 77 28.5 145t77.5 118.5t115 80t141 29.5t141 -29.5t115.5 -80t78.5 -118.5t29 -145q0 -78 -29 -146t-78.5 -118.5t-115.5 -80t-141 -29.5zM409 56q64 0 119.5 24t97 66t65.5 98t24 120t-24 120t-65.5 97.5 t-97 65.5t-119.5 24q-63 0 -118.5 -24t-97 -65.5t-65.5 -97.5t-24 -120t24 -120t65.5 -98t97 -66t118.5 -24zM446 375q34 0 52.5 18t18.5 53q0 73 -70 73h-102v-144h101zM287 160v417h161q58 0 92.5 -34t34.5 -94q0 -63 -37 -96.5t-97 -33.5h-96v-159h-58z" />
<glyph unicode="&#x2122;" horiz-adv-x="858" d="M155 261v402h-125v64h318v-64h-123v-402h-70zM731 261v335h-4l-94 -228h-56l-93 228h-4v-335h-65v466h87l104 -261h4l105 261h81v-466h-65z" />
<glyph unicode="&#x2202;" horiz-adv-x="596" d="M433 229q-5 51 -41.5 81t-95.5 30q-34 0 -62.5 -10t-49.5 -28t-33 -43.5t-12 -57.5t10.5 -54t28 -36.5t41 -21t49.5 -6.5q32 0 61 10t51.5 29t36.5 46t16 61zM452 359q0 109 -59 177.5t-158 100.5l40 96q140 -34 208.5 -133t68.5 -241q0 -62 -13.5 -128t-45.5 -121 t-85.5 -90t-134.5 -35q-47 0 -89 12.5t-73.5 38t-49.5 64t-18 91.5q0 52 18 96.5t50.5 76t76.5 49.5t95 18q52 0 95 -20t70 -53z" />
<glyph unicode="&#x220f;" horiz-adv-x="668" d="M497 -179v800h-328v-800h-105v906h540v-906h-107z" />
<glyph unicode="&#x2211;" horiz-adv-x="613" d="M49 -156v79l249 363l-249 361v80h520v-100h-391l231 -341l-231 -342h391v-100h-520z" />
<glyph unicode="&#x2212;" horiz-adv-x="580" d="M39 315v87h500v-87h-500z" />
<glyph unicode="&#x221a;" horiz-adv-x="601" d="M241 0l-86 273h-121v96h198l64 -214l166 572h104l-220 -727h-105z" />
<glyph unicode="&#x221e;" horiz-adv-x="833" d="M414 246q-21 -47 -66.5 -71.5t-97.5 -24.5q-94 0 -148 59.5t-54 162.5q0 49 14.5 89.5t40.5 69t63.5 44t83.5 15.5q54 0 99.5 -26.5t67.5 -68.5q23 47 66.5 71t98.5 24q94 0 148 -59t54 -162q0 -50 -14.5 -90.5t-40.5 -69t-63.5 -44t-83.5 -15.5q-56 0 -100.5 26.5 t-67.5 69.5zM580 238q58 0 90.5 37t32.5 97q0 61 -31.5 96t-91.5 35t-93 -33.5t-33 -97.5t32 -99t94 -35zM251 238q61 0 94 33t33 99q0 64 -32.5 98t-94.5 34q-57 0 -89.5 -36.5t-32.5 -95.5q0 -62 31 -97t91 -35z" />
<glyph unicode="&#x222b;" horiz-adv-x="389" d="M25 -179v82h37q42 0 62.5 23.5t20.5 85.5v528q0 94 43.5 140.5t147.5 46.5h26v-82h-26q-50 0 -71.5 -23.5t-21.5 -85.5v-528q0 -95 -42 -141t-138 -46h-38z" />
<glyph unicode="&#x2260;" horiz-adv-x="580" d="M226 164l-92 -164h-95l91 164h-91v86h139l121 218h-260v86h307l97 173h96l-96 -173h96v-86h-144l-122 -218h266v-86h-313z" />
<glyph unicode="&#x25ca;" horiz-adv-x="574" d="M243 0l-195 363l195 364h88l195 -364l-195 -363h-88zM426 363l-139 275l-140 -275l140 -275z" />
<glyph unicode="A" d="M486 0l-43 135h-279l-41 -135h-109l227 727h128l226 -727h-109zM306 576h-5l-108 -345h221z" />
<glyph unicode="&#xb1;" horiz-adv-x="580" d="M39 0zM246 108v207h-207v87h207v206h87v-206h206v-87h-206v-207h-87zM40 -85v87h500v-87h-500z" />
<glyph unicode="&#x2248;" horiz-adv-x="580" d="M31 144zM540 241q-27 -47 -65 -72t-83 -25q-38 0 -65 14t-51 30.5t-47.5 30.5t-54.5 14q-24 0 -44 -16.5t-38 -45.5l-61 45q28 47 65 69.5t82 22.5q41 0 69.5 -14t51.5 -30.5t44.5 -30t48.5 -13.5q29 0 49.5 17.5t37.5 48.5zM544 501q-27 -47 -65 -72t-83 -25 q-38 0 -65 14t-51 30.5t-47.5 30.5t-54.5 14q-24 0 -44 -16.5t-38 -45.5l-61 45q28 47 65 69.5t82 22.5q41 0 69.5 -14t51.5 -30.5t44.5 -30t48.5 -13.5q29 0 49.5 17.5t37.5 48.5z" />
<glyph unicode="&#xa1;" horiz-adv-x="262" d="M161 513l27 -263v-250h-113v250l27 263h59zM182 727v-132h-101v132h101z" />
<glyph unicode="&#x2265;" horiz-adv-x="580" d="M39 0zM39 119v88l397 151l-397 152v88l500 -196v-87zM40 -85v87h500v-87h-500z" />
<glyph unicode="&#x2264;" horiz-adv-x="580" d="M39 0zM39 315v87l500 196v-88l-396 -152l396 -151v-88zM40 -85v87h500v-87h-500z" />
<glyph unicode="&#xf7;" horiz-adv-x="580" d="M39 315v87h500v-87h-500zM240 502v132h100v-132h-100zM240 84v132h100v-132h-100z" />
<glyph unicode="&#x2026;" horiz-adv-x="846" d="M81 0v132h100v-132h-100zM373 0v132h100v-132h-100zM665 0v132h100v-132h-100z" />
<glyph unicode="&#xb7;" horiz-adv-x="246" d="M72 301zM72 301v132h100v-132h-100z" />
<glyph unicode="&#xbf;" horiz-adv-x="482" d="M310 524v-21q0 -66 -18.5 -113.5t-70.5 -87.5q-21 -17 -35 -30t-23 -26.5t-12.5 -27.5t-3.5 -32q0 -24 9.5 -42.5t25 -31t35 -19t39.5 -6.5q46 0 75.5 25.5t42.5 59.5l84 -57q-11 -26 -29 -49.5t-43.5 -41.5t-59 -28.5t-76.5 -10.5q-38 0 -75.5 10.5t-67 33.5t-48 60 t-18.5 90q0 33 9 59.5t24 49t34.5 42.5t41.5 39q19 17 31 32t18.5 31t8.5 35t2 44v13h100zM311 727v-132h-101v132h101z" />
<glyph unicode="&#x131;" horiz-adv-x="246" d="M73 0zM73 0v727h101v-727h-101z" />
<glyph unicode="&#x104;" d="M613 -225q-20 -7 -36 -9t-43 -2q-44 0 -75 26t-31 79q0 35 18.5 63.5t46.5 46.5l-50 156h-279l-41 -135h-109l227 727h128l226 -727q-49 -15 -72.5 -45.5t-23.5 -56.5q0 -33 18 -45t44 -12q15 0 31.5 3t32.5 11zM306 576h-5l-108 -345h221z" />
<glyph unicode="&#x105;" d="M14 0zM613 -225q-20 -7 -36 -9t-43 -2q-44 0 -75 26t-31 79q0 35 18.5 63.5t46.5 46.5l-50 156h-279l-41 -135h-109l227 727h128l226 -727q-49 -15 -72.5 -45.5t-23.5 -56.5q0 -33 18 -45t44 -12q15 0 31.5 3t32.5 11zM306 576h-5l-108 -345h221z" />
<glyph unicode="&#x118;" horiz-adv-x="521" d="M473 -225q-20 -7 -36 -9t-43 -2q-44 0 -75 26t-31 79q0 25 10 46.5t26 39t37 29t42 16.5h-334v727h386v-100h-286v-205h282v-98h-282v-225h286v-99q-49 -15 -72.5 -45.5t-23.5 -56.5q0 -33 18 -45t44 -12q15 0 31.5 3t32.5 11z" />
<glyph unicode="&#x119;" horiz-adv-x="521" d="M69 0zM473 -225q-20 -7 -36 -9t-43 -2q-44 0 -75 26t-31 79q0 25 10 46.5t26 39t37 29t42 16.5h-334v727h386v-100h-286v-205h282v-98h-282v-225h286v-99q-49 -15 -72.5 -45.5t-23.5 -56.5q0 -33 18 -45t44 -12q15 0 31.5 3t32.5 11z" />
<glyph unicode="&#x12e;" horiz-adv-x="246" d="M192 -225q-20 -7 -36 -9t-43 -2q-44 0 -75 26t-31 79q0 35 19 64t47 47v747h101v-727q-49 -15 -72.5 -45.5t-23.5 -56.5q0 -33 18 -45t44 -12q15 0 31.5 3t32.5 11z" />
<glyph unicode="&#x12f;" horiz-adv-x="246" d="M7 0zM192 -225q-20 -7 -36 -9t-43 -2q-44 0 -75 26t-31 79q0 35 19 64t47 47v747h101v-727q-49 -15 -72.5 -45.5t-23.5 -56.5q0 -33 18 -45t44 -12q15 0 31.5 3t32.5 11z" />
<glyph unicode="&#x172;" horiz-adv-x="622" d="M432 -225q-20 -7 -36 -9t-43 -2q-44 0 -75 26t-31 79q0 38 21.5 68.5t53.5 47.5h-7q-60 0 -106.5 14t-78.5 46t-48.5 83.5t-16.5 126.5v472h99v-478q0 -48 10 -79.5t29 -51t47.5 -27.5t64.5 -8q34 0 60.5 8t44.5 27.5t27 51.5t9 80v477h100v-468q0 -62 -10.5 -108 t-31 -78.5t-51 -51.5t-69.5 -28q-39 -17 -57.5 -44t-18.5 -51q0 -33 18 -45t44 -12q15 0 31.5 3t32.5 11z" />
<glyph unicode="&#x173;" horiz-adv-x="622" d="M65 0zM432 -225q-20 -7 -36 -9t-43 -2q-44 0 -75 26t-31 79q0 38 21.5 68.5t53.5 47.5h-7q-60 0 -106.5 14t-78.5 46t-48.5 83.5t-16.5 126.5v472h99v-478q0 -48 10 -79.5t29 -51t47.5 -27.5t64.5 -8q34 0 60.5 8t44.5 27.5t27 51.5t9 80v477h100v-468q0 -62 -10.5 -108 t-31 -78.5t-51 -51.5t-69.5 -28q-39 -17 -57.5 -44t-18.5 -51q0 -33 18 -45t44 -12q15 0 31.5 3t32.5 11z" />
<glyph unicode="&#x10f;" horiz-adv-x="658" d="M69 0zM69 0v727h235q87 0 145 -28t93 -76.5t49.5 -115t14.5 -143.5q0 -78 -14.5 -144.5t-49.5 -115t-93 -76.5t-145 -28h-235zM298 99q57 0 96 15t64 47.5t36 82.5t11 120q0 69 -11 119t-36 82t-64 47t-96 15h-129v-528h129zM153 917l35 39l121 -110l120 110l36 -39 l-156 -164z" />
<glyph unicode="&#x165;" horiz-adv-x="557" d="M30 0zM226 0v627h-196v100h496v-100h-194v-627h-106zM122 917l35 39l121 -110l120 110l36 -39l-156 -164z" />
<glyph unicode="&#x13d;" horiz-adv-x="548" d="M69 0zM69 0v727h100v-628h352v-99h-452zM244 532l31 83l-2 4h-35v123h100v-123l-37 -87h-57z" />
<glyph unicode="&#x13e;" horiz-adv-x="548" d="M69 0zM69 0v727h100v-628h352v-99h-452zM244 532l31 83l-2 4h-35v123h100v-123l-37 -87h-57z" />
<glyph unicode="&#x123;" horiz-adv-x="676" d="M59 0zM374 280v100h255q1 -11 1.5 -28t0.5 -35q0 -63 -14.5 -122.5t-48 -106t-87.5 -75t-133 -28.5q-59 0 -111.5 22t-92 68t-62.5 117.5t-23 171.5q0 99 23 170.5t64 117.5t96 68t120 22q46 0 87.5 -14.5t75 -41t57 -63t33.5 -81.5l-96 -17q-18 53 -62.5 84t-102.5 31 q-42 0 -78 -16t-62 -50t-41 -86t-15 -124q0 -73 14.5 -125.5t40.5 -86.5t61.5 -50t76.5 -16q46 0 79 14t54.5 39.5t32 61.5t12.5 79h-155zM306 -236l31 83l-2 4h-35v123h100v-123l-37 -87h-57z" />
<glyph unicode="&#x111;" horiz-adv-x="656" d="M8 0zM68 0v324h-60v98h60v305h235q87 0 145 -28t93 -76.5t49.5 -115t14.5 -143.5q0 -78 -14.5 -144.5t-49.5 -115t-93 -76.5t-145 -28h-235zM297 99q56 0 95.5 15t64 47.5t35.5 82.5t11 120q0 69 -11 119t-35.5 82t-64 47t-95.5 15h-129v-205h189v-98h-189v-225h129z" />
<glyph unicode="&#x127;" horiz-adv-x="657" d="M0 0zM489 0v324h-320v-324h-100v539h-69v61h69v127h100v-127h320v127h99v-127h69v-61h-69v-539h-99zM489 422v117h-320v-117h320z" />
<glyph unicode="&#x166;" horiz-adv-x="557" d="M226 0v423h-90v89h90v115h-196v100h496v-100h-194v-115h89v-89h-89v-423h-106z" />
<glyph unicode="&#x167;" horiz-adv-x="557" d="M30 0zM226 0v423h-90v89h90v115h-196v100h496v-100h-194v-115h89v-89h-89v-423h-106z" />
<glyph unicode="&#x126;" horiz-adv-x="657" d="M489 0v324h-320v-324h-100v539h-69v61h69v127h100v-127h320v127h99v-127h69v-61h-69v-539h-99zM489 422v117h-320v-117h320z" />
<glyph unicode="&#x13f;" horiz-adv-x="548" d="M69 0zM69 0v727h100v-628h352v-99h-452zM251 316v132h101v-132h-101z" />
<glyph unicode="&#x140;" horiz-adv-x="548" d="M69 0zM69 0v727h100v-628h352v-99h-452zM251 316v132h101v-132h-101z" />
<glyph unicode="&#x14a;" horiz-adv-x="658" d="M589 26q0 -47 -13 -87t-38 -69.5t-62 -46.5t-86 -17q-44 0 -76.5 13t-58.5 33l55 80q14 -11 32 -19.5t40 -8.5q45 0 73 26.5t36 69.5l-320 548h-4v-548h-98v727h119l299 -528h4v528h98v-701z" />
<glyph unicode="&#x14b;" horiz-adv-x="658" d="M69 0zM589 26q0 -47 -13 -87t-38 -69.5t-62 -46.5t-86 -17q-44 0 -76.5 13t-58.5 33l55 80q14 -11 32 -19.5t40 -8.5q45 0 73 26.5t36 69.5l-320 548h-4v-548h-98v727h119l299 -528h4v528h98v-701z" />
<glyph unicode="&#xc1;" d="M14 0zM486 0l-43 135h-279l-41 -135h-109l227 727h128l226 -727h-109zM306 576h-5l-108 -345h221zM242 745l-34 52l208 167l45 -67z" />
<glyph unicode="&#xe1;" d="M14 0zM486 0l-43 135h-279l-41 -135h-109l227 727h128l226 -727h-109zM306 576h-5l-108 -345h221zM242 745l-34 52l208 167l45 -67z" />
<glyph unicode="&#x102;" d="M14 0zM486 0l-43 135h-279l-41 -135h-109l227 727h128l226 -727h-109zM306 576h-5l-108 -345h221zM463 952q-1 -32 -11 -63.5t-29.5 -57t-48.5 -41.5t-69 -16q-39 0 -68.5 16t-49 41.5t-29.5 57t-11 63.5h58q3 -54 28 -87t72 -33q24 0 42 10.5t30.5 27t19 38t8.5 44.5h58 z" />
<glyph unicode="&#x103;" d="M14 0zM486 0l-43 135h-279l-41 -135h-109l227 727h128l226 -727h-109zM306 576h-5l-108 -345h221zM463 952q-1 -32 -11 -63.5t-29.5 -57t-48.5 -41.5t-69 -16q-39 0 -68.5 16t-49 41.5t-29.5 57t-11 63.5h58q3 -54 28 -87t72 -33q24 0 42 10.5t30.5 27t19 38t8.5 44.5h58 z" />
<glyph unicode="&#xc2;" d="M14 0zM486 0l-43 135h-279l-41 -135h-109l227 727h128l226 -727h-109zM306 576h-5l-108 -345h221zM304 864l-120 -111l-35 39l155 164l157 -164l-36 -39z" />
<glyph unicode="&#xe2;" d="M14 0zM486 0l-43 135h-279l-41 -135h-109l227 727h128l226 -727h-109zM306 576h-5l-108 -345h221zM304 864l-120 -111l-35 39l155 164l157 -164l-36 -39z" />
<glyph unicode="&#xc4;" d="M14 0zM486 0l-43 135h-279l-41 -135h-109l227 727h128l226 -727h-109zM306 576h-5l-108 -345h221zM146 805v132h101v-132h-101zM362 805v132h101v-132h-101z" />
<glyph unicode="&#xe4;" d="M14 0zM486 0l-43 135h-279l-41 -135h-109l227 727h128l226 -727h-109zM306 576h-5l-108 -345h221zM146 805v132h101v-132h-101zM362 805v132h101v-132h-101z" />
<glyph unicode="&#xc0;" d="M14 0zM486 0l-43 135h-279l-41 -135h-109l227 727h128l226 -727h-109zM306 576h-5l-108 -345h221zM148 897l44 67l209 -167l-35 -52z" />
<glyph unicode="&#xe0;" d="M14 0zM486 0l-43 135h-279l-41 -135h-109l227 727h128l226 -727h-109zM306 576h-5l-108 -345h221zM148 897l44 67l209 -167l-35 -52z" />
<glyph unicode="&#x100;" d="M14 0zM486 0l-43 135h-279l-41 -135h-109l227 727h128l226 -727h-109zM306 576h-5l-108 -345h221zM165 869v61h279v-61h-279z" />
<glyph unicode="&#x101;" d="M14 0zM486 0l-43 135h-279l-41 -135h-109l227 727h128l226 -727h-109zM306 576h-5l-108 -345h221zM165 869v61h279v-61h-279z" />
<glyph unicode="&#xc5;" d="M14 0zM486 0l-43 135h-279l-41 -135h-109l227 727h128l226 -727h-109zM306 576h-5l-108 -345h221zM305 745q-23 0 -42.5 8.5t-33.5 23.5t-22.5 35.5t-8.5 43.5q0 22 8.5 41.5t22.5 34.5t33.5 23.5t42.5 8.5q21 0 40.5 -8.5t34 -23.5t23.5 -34.5t9 -41.5q0 -23 -9 -43 t-23.5 -35t-34 -24t-40.5 -9zM305 797q22 0 37.5 16.5t15.5 42.5q0 22 -15.5 38.5t-37.5 16.5q-23 0 -39 -16.5t-16 -38.5q0 -26 16 -42.5t39 -16.5z" />
<glyph unicode="&#xe5;" d="M14 0zM486 0l-43 135h-279l-41 -135h-109l227 727h128l226 -727h-109zM306 576h-5l-108 -345h221zM305 745q-23 0 -42.5 8.5t-33.5 23.5t-22.5 35.5t-8.5 43.5q0 22 8.5 41.5t22.5 34.5t33.5 23.5t42.5 8.5q21 0 40.5 -8.5t34 -23.5t23.5 -34.5t9 -41.5q0 -23 -9 -43 t-23.5 -35t-34 -24t-40.5 -9zM305 797q22 0 37.5 16.5t15.5 42.5q0 22 -15.5 38.5t-37.5 16.5q-23 0 -39 -16.5t-16 -38.5q0 -26 16 -42.5t39 -16.5z" />
<glyph unicode="&#xc3;" d="M14 0zM486 0l-43 135h-279l-41 -135h-109l227 727h128l226 -727h-109zM306 576h-5l-108 -345h221zM521 902q-18 -51 -54 -77.5t-76 -26.5q-31 0 -54 14t-43 31t-39.5 31t-41.5 14q-26 0 -44.5 -23t-34.5 -55l-46 41q17 45 50.5 72.5t71.5 27.5q34 0 58.5 -14t45 -30.5 t39 -30.5t41.5 -14q27 0 45.5 23.5t35.5 57.5z" />
<glyph unicode="&#xe3;" d="M14 0zM486 0l-43 135h-279l-41 -135h-109l227 727h128l226 -727h-109zM306 576h-5l-108 -345h221zM521 902q-18 -51 -54 -77.5t-76 -26.5q-31 0 -54 14t-43 31t-39.5 31t-41.5 14q-26 0 -44.5 -23t-34.5 -55l-46 41q17 45 50.5 72.5t71.5 27.5q34 0 58.5 -14t45 -30.5 t39 -30.5t41.5 -14q27 0 45.5 23.5t35.5 57.5z" />
<glyph unicode="&#x106;" horiz-adv-x="649" d="M59 0zM601 228q-5 -54 -25 -98.5t-53 -76.5t-76.5 -50t-94.5 -18q-65 0 -118.5 22t-92.5 68t-60.5 117.5t-21.5 171.5q0 99 21.5 170.5t60.5 117.5t92.5 68t118.5 22q51 0 95 -17.5t76.5 -49.5t53 -76.5t25.5 -98.5l-98 -10q-11 71 -52.5 107.5t-107.5 36.5 q-41 0 -75 -15.5t-58 -48.5t-37 -84t-13 -122t13 -122.5t37 -84.5t58 -49t75 -16q65 0 106.5 38t52.5 108zM282 745l-34 52l208 167l45 -67z" />
<glyph unicode="&#x107;" horiz-adv-x="649" d="M59 0zM601 228q-5 -54 -25 -98.5t-53 -76.5t-76.5 -50t-94.5 -18q-65 0 -118.5 22t-92.5 68t-60.5 117.5t-21.5 171.5q0 99 21.5 170.5t60.5 117.5t92.5 68t118.5 22q51 0 95 -17.5t76.5 -49.5t53 -76.5t25.5 -98.5l-98 -10q-11 71 -52.5 107.5t-107.5 36.5 q-41 0 -75 -15.5t-58 -48.5t-37 -84t-13 -122t13 -122.5t37 -84.5t58 -49t75 -16q65 0 106.5 38t52.5 108zM282 745l-34 52l208 167l45 -67z" />
<glyph unicode="&#x10c;" horiz-adv-x="649" d="M59 0zM601 228q-5 -54 -25 -98.5t-53 -76.5t-76.5 -50t-94.5 -18q-65 0 -118.5 22t-92.5 68t-60.5 117.5t-21.5 171.5q0 99 21.5 170.5t60.5 117.5t92.5 68t118.5 22q51 0 95 -17.5t76.5 -49.5t53 -76.5t25.5 -98.5l-98 -10q-11 71 -52.5 107.5t-107.5 36.5 q-41 0 -75 -15.5t-58 -48.5t-37 -84t-13 -122t13 -122.5t37 -84.5t58 -49t75 -16q65 0 106.5 38t52.5 108zM188 917l35 39l121 -110l120 110l36 -39l-156 -164z" />
<glyph unicode="&#x10d;" horiz-adv-x="649" d="M59 0zM601 228q-5 -54 -25 -98.5t-53 -76.5t-76.5 -50t-94.5 -18q-65 0 -118.5 22t-92.5 68t-60.5 117.5t-21.5 171.5q0 99 21.5 170.5t60.5 117.5t92.5 68t118.5 22q51 0 95 -17.5t76.5 -49.5t53 -76.5t25.5 -98.5l-98 -10q-11 71 -52.5 107.5t-107.5 36.5 q-41 0 -75 -15.5t-58 -48.5t-37 -84t-13 -122t13 -122.5t37 -84.5t58 -49t75 -16q65 0 106.5 38t52.5 108zM188 917l35 39l121 -110l120 110l36 -39l-156 -164z" />
<glyph unicode="&#x10a;" horiz-adv-x="649" d="M59 0zM601 228q-5 -54 -25 -98.5t-53 -76.5t-76.5 -50t-94.5 -18q-65 0 -118.5 22t-92.5 68t-60.5 117.5t-21.5 171.5q0 99 21.5 170.5t60.5 117.5t92.5 68t118.5 22q51 0 95 -17.5t76.5 -49.5t53 -76.5t25.5 -98.5l-98 -10q-11 71 -52.5 107.5t-107.5 36.5 q-41 0 -75 -15.5t-58 -48.5t-37 -84t-13 -122t13 -122.5t37 -84.5t58 -49t75 -16q65 0 106.5 38t52.5 108zM294 805v132h101v-132h-101z" />
<glyph unicode="&#x10b;" horiz-adv-x="649" d="M59 0zM601 228q-5 -54 -25 -98.5t-53 -76.5t-76.5 -50t-94.5 -18q-65 0 -118.5 22t-92.5 68t-60.5 117.5t-21.5 171.5q0 99 21.5 170.5t60.5 117.5t92.5 68t118.5 22q51 0 95 -17.5t76.5 -49.5t53 -76.5t25.5 -98.5l-98 -10q-11 71 -52.5 107.5t-107.5 36.5 q-41 0 -75 -15.5t-58 -48.5t-37 -84t-13 -122t13 -122.5t37 -84.5t58 -49t75 -16q65 0 106.5 38t52.5 108zM294 805v132h101v-132h-101z" />
<glyph unicode="&#xc7;" horiz-adv-x="649" d="M59 0zM601 228q-5 -54 -25 -98.5t-53 -76.5t-76.5 -50t-94.5 -18q-65 0 -118.5 22t-92.5 68t-60.5 117.5t-21.5 171.5q0 99 21.5 170.5t60.5 117.5t92.5 68t118.5 22q51 0 95 -17.5t76.5 -49.5t53 -76.5t25.5 -98.5l-98 -10q-11 71 -52.5 107.5t-107.5 36.5 q-41 0 -75 -15.5t-58 -48.5t-37 -84t-13 -122t13 -122.5t37 -84.5t58 -49t75 -16q65 0 106.5 38t52.5 108zM300 -236l31 83l-2 4h-35v123h100v-123l-37 -87h-57z" />
<glyph unicode="&#xe7;" horiz-adv-x="649" d="M59 0zM601 228q-5 -54 -25 -98.5t-53 -76.5t-76.5 -50t-94.5 -18q-65 0 -118.5 22t-92.5 68t-60.5 117.5t-21.5 171.5q0 99 21.5 170.5t60.5 117.5t92.5 68t118.5 22q51 0 95 -17.5t76.5 -49.5t53 -76.5t25.5 -98.5l-98 -10q-11 71 -52.5 107.5t-107.5 36.5 q-41 0 -75 -15.5t-58 -48.5t-37 -84t-13 -122t13 -122.5t37 -84.5t58 -49t75 -16q65 0 106.5 38t52.5 108zM300 -236l31 83l-2 4h-35v123h100v-123l-37 -87h-57z" />
<glyph unicode="&#x10e;" horiz-adv-x="658" d="M69 0zM69 0v727h235q87 0 145 -28t93 -76.5t49.5 -115t14.5 -143.5q0 -78 -14.5 -144.5t-49.5 -115t-93 -76.5t-145 -28h-235zM298 99q57 0 96 15t64 47.5t36 82.5t11 120q0 69 -11 119t-36 82t-64 47t-96 15h-129v-528h129zM153 917l35 39l121 -110l120 110l36 -39 l-156 -164z" />
<glyph unicode="&#xc9;" horiz-adv-x="521" d="M69 0zM69 0v727h386v-100h-286v-205h282v-98h-282v-225h286v-99h-386zM208 745l-34 52l208 167l45 -67z" />
<glyph unicode="&#xe9;" horiz-adv-x="521" d="M69 0zM69 0v727h386v-100h-286v-205h282v-98h-282v-225h286v-99h-386zM208 745l-34 52l208 167l45 -67z" />
<glyph unicode="&#x114;" horiz-adv-x="521" d="M69 0zM69 0v727h386v-100h-286v-205h282v-98h-282v-225h286v-99h-386zM428 952q-1 -32 -11 -63.5t-29.5 -57t-48.5 -41.5t-69 -16q-39 0 -68.5 16t-49 41.5t-29.5 57t-11 63.5h58q3 -54 28 -87t72 -33q24 0 42 10.5t30.5 27t19 38t8.5 44.5h58z" />
<glyph unicode="&#x115;" horiz-adv-x="521" d="M69 0zM69 0v727h386v-100h-286v-205h282v-98h-282v-225h286v-99h-386zM428 952q-1 -32 -11 -63.5t-29.5 -57t-48.5 -41.5t-69 -16q-39 0 -68.5 16t-49 41.5t-29.5 57t-11 63.5h58q3 -54 28 -87t72 -33q24 0 42 10.5t30.5 27t19 38t8.5 44.5h58z" />
<glyph unicode="&#x11a;" horiz-adv-x="521" d="M69 0zM69 0v727h386v-100h-286v-205h282v-98h-282v-225h286v-99h-386zM114 917l35 39l121 -110l120 110l36 -39l-156 -164z" />
<glyph unicode="&#x11b;" horiz-adv-x="521" d="M69 0zM69 0v727h386v-100h-286v-205h282v-98h-282v-225h286v-99h-386zM114 917l35 39l121 -110l120 110l36 -39l-156 -164z" />
<glyph unicode="&#xca;" horiz-adv-x="521" d="M69 0zM69 0v727h386v-100h-286v-205h282v-98h-282v-225h286v-99h-386zM269 864l-120 -111l-35 39l155 164l157 -164l-36 -39z" />
<glyph unicode="&#xea;" horiz-adv-x="521" d="M69 0zM69 0v727h386v-100h-286v-205h282v-98h-282v-225h286v-99h-386zM269 864l-120 -111l-35 39l155 164l157 -164l-36 -39z" />
<glyph unicode="&#xcb;" horiz-adv-x="521" d="M69 0zM69 0v727h386v-100h-286v-205h282v-98h-282v-225h286v-99h-386zM112 805v132h101v-132h-101zM328 805v132h101v-132h-101z" />
<glyph unicode="&#xeb;" horiz-adv-x="521" d="M69 0zM69 0v727h386v-100h-286v-205h282v-98h-282v-225h286v-99h-386zM112 805v132h101v-132h-101zM328 805v132h101v-132h-101z" />
<glyph unicode="&#x116;" horiz-adv-x="521" d="M69 0zM69 0v727h386v-100h-286v-205h282v-98h-282v-225h286v-99h-386zM220 805v132h101v-132h-101z" />
<glyph unicode="&#x117;" horiz-adv-x="521" d="M69 0zM69 0v727h386v-100h-286v-205h282v-98h-282v-225h286v-99h-386zM220 805v132h101v-132h-101z" />
<glyph unicode="&#xc8;" horiz-adv-x="521" d="M69 0zM69 0v727h386v-100h-286v-205h282v-98h-282v-225h286v-99h-386zM114 897l44 67l209 -167l-35 -52z" />
<glyph unicode="&#xe8;" horiz-adv-x="521" d="M69 0zM69 0v727h386v-100h-286v-205h282v-98h-282v-225h286v-99h-386zM114 897l44 67l209 -167l-35 -52z" />
<glyph unicode="&#x112;" horiz-adv-x="521" d="M69 0zM69 0v727h386v-100h-286v-205h282v-98h-282v-225h286v-99h-386zM131 869v61h279v-61h-279z" />
<glyph unicode="&#x113;" horiz-adv-x="521" d="M69 0zM69 0v727h386v-100h-286v-205h282v-98h-282v-225h286v-99h-386zM131 869v61h279v-61h-279z" />
<glyph unicode="&#x11e;" horiz-adv-x="676" d="M59 0zM374 280v100h255q1 -11 1.5 -28t0.5 -35q0 -63 -14.5 -122.5t-48 -106t-87.5 -75t-133 -28.5q-59 0 -111.5 22t-92 68t-62.5 117.5t-23 171.5q0 99 23 170.5t64 117.5t96 68t120 22q46 0 87.5 -14.5t75 -41t57 -63t33.5 -81.5l-96 -17q-18 53 -62.5 84t-102.5 31 q-42 0 -78 -16t-62 -50t-41 -86t-15 -124q0 -73 14.5 -125.5t40.5 -86.5t61.5 -50t76.5 -16q46 0 79 14t54.5 39.5t32 61.5t12.5 79h-155zM516 952q-1 -32 -11 -63.5t-29.5 -57t-48.5 -41.5t-69 -16q-39 0 -68.5 16t-49 41.5t-29.5 57t-11 63.5h58q3 -54 28 -87t72 -33 q24 0 42 10.5t30.5 27t19 38t8.5 44.5h58z" />
<glyph unicode="&#x11f;" horiz-adv-x="676" d="M59 0zM374 280v100h255q1 -11 1.5 -28t0.5 -35q0 -63 -14.5 -122.5t-48 -106t-87.5 -75t-133 -28.5q-59 0 -111.5 22t-92 68t-62.5 117.5t-23 171.5q0 99 23 170.5t64 117.5t96 68t120 22q46 0 87.5 -14.5t75 -41t57 -63t33.5 -81.5l-96 -17q-18 53 -62.5 84t-102.5 31 q-42 0 -78 -16t-62 -50t-41 -86t-15 -124q0 -73 14.5 -125.5t40.5 -86.5t61.5 -50t76.5 -16q46 0 79 14t54.5 39.5t32 61.5t12.5 79h-155zM516 952q-1 -32 -11 -63.5t-29.5 -57t-48.5 -41.5t-69 -16q-39 0 -68.5 16t-49 41.5t-29.5 57t-11 63.5h58q3 -54 28 -87t72 -33 q24 0 42 10.5t30.5 27t19 38t8.5 44.5h58z" />
<glyph unicode="&#x120;" horiz-adv-x="676" d="M59 0zM374 280v100h255q1 -11 1.5 -28t0.5 -35q0 -63 -14.5 -122.5t-48 -106t-87.5 -75t-133 -28.5q-59 0 -111.5 22t-92 68t-62.5 117.5t-23 171.5q0 99 23 170.5t64 117.5t96 68t120 22q46 0 87.5 -14.5t75 -41t57 -63t33.5 -81.5l-96 -17q-18 53 -62.5 84t-102.5 31 q-42 0 -78 -16t-62 -50t-41 -86t-15 -124q0 -73 14.5 -125.5t40.5 -86.5t61.5 -50t76.5 -16q46 0 79 14t54.5 39.5t32 61.5t12.5 79h-155zM307 805v132h101v-132h-101z" />
<glyph unicode="&#x121;" horiz-adv-x="676" d="M59 0zM374 280v100h255q1 -11 1.5 -28t0.5 -35q0 -63 -14.5 -122.5t-48 -106t-87.5 -75t-133 -28.5q-59 0 -111.5 22t-92 68t-62.5 117.5t-23 171.5q0 99 23 170.5t64 117.5t96 68t120 22q46 0 87.5 -14.5t75 -41t57 -63t33.5 -81.5l-96 -17q-18 53 -62.5 84t-102.5 31 q-42 0 -78 -16t-62 -50t-41 -86t-15 -124q0 -73 14.5 -125.5t40.5 -86.5t61.5 -50t76.5 -16q46 0 79 14t54.5 39.5t32 61.5t12.5 79h-155zM307 805v132h101v-132h-101z" />
<glyph unicode="&#x122;" horiz-adv-x="676" d="M59 0zM374 280v100h255q1 -11 1.5 -28t0.5 -35q0 -63 -14.5 -122.5t-48 -106t-87.5 -75t-133 -28.5q-59 0 -111.5 22t-92 68t-62.5 117.5t-23 171.5q0 99 23 170.5t64 117.5t96 68t120 22q46 0 87.5 -14.5t75 -41t57 -63t33.5 -81.5l-96 -17q-18 53 -62.5 84t-102.5 31 q-42 0 -78 -16t-62 -50t-41 -86t-15 -124q0 -73 14.5 -125.5t40.5 -86.5t61.5 -50t76.5 -16q46 0 79 14t54.5 39.5t32 61.5t12.5 79h-155zM306 -236l31 83l-2 4h-35v123h100v-123l-37 -87h-57z" />
<glyph unicode="&#xcd;" horiz-adv-x="246" d="M27 0zM73 0v727h101v-727h-101zM61 745l-34 52l208 167l45 -67z" />
<glyph unicode="&#xed;" horiz-adv-x="246" d="M27 0zM73 0v727h101v-727h-101zM61 745l-34 52l208 167l45 -67z" />
<glyph unicode="&#x12c;" horiz-adv-x="246" d="M0 0zM73 0v727h101v-727h-101zM281 952q-1 -32 -11 -63.5t-29.5 -57t-48.5 -41.5t-69 -16q-39 0 -68.5 16t-49 41.5t-29.5 57t-11 63.5h58q3 -54 28 -87t72 -33q24 0 42 10.5t30.5 27t19 38t8.5 44.5h58z" />
<glyph unicode="&#x12d;" horiz-adv-x="246" d="M0 0zM73 0v727h101v-727h-101zM281 952q-1 -32 -11 -63.5t-29.5 -57t-48.5 -41.5t-69 -16q-39 0 -68.5 16t-49 41.5t-29.5 57t-11 63.5h58q3 -54 28 -87t72 -33q24 0 42 10.5t30.5 27t19 38t8.5 44.5h58z" />
<glyph unicode="&#xce;" horiz-adv-x="246" d="M0 0zM73 0v727h101v-727h-101zM122 864l-120 -111l-35 39l155 164l157 -164l-36 -39z" />
<glyph unicode="&#xee;" horiz-adv-x="246" d="M0 0zM73 0v727h101v-727h-101zM122 864l-120 -111l-35 39l155 164l157 -164l-36 -39z" />
<glyph unicode="&#xcf;" horiz-adv-x="246" d="M0 0zM73 0v727h101v-727h-101zM-35 805v132h101v-132h-101zM181 805v132h101v-132h-101z" />
<glyph unicode="&#xef;" horiz-adv-x="246" d="M0 0zM73 0v727h101v-727h-101zM-35 805v132h101v-132h-101zM181 805v132h101v-132h-101z" />
<glyph unicode="&#x130;" horiz-adv-x="246" d="M72 0zM73 0v727h101v-727h-101zM72 805v132h101v-132h-101z" />
<glyph unicode="&#xcc;" horiz-adv-x="246" d="M0 0zM73 0v727h101v-727h-101zM-33 897l44 67l209 -167l-35 -52z" />
<glyph unicode="&#xec;" horiz-adv-x="246" d="M0 0zM73 0v727h101v-727h-101zM-33 897l44 67l209 -167l-35 -52z" />
<glyph unicode="&#x12a;" horiz-adv-x="246" d="M0 0zM73 0v727h101v-727h-101zM-16 869v61h279v-61h-279z" />
<glyph unicode="&#x12b;" horiz-adv-x="246" d="M0 0zM73 0v727h101v-727h-101zM-16 869v61h279v-61h-279z" />
<glyph unicode="&#x134;" horiz-adv-x="524" d="M24 0zM358 727h101v-478q0 -57 -14.5 -105.5t-45 -84t-77 -55t-109.5 -19.5q-54 0 -104 19.5t-85 62.5l68 78q20 -34 52.5 -48.5t70.5 -14.5q72 0 107.5 42t35.5 132v471zM361 864l-120 -111l-35 39l155 164l157 -164l-36 -39z" />
<glyph unicode="&#x136;" horiz-adv-x="596" d="M69 0zM453 0l-268 343h-16v-343h-100v727h100v-300h12l265 300h126l-296 -333l309 -394h-132zM254 -236l31 83l-2 4h-35v123h100v-123l-37 -87h-57z" />
<glyph unicode="&#x137;" horiz-adv-x="596" d="M69 0zM453 0l-268 343h-16v-343h-100v727h100v-300h12l265 300h126l-296 -333l309 -394h-132zM254 -236l31 83l-2 4h-35v123h100v-123l-37 -87h-57z" />
<glyph unicode="&#x139;" horiz-adv-x="548" d="M69 0zM69 0v727h100v-628h352v-99h-452zM113 745l-34 52l208 167l45 -67z" />
<glyph unicode="&#x13a;" horiz-adv-x="548" d="M69 0zM69 0v727h100v-628h352v-99h-452zM113 745l-34 52l208 167l45 -67z" />
<glyph unicode="&#x13b;" horiz-adv-x="548" d="M69 0zM69 0v727h100v-628h352v-99h-452zM250 -236l31 83l-2 4h-35v123h100v-123l-37 -87h-57z" />
<glyph unicode="&#x13c;" horiz-adv-x="548" d="M69 0zM69 0v727h100v-628h352v-99h-452zM250 -236l31 83l-2 4h-35v123h100v-123l-37 -87h-57z" />
<glyph unicode="&#x143;" horiz-adv-x="658" d="M69 0zM491 0l-320 548h-4v-548h-98v727h119l299 -528h4v528h98v-727h-98zM266 745l-34 52l208 167l45 -67z" />
<glyph unicode="&#x144;" horiz-adv-x="658" d="M69 0zM491 0l-320 548h-4v-548h-98v727h119l299 -528h4v528h98v-727h-98zM266 745l-34 52l208 167l45 -67z" />
<glyph unicode="&#x147;" horiz-adv-x="658" d="M69 0zM491 0l-320 548h-4v-548h-98v727h119l299 -528h4v528h98v-727h-98zM173 917l35 39l121 -110l120 110l36 -39l-156 -164z" />
<glyph unicode="&#x148;" horiz-adv-x="658" d="M69 0zM491 0l-320 548h-4v-548h-98v727h119l299 -528h4v528h98v-727h-98zM173 917l35 39l121 -110l120 110l36 -39l-156 -164z" />
<glyph unicode="&#x145;" horiz-adv-x="658" d="M69 0zM491 0l-320 548h-4v-548h-98v727h119l299 -528h4v528h98v-727h-98zM285 -236l31 83l-2 4h-35v123h100v-123l-37 -87h-57z" />
<glyph unicode="&#x146;" horiz-adv-x="658" d="M69 0zM491 0l-320 548h-4v-548h-98v727h119l299 -528h4v528h98v-727h-98zM285 -236l31 83l-2 4h-35v123h100v-123l-37 -87h-57z" />
<glyph unicode="&#xd1;" horiz-adv-x="658" d="M69 0zM491 0l-320 548h-4v-548h-98v727h119l299 -528h4v528h98v-727h-98zM545 902q-18 -51 -54 -77.5t-76 -26.5q-31 0 -54 14t-43 31t-39.5 31t-41.5 14q-26 0 -44.5 -23t-34.5 -55l-46 41q17 45 50.5 72.5t71.5 27.5q34 0 58.5 -14t45 -30.5t39 -30.5t41.5 -14 q27 0 45.5 23.5t35.5 57.5z" />
<glyph unicode="&#xf1;" horiz-adv-x="658" d="M69 0zM491 0l-320 548h-4v-548h-98v727h119l299 -528h4v528h98v-727h-98zM545 902q-18 -51 -54 -77.5t-76 -26.5q-31 0 -54 14t-43 31t-39.5 31t-41.5 14q-26 0 -44.5 -23t-34.5 -55l-46 41q17 45 50.5 72.5t71.5 27.5q34 0 58.5 -14t45 -30.5t39 -30.5t41.5 -14 q27 0 45.5 23.5t35.5 57.5z" />
<glyph unicode="&#x150;" horiz-adv-x="693" d="M59 0zM352 -15q-63 0 -116.5 26t-92.5 75t-61.5 119t-22.5 159q0 88 22.5 158t61.5 119t92.5 75t116.5 26q61 0 113 -26.5t89 -76t58 -119t21 -156.5t-21 -157t-58 -119.5t-89 -76t-113 -26.5zM347 92q40 0 74 17.5t59 52t39 85t14 117.5q0 66 -14 116.5t-39 84.5 t-59 51.5t-74 17.5q-39 0 -73.5 -17t-60 -51t-40 -84.5t-14.5 -117.5t14.5 -118t40 -85t60 -51.5t73.5 -17.5zM397 745l-35 52l208 167l45 -67zM172 745l-34 52l207 167l46 -67z" />
<glyph unicode="&#x151;" horiz-adv-x="693" d="M59 0zM352 -15q-63 0 -116.5 26t-92.5 75t-61.5 119t-22.5 159q0 88 22.5 158t61.5 119t92.5 75t116.5 26q61 0 113 -26.5t89 -76t58 -119t21 -156.5t-21 -157t-58 -119.5t-89 -76t-113 -26.5zM347 92q40 0 74 17.5t59 52t39 85t14 117.5q0 66 -14 116.5t-39 84.5 t-59 51.5t-74 17.5q-39 0 -73.5 -17t-60 -51t-40 -84.5t-14.5 -117.5t14.5 -118t40 -85t60 -51.5t73.5 -17.5zM397 745l-35 52l208 167l45 -67zM172 745l-34 52l207 167l46 -67z" />
<glyph unicode="&#xd3;" horiz-adv-x="693" d="M59 0zM352 -15q-63 0 -116.5 26t-92.5 75t-61.5 119t-22.5 159q0 88 22.5 158t61.5 119t92.5 75t116.5 26q61 0 113 -26.5t89 -76t58 -119t21 -156.5t-21 -157t-58 -119.5t-89 -76t-113 -26.5zM347 92q40 0 74 17.5t59 52t39 85t14 117.5q0 66 -14 116.5t-39 84.5 t-59 51.5t-74 17.5q-39 0 -73.5 -17t-60 -51t-40 -84.5t-14.5 -117.5t14.5 -118t40 -85t60 -51.5t73.5 -17.5zM284 745l-34 52l208 167l45 -67z" />
<glyph unicode="&#xf3;" horiz-adv-x="693" d="M59 0zM352 -15q-63 0 -116.5 26t-92.5 75t-61.5 119t-22.5 159q0 88 22.5 158t61.5 119t92.5 75t116.5 26q61 0 113 -26.5t89 -76t58 -119t21 -156.5t-21 -157t-58 -119.5t-89 -76t-113 -26.5zM347 92q40 0 74 17.5t59 52t39 85t14 117.5q0 66 -14 116.5t-39 84.5 t-59 51.5t-74 17.5q-39 0 -73.5 -17t-60 -51t-40 -84.5t-14.5 -117.5t14.5 -118t40 -85t60 -51.5t73.5 -17.5zM284 745l-34 52l208 167l45 -67z" />
<glyph unicode="&#x14e;" horiz-adv-x="693" d="M59 0zM352 -15q-63 0 -116.5 26t-92.5 75t-61.5 119t-22.5 159q0 88 22.5 158t61.5 119t92.5 75t116.5 26q61 0 113 -26.5t89 -76t58 -119t21 -156.5t-21 -157t-58 -119.5t-89 -76t-113 -26.5zM347 92q40 0 74 17.5t59 52t39 85t14 117.5q0 66 -14 116.5t-39 84.5 t-59 51.5t-74 17.5q-39 0 -73.5 -17t-60 -51t-40 -84.5t-14.5 -117.5t14.5 -118t40 -85t60 -51.5t73.5 -17.5zM504 952q-1 -32 -11 -63.5t-29.5 -57t-48.5 -41.5t-69 -16q-39 0 -68.5 16t-49 41.5t-29.5 57t-11 63.5h58q3 -54 28 -87t72 -33q24 0 42 10.5t30.5 27t19 38 t8.5 44.5h58z" />
<glyph unicode="&#x14f;" horiz-adv-x="693" d="M59 0zM352 -15q-63 0 -116.5 26t-92.5 75t-61.5 119t-22.5 159q0 88 22.5 158t61.5 119t92.5 75t116.5 26q61 0 113 -26.5t89 -76t58 -119t21 -156.5t-21 -157t-58 -119.5t-89 -76t-113 -26.5zM347 92q40 0 74 17.5t59 52t39 85t14 117.5q0 66 -14 116.5t-39 84.5 t-59 51.5t-74 17.5q-39 0 -73.5 -17t-60 -51t-40 -84.5t-14.5 -117.5t14.5 -118t40 -85t60 -51.5t73.5 -17.5zM504 952q-1 -32 -11 -63.5t-29.5 -57t-48.5 -41.5t-69 -16q-39 0 -68.5 16t-49 41.5t-29.5 57t-11 63.5h58q3 -54 28 -87t72 -33q24 0 42 10.5t30.5 27t19 38 t8.5 44.5h58z" />
<glyph unicode="&#xd4;" horiz-adv-x="693" d="M59 0zM352 -15q-63 0 -116.5 26t-92.5 75t-61.5 119t-22.5 159q0 88 22.5 158t61.5 119t92.5 75t116.5 26q61 0 113 -26.5t89 -76t58 -119t21 -156.5t-21 -157t-58 -119.5t-89 -76t-113 -26.5zM347 92q40 0 74 17.5t59 52t39 85t14 117.5q0 66 -14 116.5t-39 84.5 t-59 51.5t-74 17.5q-39 0 -73.5 -17t-60 -51t-40 -84.5t-14.5 -117.5t14.5 -118t40 -85t60 -51.5t73.5 -17.5zM345 864l-120 -111l-35 39l155 164l157 -164l-36 -39z" />
<glyph unicode="&#xf4;" horiz-adv-x="693" d="M59 0zM352 -15q-63 0 -116.5 26t-92.5 75t-61.5 119t-22.5 159q0 88 22.5 158t61.5 119t92.5 75t116.5 26q61 0 113 -26.5t89 -76t58 -119t21 -156.5t-21 -157t-58 -119.5t-89 -76t-113 -26.5zM347 92q40 0 74 17.5t59 52t39 85t14 117.5q0 66 -14 116.5t-39 84.5 t-59 51.5t-74 17.5q-39 0 -73.5 -17t-60 -51t-40 -84.5t-14.5 -117.5t14.5 -118t40 -85t60 -51.5t73.5 -17.5zM345 864l-120 -111l-35 39l155 164l157 -164l-36 -39z" />
<glyph unicode="&#xd6;" horiz-adv-x="693" d="M59 0zM352 -15q-63 0 -116.5 26t-92.5 75t-61.5 119t-22.5 159q0 88 22.5 158t61.5 119t92.5 75t116.5 26q61 0 113 -26.5t89 -76t58 -119t21 -156.5t-21 -157t-58 -119.5t-89 -76t-113 -26.5zM347 92q40 0 74 17.5t59 52t39 85t14 117.5q0 66 -14 116.5t-39 84.5 t-59 51.5t-74 17.5q-39 0 -73.5 -17t-60 -51t-40 -84.5t-14.5 -117.5t14.5 -118t40 -85t60 -51.5t73.5 -17.5zM188 805v132h101v-132h-101zM404 805v132h101v-132h-101z" />
<glyph unicode="&#xf6;" horiz-adv-x="693" d="M59 0zM352 -15q-63 0 -116.5 26t-92.5 75t-61.5 119t-22.5 159q0 88 22.5 158t61.5 119t92.5 75t116.5 26q61 0 113 -26.5t89 -76t58 -119t21 -156.5t-21 -157t-58 -119.5t-89 -76t-113 -26.5zM347 92q40 0 74 17.5t59 52t39 85t14 117.5q0 66 -14 116.5t-39 84.5 t-59 51.5t-74 17.5q-39 0 -73.5 -17t-60 -51t-40 -84.5t-14.5 -117.5t14.5 -118t40 -85t60 -51.5t73.5 -17.5zM188 805v132h101v-132h-101zM404 805v132h101v-132h-101z" />
<glyph unicode="&#xd2;" horiz-adv-x="693" d="M59 0zM352 -15q-63 0 -116.5 26t-92.5 75t-61.5 119t-22.5 159q0 88 22.5 158t61.5 119t92.5 75t116.5 26q61 0 113 -26.5t89 -76t58 -119t21 -156.5t-21 -157t-58 -119.5t-89 -76t-113 -26.5zM347 92q40 0 74 17.5t59 52t39 85t14 117.5q0 66 -14 116.5t-39 84.5 t-59 51.5t-74 17.5q-39 0 -73.5 -17t-60 -51t-40 -84.5t-14.5 -117.5t14.5 -118t40 -85t60 -51.5t73.5 -17.5zM190 897l44 67l209 -167l-35 -52z" />
<glyph unicode="&#xf2;" horiz-adv-x="693" d="M59 0zM352 -15q-63 0 -116.5 26t-92.5 75t-61.5 119t-22.5 159q0 88 22.5 158t61.5 119t92.5 75t116.5 26q61 0 113 -26.5t89 -76t58 -119t21 -156.5t-21 -157t-58 -119.5t-89 -76t-113 -26.5zM347 92q40 0 74 17.5t59 52t39 85t14 117.5q0 66 -14 116.5t-39 84.5 t-59 51.5t-74 17.5q-39 0 -73.5 -17t-60 -51t-40 -84.5t-14.5 -117.5t14.5 -118t40 -85t60 -51.5t73.5 -17.5zM190 897l44 67l209 -167l-35 -52z" />
<glyph unicode="&#x14c;" horiz-adv-x="693" d="M59 0zM352 -15q-63 0 -116.5 26t-92.5 75t-61.5 119t-22.5 159q0 88 22.5 158t61.5 119t92.5 75t116.5 26q61 0 113 -26.5t89 -76t58 -119t21 -156.5t-21 -157t-58 -119.5t-89 -76t-113 -26.5zM347 92q40 0 74 17.5t59 52t39 85t14 117.5q0 66 -14 116.5t-39 84.5 t-59 51.5t-74 17.5q-39 0 -73.5 -17t-60 -51t-40 -84.5t-14.5 -117.5t14.5 -118t40 -85t60 -51.5t73.5 -17.5zM207 869v61h279v-61h-279z" />
<glyph unicode="&#x14d;" horiz-adv-x="693" d="M59 0zM352 -15q-63 0 -116.5 26t-92.5 75t-61.5 119t-22.5 159q0 88 22.5 158t61.5 119t92.5 75t116.5 26q61 0 113 -26.5t89 -76t58 -119t21 -156.5t-21 -157t-58 -119.5t-89 -76t-113 -26.5zM347 92q40 0 74 17.5t59 52t39 85t14 117.5q0 66 -14 116.5t-39 84.5 t-59 51.5t-74 17.5q-39 0 -73.5 -17t-60 -51t-40 -84.5t-14.5 -117.5t14.5 -118t40 -85t60 -51.5t73.5 -17.5zM207 869v61h279v-61h-279z" />
<glyph unicode="&#xd5;" horiz-adv-x="693" d="M59 0zM352 -15q-63 0 -116.5 26t-92.5 75t-61.5 119t-22.5 159q0 88 22.5 158t61.5 119t92.5 75t116.5 26q61 0 113 -26.5t89 -76t58 -119t21 -156.5t-21 -157t-58 -119.5t-89 -76t-113 -26.5zM347 92q40 0 74 17.5t59 52t39 85t14 117.5q0 66 -14 116.5t-39 84.5 t-59 51.5t-74 17.5q-39 0 -73.5 -17t-60 -51t-40 -84.5t-14.5 -117.5t14.5 -118t40 -85t60 -51.5t73.5 -17.5zM563 902q-18 -51 -54 -77.5t-76 -26.5q-31 0 -54 14t-43 31t-39.5 31t-41.5 14q-26 0 -44.5 -23t-34.5 -55l-46 41q17 45 50.5 72.5t71.5 27.5q34 0 58.5 -14 t45 -30.5t39 -30.5t41.5 -14q27 0 45.5 23.5t35.5 57.5z" />
<glyph unicode="&#xf5;" horiz-adv-x="693" d="M59 0zM352 -15q-63 0 -116.5 26t-92.5 75t-61.5 119t-22.5 159q0 88 22.5 158t61.5 119t92.5 75t116.5 26q61 0 113 -26.5t89 -76t58 -119t21 -156.5t-21 -157t-58 -119.5t-89 -76t-113 -26.5zM347 92q40 0 74 17.5t59 52t39 85t14 117.5q0 66 -14 116.5t-39 84.5 t-59 51.5t-74 17.5q-39 0 -73.5 -17t-60 -51t-40 -84.5t-14.5 -117.5t14.5 -118t40 -85t60 -51.5t73.5 -17.5zM563 902q-18 -51 -54 -77.5t-76 -26.5q-31 0 -54 14t-43 31t-39.5 31t-41.5 14q-26 0 -44.5 -23t-34.5 -55l-46 41q17 45 50.5 72.5t71.5 27.5q34 0 58.5 -14 t45 -30.5t39 -30.5t41.5 -14q27 0 45.5 23.5t35.5 57.5z" />
<glyph unicode="&#x154;" horiz-adv-x="598" d="M69 0zM454 0q-7 15 -7 34v164q0 54 -26.5 77.5t-75.5 23.5h-176v-299h-100v727h259q101 0 156 -56.5t55 -154.5q0 -72 -25 -109.5t-57 -51.5q17 -6 33.5 -16t29 -27t20.5 -42.5t8 -61.5v-171q0 -9 2 -17.5t5 -19.5h-101zM334 392q50 0 78.5 27.5t28.5 90.5q0 57 -28.5 87 t-88.5 30h-155v-235h165zM226 745l-34 52l208 167l45 -67z" />
<glyph unicode="&#x155;" horiz-adv-x="598" d="M69 0zM454 0q-7 15 -7 34v164q0 54 -26.5 77.5t-75.5 23.5h-176v-299h-100v727h259q101 0 156 -56.5t55 -154.5q0 -72 -25 -109.5t-57 -51.5q17 -6 33.5 -16t29 -27t20.5 -42.5t8 -61.5v-171q0 -9 2 -17.5t5 -19.5h-101zM334 392q50 0 78.5 27.5t28.5 90.5q0 57 -28.5 87 t-88.5 30h-155v-235h165zM226 745l-34 52l208 167l45 -67z" />
<glyph unicode="&#x158;" horiz-adv-x="598" d="M69 0zM454 0q-7 15 -7 34v164q0 54 -26.5 77.5t-75.5 23.5h-176v-299h-100v727h259q101 0 156 -56.5t55 -154.5q0 -72 -25 -109.5t-57 -51.5q17 -6 33.5 -16t29 -27t20.5 -42.5t8 -61.5v-171q0 -9 2 -17.5t5 -19.5h-101zM334 392q50 0 78.5 27.5t28.5 90.5q0 57 -28.5 87 t-88.5 30h-155v-235h165zM133 917l35 39l121 -110l120 110l36 -39l-156 -164z" />
<glyph unicode="&#x159;" horiz-adv-x="598" d="M69 0zM454 0q-7 15 -7 34v164q0 54 -26.5 77.5t-75.5 23.5h-176v-299h-100v727h259q101 0 156 -56.5t55 -154.5q0 -72 -25 -109.5t-57 -51.5q17 -6 33.5 -16t29 -27t20.5 -42.5t8 -61.5v-171q0 -9 2 -17.5t5 -19.5h-101zM334 392q50 0 78.5 27.5t28.5 90.5q0 57 -28.5 87 t-88.5 30h-155v-235h165zM133 917l35 39l121 -110l120 110l36 -39l-156 -164z" />
<glyph unicode="&#x156;" horiz-adv-x="598" d="M69 0zM454 0q-7 15 -7 34v164q0 54 -26.5 77.5t-75.5 23.5h-176v-299h-100v727h259q101 0 156 -56.5t55 -154.5q0 -72 -25 -109.5t-57 -51.5q17 -6 33.5 -16t29 -27t20.5 -42.5t8 -61.5v-171q0 -9 2 -17.5t5 -19.5h-101zM334 392q50 0 78.5 27.5t28.5 90.5q0 57 -28.5 87 t-88.5 30h-155v-235h165zM265 -236l31 83l-2 4h-35v123h100v-123l-37 -87h-57z" />
<glyph unicode="&#x157;" horiz-adv-x="598" d="M69 0zM454 0q-7 15 -7 34v164q0 54 -26.5 77.5t-75.5 23.5h-176v-299h-100v727h259q101 0 156 -56.5t55 -154.5q0 -72 -25 -109.5t-57 -51.5q17 -6 33.5 -16t29 -27t20.5 -42.5t8 -61.5v-171q0 -9 2 -17.5t5 -19.5h-101zM334 392q50 0 78.5 27.5t28.5 90.5q0 57 -28.5 87 t-88.5 30h-155v-235h165zM265 -236l31 83l-2 4h-35v123h100v-123l-37 -87h-57z" />
<glyph unicode="&#x15a;" horiz-adv-x="556" d="M40 0zM397 519q0 27 -6.5 50.5t-20 41t-36 27.5t-53.5 10q-55 0 -89 -27.5t-34 -72.5q0 -22 6.5 -39.5t22.5 -32t43.5 -27.5t69.5 -25q110 -32 157.5 -87t47.5 -140q0 -50 -16.5 -89.5t-46.5 -66.5t-71.5 -41.5t-90.5 -14.5q-47 0 -88 14t-73 40.5t-53 65t-26 88.5 l100 26q3 -25 12 -49.5t25.5 -44t40.5 -31.5t58 -12q56 0 90.5 31t34.5 89q0 46 -31 76t-101 50q-50 15 -89 33t-65.5 44t-40.5 61.5t-14 84.5q0 46 18.5 82t49 60t70 36.5t81.5 12.5q48 0 87.5 -13t68 -39.5t44.5 -66.5t16 -94zM215 745l-34 52l208 167l45 -67z" />
<glyph unicode="&#x15b;" horiz-adv-x="556" d="M40 0zM397 519q0 27 -6.5 50.5t-20 41t-36 27.5t-53.5 10q-55 0 -89 -27.5t-34 -72.5q0 -22 6.5 -39.5t22.5 -32t43.5 -27.5t69.5 -25q110 -32 157.5 -87t47.5 -140q0 -50 -16.5 -89.5t-46.5 -66.5t-71.5 -41.5t-90.5 -14.5q-47 0 -88 14t-73 40.5t-53 65t-26 88.5 l100 26q3 -25 12 -49.5t25.5 -44t40.5 -31.5t58 -12q56 0 90.5 31t34.5 89q0 46 -31 76t-101 50q-50 15 -89 33t-65.5 44t-40.5 61.5t-14 84.5q0 46 18.5 82t49 60t70 36.5t81.5 12.5q48 0 87.5 -13t68 -39.5t44.5 -66.5t16 -94zM215 745l-34 52l208 167l45 -67z" />
<glyph unicode="&#x160;" horiz-adv-x="556" d="M40 0zM397 519q0 27 -6.5 50.5t-20 41t-36 27.5t-53.5 10q-55 0 -89 -27.5t-34 -72.5q0 -22 6.5 -39.5t22.5 -32t43.5 -27.5t69.5 -25q110 -32 157.5 -87t47.5 -140q0 -50 -16.5 -89.5t-46.5 -66.5t-71.5 -41.5t-90.5 -14.5q-47 0 -88 14t-73 40.5t-53 65t-26 88.5 l100 26q3 -25 12 -49.5t25.5 -44t40.5 -31.5t58 -12q56 0 90.5 31t34.5 89q0 46 -31 76t-101 50q-50 15 -89 33t-65.5 44t-40.5 61.5t-14 84.5q0 46 18.5 82t49 60t70 36.5t81.5 12.5q48 0 87.5 -13t68 -39.5t44.5 -66.5t16 -94zM122 917l35 39l121 -110l120 110l36 -39 l-156 -164z" />
<glyph unicode="&#x161;" horiz-adv-x="556" d="M40 0zM397 519q0 27 -6.5 50.5t-20 41t-36 27.5t-53.5 10q-55 0 -89 -27.5t-34 -72.5q0 -22 6.5 -39.5t22.5 -32t43.5 -27.5t69.5 -25q110 -32 157.5 -87t47.5 -140q0 -50 -16.5 -89.5t-46.5 -66.5t-71.5 -41.5t-90.5 -14.5q-47 0 -88 14t-73 40.5t-53 65t-26 88.5 l100 26q3 -25 12 -49.5t25.5 -44t40.5 -31.5t58 -12q56 0 90.5 31t34.5 89q0 46 -31 76t-101 50q-50 15 -89 33t-65.5 44t-40.5 61.5t-14 84.5q0 46 18.5 82t49 60t70 36.5t81.5 12.5q48 0 87.5 -13t68 -39.5t44.5 -66.5t16 -94zM122 917l35 39l121 -110l120 110l36 -39 l-156 -164z" />
<glyph unicode="&#x15e;" horiz-adv-x="556" d="M40 0zM397 519q0 27 -6.5 50.5t-20 41t-36 27.5t-53.5 10q-55 0 -89 -27.5t-34 -72.5q0 -22 6.5 -39.5t22.5 -32t43.5 -27.5t69.5 -25q110 -32 157.5 -87t47.5 -140q0 -50 -16.5 -89.5t-46.5 -66.5t-71.5 -41.5t-90.5 -14.5q-47 0 -88 14t-73 40.5t-53 65t-26 88.5 l100 26q3 -25 12 -49.5t25.5 -44t40.5 -31.5t58 -12q56 0 90.5 31t34.5 89q0 46 -31 76t-101 50q-50 15 -89 33t-65.5 44t-40.5 61.5t-14 84.5q0 46 18.5 82t49 60t70 36.5t81.5 12.5q48 0 87.5 -13t68 -39.5t44.5 -66.5t16 -94zM234 -236l31 83l-2 4h-35v123h100v-123 l-37 -87h-57z" />
<glyph unicode="&#x15f;" horiz-adv-x="556" d="M40 0zM397 519q0 27 -6.5 50.5t-20 41t-36 27.5t-53.5 10q-55 0 -89 -27.5t-34 -72.5q0 -22 6.5 -39.5t22.5 -32t43.5 -27.5t69.5 -25q110 -32 157.5 -87t47.5 -140q0 -50 -16.5 -89.5t-46.5 -66.5t-71.5 -41.5t-90.5 -14.5q-47 0 -88 14t-73 40.5t-53 65t-26 88.5 l100 26q3 -25 12 -49.5t25.5 -44t40.5 -31.5t58 -12q56 0 90.5 31t34.5 89q0 46 -31 76t-101 50q-50 15 -89 33t-65.5 44t-40.5 61.5t-14 84.5q0 46 18.5 82t49 60t70 36.5t81.5 12.5q48 0 87.5 -13t68 -39.5t44.5 -66.5t16 -94zM234 -236l31 83l-2 4h-35v123h100v-123 l-37 -87h-57z" />
<glyph unicode="&#x164;" horiz-adv-x="557" d="M30 0zM226 0v627h-196v100h496v-100h-194v-627h-106zM122 917l35 39l121 -110l120 110l36 -39l-156 -164z" />
<glyph unicode="&#x162;" horiz-adv-x="557" d="M30 0zM226 0v627h-196v100h496v-100h-194v-627h-106zM235 -236l31 83l-2 4h-35v123h100v-123l-37 -87h-57z" />
<glyph unicode="&#x163;" horiz-adv-x="557" d="M30 0zM226 0v627h-196v100h496v-100h-194v-627h-106zM235 -236l31 83l-2 4h-35v123h100v-123l-37 -87h-57z" />
<glyph unicode="&#x170;" horiz-adv-x="622" d="M65 0zM456 727h100v-468q0 -77 -16 -129t-46.5 -84.5t-75.5 -46.5t-103 -14q-60 0 -106.5 14t-78.5 46t-48.5 83.5t-16.5 126.5v472h99v-478q0 -48 10 -79.5t29 -51t47.5 -27.5t64.5 -8q34 0 60.5 8t44.5 27.5t27 51.5t9 80v477zM361 745l-35 52l208 167l45 -67zM136 745 l-34 52l207 167l46 -67z" />
<glyph unicode="&#x171;" horiz-adv-x="622" d="M65 0zM456 727h100v-468q0 -77 -16 -129t-46.5 -84.5t-75.5 -46.5t-103 -14q-60 0 -106.5 14t-78.5 46t-48.5 83.5t-16.5 126.5v472h99v-478q0 -48 10 -79.5t29 -51t47.5 -27.5t64.5 -8q34 0 60.5 8t44.5 27.5t27 51.5t9 80v477zM361 745l-35 52l208 167l45 -67zM136 745 l-34 52l207 167l46 -67z" />
<glyph unicode="&#xda;" horiz-adv-x="622" d="M65 0zM456 727h100v-468q0 -77 -16 -129t-46.5 -84.5t-75.5 -46.5t-103 -14q-60 0 -106.5 14t-78.5 46t-48.5 83.5t-16.5 126.5v472h99v-478q0 -48 10 -79.5t29 -51t47.5 -27.5t64.5 -8q34 0 60.5 8t44.5 27.5t27 51.5t9 80v477zM248 745l-34 52l208 167l45 -67z" />
<glyph unicode="&#xfa;" horiz-adv-x="622" d="M65 0zM456 727h100v-468q0 -77 -16 -129t-46.5 -84.5t-75.5 -46.5t-103 -14q-60 0 -106.5 14t-78.5 46t-48.5 83.5t-16.5 126.5v472h99v-478q0 -48 10 -79.5t29 -51t47.5 -27.5t64.5 -8q34 0 60.5 8t44.5 27.5t27 51.5t9 80v477zM248 745l-34 52l208 167l45 -67z" />
<glyph unicode="&#x16c;" horiz-adv-x="622" d="M65 0zM456 727h100v-468q0 -77 -16 -129t-46.5 -84.5t-75.5 -46.5t-103 -14q-60 0 -106.5 14t-78.5 46t-48.5 83.5t-16.5 126.5v472h99v-478q0 -48 10 -79.5t29 -51t47.5 -27.5t64.5 -8q34 0 60.5 8t44.5 27.5t27 51.5t9 80v477zM469 952q-1 -32 -11 -63.5t-29.5 -57 t-48.5 -41.5t-69 -16q-39 0 -68.5 16t-49 41.5t-29.5 57t-11 63.5h58q3 -54 28 -87t72 -33q24 0 42 10.5t30.5 27t19 38t8.5 44.5h58z" />
<glyph unicode="&#x16d;" horiz-adv-x="622" d="M65 0zM456 727h100v-468q0 -77 -16 -129t-46.5 -84.5t-75.5 -46.5t-103 -14q-60 0 -106.5 14t-78.5 46t-48.5 83.5t-16.5 126.5v472h99v-478q0 -48 10 -79.5t29 -51t47.5 -27.5t64.5 -8q34 0 60.5 8t44.5 27.5t27 51.5t9 80v477zM469 952q-1 -32 -11 -63.5t-29.5 -57 t-48.5 -41.5t-69 -16q-39 0 -68.5 16t-49 41.5t-29.5 57t-11 63.5h58q3 -54 28 -87t72 -33q24 0 42 10.5t30.5 27t19 38t8.5 44.5h58z" />
<glyph unicode="&#xdb;" horiz-adv-x="622" d="M65 0zM456 727h100v-468q0 -77 -16 -129t-46.5 -84.5t-75.5 -46.5t-103 -14q-60 0 -106.5 14t-78.5 46t-48.5 83.5t-16.5 126.5v472h99v-478q0 -48 10 -79.5t29 -51t47.5 -27.5t64.5 -8q34 0 60.5 8t44.5 27.5t27 51.5t9 80v477zM310 864l-120 -111l-35 39l155 164 l157 -164l-36 -39z" />
<glyph unicode="&#xfb;" horiz-adv-x="622" d="M65 0zM456 727h100v-468q0 -77 -16 -129t-46.5 -84.5t-75.5 -46.5t-103 -14q-60 0 -106.5 14t-78.5 46t-48.5 83.5t-16.5 126.5v472h99v-478q0 -48 10 -79.5t29 -51t47.5 -27.5t64.5 -8q34 0 60.5 8t44.5 27.5t27 51.5t9 80v477zM310 864l-120 -111l-35 39l155 164 l157 -164l-36 -39z" />
<glyph unicode="&#xdc;" horiz-adv-x="622" d="M65 0zM456 727h100v-468q0 -77 -16 -129t-46.5 -84.5t-75.5 -46.5t-103 -14q-60 0 -106.5 14t-78.5 46t-48.5 83.5t-16.5 126.5v472h99v-478q0 -48 10 -79.5t29 -51t47.5 -27.5t64.5 -8q34 0 60.5 8t44.5 27.5t27 51.5t9 80v477zM152 805v132h101v-132h-101zM368 805v132 h101v-132h-101z" />
<glyph unicode="&#xfc;" horiz-adv-x="622" d="M65 0zM456 727h100v-468q0 -77 -16 -129t-46.5 -84.5t-75.5 -46.5t-103 -14q-60 0 -106.5 14t-78.5 46t-48.5 83.5t-16.5 126.5v472h99v-478q0 -48 10 -79.5t29 -51t47.5 -27.5t64.5 -8q34 0 60.5 8t44.5 27.5t27 51.5t9 80v477zM152 805v132h101v-132h-101zM368 805v132 h101v-132h-101z" />
<glyph unicode="&#xd9;" horiz-adv-x="622" d="M65 0zM456 727h100v-468q0 -77 -16 -129t-46.5 -84.5t-75.5 -46.5t-103 -14q-60 0 -106.5 14t-78.5 46t-48.5 83.5t-16.5 126.5v472h99v-478q0 -48 10 -79.5t29 -51t47.5 -27.5t64.5 -8q34 0 60.5 8t44.5 27.5t27 51.5t9 80v477zM154 897l44 67l209 -167l-35 -52z" />
<glyph unicode="&#xf9;" horiz-adv-x="622" d="M65 0zM456 727h100v-468q0 -77 -16 -129t-46.5 -84.5t-75.5 -46.5t-103 -14q-60 0 -106.5 14t-78.5 46t-48.5 83.5t-16.5 126.5v472h99v-478q0 -48 10 -79.5t29 -51t47.5 -27.5t64.5 -8q34 0 60.5 8t44.5 27.5t27 51.5t9 80v477zM154 897l44 67l209 -167l-35 -52z" />
<glyph unicode="&#x16a;" horiz-adv-x="622" d="M65 0zM456 727h100v-468q0 -77 -16 -129t-46.5 -84.5t-75.5 -46.5t-103 -14q-60 0 -106.5 14t-78.5 46t-48.5 83.5t-16.5 126.5v472h99v-478q0 -48 10 -79.5t29 -51t47.5 -27.5t64.5 -8q34 0 60.5 8t44.5 27.5t27 51.5t9 80v477zM171 869v61h279v-61h-279z" />
<glyph unicode="&#x16b;" horiz-adv-x="622" d="M65 0zM456 727h100v-468q0 -77 -16 -129t-46.5 -84.5t-75.5 -46.5t-103 -14q-60 0 -106.5 14t-78.5 46t-48.5 83.5t-16.5 126.5v472h99v-478q0 -48 10 -79.5t29 -51t47.5 -27.5t64.5 -8q34 0 60.5 8t44.5 27.5t27 51.5t9 80v477zM171 869v61h279v-61h-279z" />
<glyph unicode="&#x16e;" horiz-adv-x="622" d="M65 0zM456 727h100v-468q0 -77 -16 -129t-46.5 -84.5t-75.5 -46.5t-103 -14q-60 0 -106.5 14t-78.5 46t-48.5 83.5t-16.5 126.5v472h99v-478q0 -48 10 -79.5t29 -51t47.5 -27.5t64.5 -8q34 0 60.5 8t44.5 27.5t27 51.5t9 80v477zM311 745q-23 0 -42.5 8.5t-33.5 23.5 t-22.5 35.5t-8.5 43.5q0 22 8.5 41.5t22.5 34.5t33.5 23.5t42.5 8.5q21 0 40.5 -8.5t34 -23.5t23.5 -34.5t9 -41.5q0 -23 -9 -43t-23.5 -35t-34 -24t-40.5 -9zM311 797q22 0 37.5 16.5t15.5 42.5q0 22 -15.5 38.5t-37.5 16.5q-23 0 -39 -16.5t-16 -38.5q0 -26 16 -42.5 t39 -16.5z" />
<glyph unicode="&#x16f;" horiz-adv-x="622" d="M65 0zM456 727h100v-468q0 -77 -16 -129t-46.5 -84.5t-75.5 -46.5t-103 -14q-60 0 -106.5 14t-78.5 46t-48.5 83.5t-16.5 126.5v472h99v-478q0 -48 10 -79.5t29 -51t47.5 -27.5t64.5 -8q34 0 60.5 8t44.5 27.5t27 51.5t9 80v477zM311 745q-23 0 -42.5 8.5t-33.5 23.5 t-22.5 35.5t-8.5 43.5q0 22 8.5 41.5t22.5 34.5t33.5 23.5t42.5 8.5q21 0 40.5 -8.5t34 -23.5t23.5 -34.5t9 -41.5q0 -23 -9 -43t-23.5 -35t-34 -24t-40.5 -9zM311 797q22 0 37.5 16.5t15.5 42.5q0 22 -15.5 38.5t-37.5 16.5q-23 0 -39 -16.5t-16 -38.5q0 -26 16 -42.5 t39 -16.5z" />
<glyph unicode="&#x168;" horiz-adv-x="622" d="M65 0zM456 727h100v-468q0 -77 -16 -129t-46.5 -84.5t-75.5 -46.5t-103 -14q-60 0 -106.5 14t-78.5 46t-48.5 83.5t-16.5 126.5v472h99v-478q0 -48 10 -79.5t29 -51t47.5 -27.5t64.5 -8q34 0 60.5 8t44.5 27.5t27 51.5t9 80v477zM527 902q-18 -51 -54 -77.5t-76 -26.5 q-31 0 -54 14t-43 31t-39.5 31t-41.5 14q-26 0 -44.5 -23t-34.5 -55l-46 41q17 45 50.5 72.5t71.5 27.5q34 0 58.5 -14t45 -30.5t39 -30.5t41.5 -14q27 0 45.5 23.5t35.5 57.5z" />
<glyph unicode="&#x169;" horiz-adv-x="622" d="M65 0zM456 727h100v-468q0 -77 -16 -129t-46.5 -84.5t-75.5 -46.5t-103 -14q-60 0 -106.5 14t-78.5 46t-48.5 83.5t-16.5 126.5v472h99v-478q0 -48 10 -79.5t29 -51t47.5 -27.5t64.5 -8q34 0 60.5 8t44.5 27.5t27 51.5t9 80v477zM527 902q-18 -51 -54 -77.5t-76 -26.5 q-31 0 -54 14t-43 31t-39.5 31t-41.5 14q-26 0 -44.5 -23t-34.5 -55l-46 41q17 45 50.5 72.5t71.5 27.5q34 0 58.5 -14t45 -30.5t39 -30.5t41.5 -14q27 0 45.5 23.5t35.5 57.5z" />
<glyph unicode="&#x1e82;" horiz-adv-x="899" d="M16 0zM576 0l-122 517h-5l-130 -517h-134l-169 727h114l123 -570h5l139 570h109l134 -570h5l124 570h113l-172 -727h-134zM387 745l-34 52l208 167l45 -67z" />
<glyph unicode="&#x1e83;" horiz-adv-x="899" d="M16 0zM576 0l-122 517h-5l-130 -517h-134l-169 727h114l123 -570h5l139 570h109l134 -570h5l124 570h113l-172 -727h-134zM387 745l-34 52l208 167l45 -67z" />
<glyph unicode="&#x174;" horiz-adv-x="899" d="M16 0zM576 0l-122 517h-5l-130 -517h-134l-169 727h114l123 -570h5l139 570h109l134 -570h5l124 570h113l-172 -727h-134zM448 864l-120 -111l-35 39l155 164l157 -164l-36 -39z" />
<glyph unicode="&#x175;" horiz-adv-x="899" d="M16 0zM576 0l-122 517h-5l-130 -517h-134l-169 727h114l123 -570h5l139 570h109l134 -570h5l124 570h113l-172 -727h-134zM448 864l-120 -111l-35 39l155 164l157 -164l-36 -39z" />
<glyph unicode="&#x1e84;" horiz-adv-x="899" d="M16 0zM576 0l-122 517h-5l-130 -517h-134l-169 727h114l123 -570h5l139 570h109l134 -570h5l124 570h113l-172 -727h-134zM291 805v132h101v-132h-101zM507 805v132h101v-132h-101z" />
<glyph unicode="&#x1e85;" horiz-adv-x="899" d="M16 0zM576 0l-122 517h-5l-130 -517h-134l-169 727h114l123 -570h5l139 570h109l134 -570h5l124 570h113l-172 -727h-134zM291 805v132h101v-132h-101zM507 805v132h101v-132h-101z" />
<glyph unicode="&#x1e80;" horiz-adv-x="899" d="M16 0zM576 0l-122 517h-5l-130 -517h-134l-169 727h114l123 -570h5l139 570h109l134 -570h5l124 570h113l-172 -727h-134zM293 897l44 67l209 -167l-35 -52z" />
<glyph unicode="&#x1e81;" horiz-adv-x="899" d="M16 0zM576 0l-122 517h-5l-130 -517h-134l-169 727h114l123 -570h5l139 570h109l134 -570h5l124 570h113l-172 -727h-134zM293 897l44 67l209 -167l-35 -52z" />
<glyph unicode="&#xdd;" horiz-adv-x="581" d="M12 0zM237 0v284l-225 443h113l167 -331l166 331h111l-223 -441v-286h-109zM228 745l-34 52l208 167l45 -67z" />
<glyph unicode="&#xfd;" horiz-adv-x="581" d="M12 0zM237 0v284l-225 443h113l167 -331l166 331h111l-223 -441v-286h-109zM228 745l-34 52l208 167l45 -67z" />
<glyph unicode="&#x176;" horiz-adv-x="581" d="M12 0zM237 0v284l-225 443h113l167 -331l166 331h111l-223 -441v-286h-109zM289 864l-120 -111l-35 39l155 164l157 -164l-36 -39z" />
<glyph unicode="&#x177;" horiz-adv-x="581" d="M12 0zM237 0v284l-225 443h113l167 -331l166 331h111l-223 -441v-286h-109zM289 864l-120 -111l-35 39l155 164l157 -164l-36 -39z" />
<glyph unicode="&#x178;" horiz-adv-x="581" d="M12 0zM237 0v284l-225 443h113l167 -331l166 331h111l-223 -441v-286h-109zM132 805v132h101v-132h-101zM348 805v132h101v-132h-101z" />
<glyph unicode="&#xff;" horiz-adv-x="581" d="M12 0zM237 0v284l-225 443h113l167 -331l166 331h111l-223 -441v-286h-109zM132 805v132h101v-132h-101zM348 805v132h101v-132h-101z" />
<glyph unicode="&#x1ef2;" horiz-adv-x="581" d="M12 0zM237 0v284l-225 443h113l167 -331l166 331h111l-223 -441v-286h-109zM134 897l44 67l209 -167l-35 -52z" />
<glyph unicode="&#x1ef3;" horiz-adv-x="581" d="M12 0zM237 0v284l-225 443h113l167 -331l166 331h111l-223 -441v-286h-109zM134 897l44 67l209 -167l-35 -52z" />
<glyph unicode="&#x179;" horiz-adv-x="591" d="M50 0zM50 0v104l360 522v4h-360v97h491v-92l-360 -532v-5h361v-98h-492zM233 745l-34 52l208 167l45 -67z" />
<glyph unicode="&#x17a;" horiz-adv-x="591" d="M50 0zM50 0v104l360 522v4h-360v97h491v-92l-360 -532v-5h361v-98h-492zM233 745l-34 52l208 167l45 -67z" />
<glyph unicode="&#x17d;" horiz-adv-x="591" d="M50 0zM50 0v104l360 522v4h-360v97h491v-92l-360 -532v-5h361v-98h-492zM139 917l35 39l121 -110l120 110l36 -39l-156 -164z" />
<glyph unicode="&#x17e;" horiz-adv-x="591" d="M50 0zM50 0v104l360 522v4h-360v97h491v-92l-360 -532v-5h361v-98h-492zM139 917l35 39l121 -110l120 110l36 -39l-156 -164z" />
<glyph unicode="&#x17b;" horiz-adv-x="591" d="M50 0zM50 0v104l360 522v4h-360v97h491v-92l-360 -532v-5h361v-98h-492zM245 805v132h101v-132h-101z" />
<glyph unicode="&#x17c;" horiz-adv-x="591" d="M50 0zM50 0v104l360 522v4h-360v97h491v-92l-360 -532v-5h361v-98h-492zM245 805v132h101v-132h-101z" />
<glyph unicode="&#x132;" horiz-adv-x="770" d="M73 0zM73 0v727h101v-727h-101zM604 727h101v-478q0 -57 -14.5 -105.5t-45 -84t-77 -55t-109.5 -19.5q-54 0 -104 19.5t-85 62.5l68 78q20 -34 52.5 -48.5t70.5 -14.5q72 0 107.5 42t35.5 132v471z" />
<glyph unicode="&#x133;" horiz-adv-x="770" d="M73 0zM73 0v727h101v-727h-101zM604 727h101v-478q0 -57 -14.5 -105.5t-45 -84t-77 -55t-109.5 -19.5q-54 0 -104 19.5t-85 62.5l68 78q20 -34 52.5 -48.5t70.5 -14.5q72 0 107.5 42t35.5 132v471z" />
<glyph unicode="&#x110;" horiz-adv-x="656" d="M8 0zM68 0v324h-60v98h60v305h235q87 0 145 -28t93 -76.5t49.5 -115t14.5 -143.5q0 -78 -14.5 -144.5t-49.5 -115t-93 -76.5t-145 -28h-235zM297 99q56 0 95.5 15t64 47.5t35.5 82.5t11 120q0 69 -11 119t-35.5 82t-64 47t-95.5 15h-129v-205h189v-98h-189v-225h129z" />
<glyph unicode="&#x218;" horiz-adv-x="556" d="M40 0zM397 519q0 27 -6.5 50.5t-20 41t-36 27.5t-53.5 10q-55 0 -89 -27.5t-34 -72.5q0 -22 6.5 -39.5t22.5 -32t43.5 -27.5t69.5 -25q110 -32 157.5 -87t47.5 -140q0 -50 -16.5 -89.5t-46.5 -66.5t-71.5 -41.5t-90.5 -14.5q-47 0 -88 14t-73 40.5t-53 65t-26 88.5 l100 26q3 -25 12 -49.5t25.5 -44t40.5 -31.5t58 -12q56 0 90.5 31t34.5 89q0 46 -31 76t-101 50q-50 15 -89 33t-65.5 44t-40.5 61.5t-14 84.5q0 46 18.5 82t49 60t70 36.5t81.5 12.5q48 0 87.5 -13t68 -39.5t44.5 -66.5t16 -94zM234 -236l31 83l-2 4h-35v123h100v-123 l-37 -87h-57z" />
<glyph unicode="&#x219;" horiz-adv-x="556" d="M40 0zM397 519q0 27 -6.5 50.5t-20 41t-36 27.5t-53.5 10q-55 0 -89 -27.5t-34 -72.5q0 -22 6.5 -39.5t22.5 -32t43.5 -27.5t69.5 -25q110 -32 157.5 -87t47.5 -140q0 -50 -16.5 -89.5t-46.5 -66.5t-71.5 -41.5t-90.5 -14.5q-47 0 -88 14t-73 40.5t-53 65t-26 88.5 l100 26q3 -25 12 -49.5t25.5 -44t40.5 -31.5t58 -12q56 0 90.5 31t34.5 89q0 46 -31 76t-101 50q-50 15 -89 33t-65.5 44t-40.5 61.5t-14 84.5q0 46 18.5 82t49 60t70 36.5t81.5 12.5q48 0 87.5 -13t68 -39.5t44.5 -66.5t16 -94zM234 -236l31 83l-2 4h-35v123h100v-123 l-37 -87h-57z" />
<glyph unicode="&#x21a;" horiz-adv-x="557" d="M30 0zM226 0v627h-196v100h496v-100h-194v-627h-106zM235 -236l31 83l-2 4h-35v123h100v-123l-37 -87h-57z" />
<glyph unicode="&#x21b;" horiz-adv-x="557" d="M30 0zM226 0v627h-196v100h496v-100h-194v-627h-106zM235 -236l31 83l-2 4h-35v123h100v-123l-37 -87h-57z" />
<glyph unicode="&#xab;" horiz-adv-x="490" d="M24 213zM205 213l-181 171l181 172l43 -40l-119 -132l119 -132zM420 213l-181 171l181 172l43 -40l-119 -132l119 -132z" />
<glyph unicode="&#xbb;" horiz-adv-x="490" d="M24 213zM68 213l-44 39l121 132l-121 132l44 40l180 -172zM283 213l-44 39l121 132l-121 132l44 40l180 -172z" />
<glyph unicode="&#x22;" horiz-adv-x="374" d="M50 424zM63 424l-13 318h103l-18 -318h-72zM234 424l-13 318h103l-18 -318h-72z" />
<glyph unicode="&#x201c;" horiz-adv-x="426" d="M72 495zM72 495v132l46 115h55l-38 -112l2 -3h35v-132h-100zM250 495v132l46 115h55l-38 -112l2 -3h35v-132h-100z" />
<glyph unicode="&#x201d;" horiz-adv-x="426" d="M74 480zM74 480l38 111l-2 4h-35v132h100v-132l-45 -115h-56zM252 480l38 111l-2 4h-35v132h100v-132l-45 -115h-56z" />
<glyph unicode="&#x201e;" horiz-adv-x="436" d="M74 0zM74 -115l38 111l-2 4h-35v132h100v-132l-45 -115h-56zM262 -115l38 111l-2 4h-35v132h100v-132l-45 -115h-56z" />
<glyph horiz-adv-x="296" />
<glyph unicode="&#x2080;" horiz-adv-x="400" d="M198 -18q-67 0 -106.5 52.5t-39.5 158.5q0 104 39 156t107 52q67 0 107 -52t40 -156q0 -106 -40 -158.5t-107 -52.5zM198 48q37 0 58 32.5t21 112.5q0 78 -21 111t-58 33t-57.5 -33t-20.5 -111q0 -80 20.5 -112.5t57.5 -32.5z" />
<glyph unicode="&#x2081;" horiz-adv-x="206" d="M85 -10v297h-51v60h28q12 0 19.5 9t7.5 23v14h61v-403h-65z" />
<glyph unicode="&#x2082;" horiz-adv-x="336" d="M43 -10v43q0 42 6.5 73t20.5 53.5t37.5 38t56.5 26.5q34 11 47 24t13 36q0 49 -56 49q-27 0 -45.5 -16t-29.5 -43l-53 45q20 38 50.5 60t82.5 22q48 0 82.5 -28.5t34.5 -86.5q0 -47 -22 -73.5t-74 -45.5q-26 -9 -41.5 -19t-24 -23t-11.5 -30t-3 -40h174v-65h-245z" />
<glyph unicode="&#x2083;" horiz-adv-x="345" d="M81 91q15 -21 33 -32t42 -11q32 0 53 20.5t21 55.5q0 30 -19.5 52.5t-51.5 22.5h-19t-19 -2l-11 41l92 91h-149v64h220v-66l-70 -77q19 -4 36.5 -14t31 -25.5t21.5 -36t8 -45.5q0 -72 -40.5 -109.5t-106.5 -37.5q-32 0 -64 15t-54 45z" />
<glyph unicode="&#x2084;" horiz-adv-x="352" d="M206 -10v80h-171v60l95 263h71l-94 -259h99v134h63v-134h44v-64h-44v-80h-63z" />
<glyph unicode="&#x2085;" horiz-adv-x="348" d="M80 89q33 -41 81 -41q34 0 56 20.5t22 62.5q0 45 -21.5 63.5t-53.5 18.5q-22 0 -36 -8.5t-23 -22.5l-58 15l15 196h217v-65h-159l-5 -70q23 15 55 15q60 0 97 -35.5t37 -106.5q0 -73 -40 -111t-106 -38q-38 0 -67 15.5t-54 36.5z" />
<glyph unicode="&#x2086;" horiz-adv-x="348" d="M247 111q0 29 -19.5 46t-50.5 17q-29 0 -50.5 -16t-21.5 -42q0 -32 19.5 -50.5t51.5 -18.5q31 0 51 17.5t20 46.5zM257 334q-27 -5 -51 -16.5t-43.5 -28t-32.5 -37.5t-17 -44q14 11 34 19t43 8q55 0 87 -32.5t32 -86.5q0 -62 -36 -98t-97 -36q-66 0 -102 40t-36 112 q0 56 17.5 102.5t46 81t65.5 55.5t77 25z" />
<glyph unicode="&#x2087;" horiz-adv-x="319" d="M86 -10l124 338h-185v65h258v-62l-123 -341h-74z" />
<glyph unicode="&#x2088;" horiz-adv-x="353" d="M297 293q0 -30 -11 -51t-29 -33q25 -11 41 -35t16 -64q0 -57 -37 -92.5t-102 -35.5q-66 0 -103 35.5t-37 92.5q0 38 16 63t41 36q-17 11 -28.5 33t-11.5 51q0 45 32 76.5t91 31.5t90.5 -31.5t31.5 -76.5zM247 110q0 32 -19.5 47t-52.5 15q-32 0 -52.5 -15t-20.5 -47 q0 -30 19.5 -46t53.5 -16q33 0 52.5 16t19.5 46zM236 286q0 23 -16 37.5t-45 14.5t-45.5 -14.5t-16.5 -37.5t16.5 -37t45.5 -14t45 14t16 37z" />
<glyph unicode="&#x2089;" horiz-adv-x="348" d="M243 262q0 35 -20.5 55t-52.5 20q-31 0 -50.5 -19t-19.5 -50q0 -32 19.5 -49.5t50.5 -17.5q35 0 54 18t19 43zM124 35q42 24 75.5 58t41.5 77q-14 -11 -36.5 -19t-46.5 -8t-46.5 8.5t-39 24.5t-26.5 39.5t-10 54.5q0 58 37 94.5t98 36.5q67 0 103 -41t36 -113 q0 -57 -14.5 -101t-37 -76t-49.5 -54.5t-51 -35.5z" />
<glyph unicode="&#xaa;" horiz-adv-x="323" d="M294 395q-8 -5 -17.5 -8t-21.5 -3q-14 0 -25.5 6.5t-17.5 16.5q-13 -11 -33 -18t-43 -7q-45 0 -76 29t-31 84q0 49 30 74.5t77 25.5q21 0 38.5 -4t28.5 -11v18q0 25 -16.5 38t-43.5 13q-20 0 -35 -11t-25 -28l-49 40q13 25 40 45t69 20q59 0 91 -31t32 -87v-136 q0 -15 17 -15q3 0 7 2zM202 518q-7 8 -21 14t-34 6q-53 0 -53 -46q0 -23 14 -35.5t39 -12.5q19 0 34 9t21 17v48z" />
<glyph unicode="&#xba;" horiz-adv-x="341" d="M171 382q-55 0 -92 44t-37 123q0 78 37 122t92 44q54 0 89 -45t35 -121q0 -78 -35 -122.5t-89 -44.5zM169 449q29 0 46.5 25t17.5 75q0 48 -17.5 73.5t-46.5 25.5q-27 0 -45.5 -25.5t-18.5 -73.5q0 -50 18.5 -75t45.5 -25z" />
<glyph unicode="&#xb9;" horiz-adv-x="206" d="M34 339zM85 339v297h-51v60h28q12 0 19.5 9t7.5 23v14h61v-403h-65z" />
<glyph unicode="&#xb3;" horiz-adv-x="345" d="M35 331zM81 440q15 -21 33 -32t42 -11q32 0 53 20.5t21 55.5q0 30 -19.5 52.5t-51.5 22.5h-19t-19 -2l-11 41l92 91h-149v64h220v-66l-70 -77q19 -4 36.5 -14t31 -25.5t21.5 -36t8 -45.5q0 -72 -40.5 -109.5t-106.5 -37.5q-32 0 -64 15t-54 45z" />
<glyph unicode="&#xb2;" horiz-adv-x="336" d="M40 339zM43 339v43q0 42 6.5 73t20.5 53.5t37.5 38t56.5 26.5q34 11 47 24t13 36q0 49 -56 49q-27 0 -45.5 -16t-29.5 -43l-53 45q20 38 50.5 60t82.5 22q48 0 82.5 -28.5t34.5 -86.5q0 -47 -22 -73.5t-74 -45.5q-26 -9 -41.5 -19t-24 -23t-11.5 -30t-3 -40h174v-65h-245 z" />
<glyph unicode="&#x2070;" horiz-adv-x="400" d="M52 331zM198 331q-67 0 -106.5 52.5t-39.5 158.5q0 104 39 156t107 52q67 0 107 -52t40 -156q0 -106 -40 -158.5t-107 -52.5zM198 397q37 0 58 32.5t21 112.5q0 78 -21 111t-58 33t-57.5 -33t-20.5 -111q0 -80 20.5 -112.5t57.5 -32.5z" />
<glyph unicode="&#x2074;" horiz-adv-x="352" d="M35 339zM206 339v80h-171v60l95 263h71l-94 -259h99v134h63v-134h44v-64h-44v-80h-63z" />
<glyph unicode="&#x2075;" horiz-adv-x="348" d="M37 331zM80 438q33 -41 81 -41q34 0 56 20.5t22 62.5q0 45 -21.5 63.5t-53.5 18.5q-22 0 -36 -8.5t-23 -22.5l-58 15l15 196h217v-65h-159l-5 -70q23 15 55 15q60 0 97 -35.5t37 -106.5q0 -73 -40 -111t-106 -38q-38 0 -67 15.5t-54 36.5z" />
<glyph unicode="&#x2076;" horiz-adv-x="348" d="M38 331zM247 460q0 29 -19.5 46t-50.5 17q-29 0 -50.5 -16t-21.5 -42q0 -32 19.5 -50.5t51.5 -18.5q31 0 51 17.5t20 46.5zM257 683q-27 -5 -51 -16.5t-43.5 -28t-32.5 -37.5t-17 -44q14 11 34 19t43 8q55 0 87 -32.5t32 -86.5q0 -62 -36 -98t-97 -36q-66 0 -102 40 t-36 112q0 56 17.5 102.5t46 81t65.5 55.5t77 25z" />
<glyph unicode="&#x2077;" horiz-adv-x="319" d="M25 339zM86 339l124 338h-185v65h258v-62l-123 -341h-74z" />
<glyph unicode="&#x2078;" horiz-adv-x="353" d="M35 331zM297 642q0 -30 -11 -51t-29 -33q25 -11 41 -35t16 -64q0 -57 -37 -92.5t-102 -35.5q-66 0 -103 35.5t-37 92.5q0 38 16 63t41 36q-17 11 -28.5 33t-11.5 51q0 45 32 76.5t91 31.5t90.5 -31.5t31.5 -76.5zM247 459q0 32 -19.5 47t-52.5 15q-32 0 -52.5 -15 t-20.5 -47q0 -30 19.5 -46t53.5 -16q33 0 52.5 16t19.5 46zM236 635q0 23 -16 37.5t-45 14.5t-45.5 -14.5t-16.5 -37.5t16.5 -37t45.5 -14t45 14t16 37z" />
<glyph unicode="&#x2079;" horiz-adv-x="348" d="M36 329zM243 611q0 35 -20.5 55t-52.5 20q-31 0 -50.5 -19t-19.5 -50q0 -32 19.5 -49.5t50.5 -17.5q35 0 54 18t19 43zM124 384q42 24 75.5 58t41.5 77q-14 -11 -36.5 -19t-46.5 -8t-46.5 8.5t-39 24.5t-26.5 39.5t-10 54.5q0 58 37 94.5t98 36.5q67 0 103 -41t36 -113 q0 -57 -14.5 -101t-37 -76t-49.5 -54.5t-51 -35.5z" />
<glyph unicode="&#xbd;" horiz-adv-x="862" d="M76 0zM164 339v297h-51v60h28q12 0 19.5 9t7.5 23v14h61v-403h-65zM76 0l563 727h87l-564 -727h-86zM540 -10v43q0 42 6.5 73t20.5 53.5t37.5 38t56.5 26.5q34 11 47 24t13 36q0 49 -56 49q-27 0 -45.5 -16t-29.5 -43l-53 45q20 38 50.5 60t82.5 22q48 0 82.5 -28.5 t34.5 -86.5q0 -47 -22 -73.5t-74 -45.5q-26 -9 -41.5 -19t-24 -23t-11.5 -30t-3 -40h174v-65h-245z" />
<glyph unicode="&#xbc;" horiz-adv-x="865" d="M76 0zM164 339v297h-51v60h28q12 0 19.5 9t7.5 23v14h61v-403h-65zM76 0l563 727h87l-564 -727h-86zM683 -10v80h-171v60l95 263h71l-94 -259h99v134h63v-134h44v-64h-44v-80h-63z" />
<glyph unicode="&#xbe;" horiz-adv-x="946" d="M76 0zM122 440q15 -21 33 -32t42 -11q32 0 53 20.5t21 55.5q0 30 -19.5 52.5t-51.5 22.5h-19t-19 -2l-11 41l92 91h-149v64h220v-66l-70 -77q19 -4 36.5 -14t31 -25.5t21.5 -36t8 -45.5q0 -72 -40.5 -109.5t-106.5 -37.5q-32 0 -64 15t-54 45zM157 0l563 727h87 l-564 -727h-86zM764 -10v80h-171v60l95 263h71l-94 -259h99v134h63v-134h44v-64h-44v-80h-63z" />
<glyph unicode="&#x215b;" horiz-adv-x="886" d="M76 0zM164 339v297h-51v60h28q12 0 19.5 9t7.5 23v14h61v-403h-65zM76 0l563 727h87l-564 -727h-86zM794 293q0 -30 -11 -51t-29 -33q25 -11 41 -35t16 -64q0 -57 -37 -92.5t-102 -35.5q-66 0 -103 35.5t-37 92.5q0 38 16 63t41 36q-17 11 -28.5 33t-11.5 51 q0 45 32 76.5t91 31.5t90.5 -31.5t31.5 -76.5zM744 110q0 32 -19.5 47t-52.5 15q-32 0 -52.5 -15t-20.5 -47q0 -30 19.5 -46t53.5 -16q33 0 52.5 16t19.5 46zM733 286q0 23 -16 37.5t-45 14.5t-45.5 -14.5t-16.5 -37.5t16.5 -37t45.5 -14t45 14t16 37z" />
<glyph unicode="&#x215c;" horiz-adv-x="967" d="M76 0zM122 440q15 -21 33 -32t42 -11q32 0 53 20.5t21 55.5q0 30 -19.5 52.5t-51.5 22.5h-19t-19 -2l-11 41l92 91h-149v64h220v-66l-70 -77q19 -4 36.5 -14t31 -25.5t21.5 -36t8 -45.5q0 -72 -40.5 -109.5t-106.5 -37.5q-32 0 -64 15t-54 45zM157 0l563 727h87 l-564 -727h-86zM875 293q0 -30 -11 -51t-29 -33q25 -11 41 -35t16 -64q0 -57 -37 -92.5t-102 -35.5q-66 0 -103 35.5t-37 92.5q0 38 16 63t41 36q-17 11 -28.5 33t-11.5 51q0 45 32 76.5t91 31.5t90.5 -31.5t31.5 -76.5zM825 110q0 32 -19.5 47t-52.5 15q-32 0 -52.5 -15 t-20.5 -47q0 -30 19.5 -46t53.5 -16q33 0 52.5 16t19.5 46zM814 286q0 23 -16 37.5t-45 14.5t-45.5 -14.5t-16.5 -37.5t16.5 -37t45.5 -14t45 14t16 37z" />
<glyph unicode="&#x215d;" horiz-adv-x="968" d="M76 0zM119 438q33 -41 81 -41q34 0 56 20.5t22 62.5q0 45 -21.5 63.5t-53.5 18.5q-22 0 -36 -8.5t-23 -22.5l-58 15l15 196h217v-65h-159l-5 -70q23 15 55 15q60 0 97 -35.5t37 -106.5q0 -73 -40 -111t-106 -38q-38 0 -67 15.5t-54 36.5zM158 0l563 727h87l-564 -727h-86 zM876 293q0 -30 -11 -51t-29 -33q25 -11 41 -35t16 -64q0 -57 -37 -92.5t-102 -35.5q-66 0 -103 35.5t-37 92.5q0 38 16 63t41 36q-17 11 -28.5 33t-11.5 51q0 45 32 76.5t91 31.5t90.5 -31.5t31.5 -76.5zM826 110q0 32 -19.5 47t-52.5 15q-32 0 -52.5 -15t-20.5 -47 q0 -30 19.5 -46t53.5 -16q33 0 52.5 16t19.5 46zM815 286q0 23 -16 37.5t-45 14.5t-45.5 -14.5t-16.5 -37.5t16.5 -37t45.5 -14t45 14t16 37z" />
<glyph unicode="&#x215e;" horiz-adv-x="931" d="M76 0zM137 339l124 338h-185v65h258v-62l-123 -341h-74zM121 0l563 727h87l-564 -727h-86zM839 293q0 -30 -11 -51t-29 -33q25 -11 41 -35t16 -64q0 -57 -37 -92.5t-102 -35.5q-66 0 -103 35.5t-37 92.5q0 38 16 63t41 36q-17 11 -28.5 33t-11.5 51q0 45 32 76.5t91 31.5 t90.5 -31.5t31.5 -76.5zM789 110q0 32 -19.5 47t-52.5 15q-32 0 -52.5 -15t-20.5 -47q0 -30 19.5 -46t53.5 -16q33 0 52.5 16t19.5 46zM778 286q0 23 -16 37.5t-45 14.5t-45.5 -14.5t-16.5 -37.5t16.5 -37t45.5 -14t45 14t16 37z" />
<glyph unicode="&#x2153;" horiz-adv-x="892" d="M76 0zM164 339v297h-51v60h28q12 0 19.5 9t7.5 23v14h61v-403h-65zM76 0l563 727h87l-564 -727h-86zM598 91q15 -21 33 -32t42 -11q32 0 53 20.5t21 55.5q0 30 -19.5 52.5t-51.5 22.5h-19t-19 -2l-11 41l92 91h-149v64h220v-66l-70 -77q19 -4 36.5 -14t31 -25.5t21.5 -36 t8 -45.5q0 -72 -40.5 -109.5t-106.5 -37.5q-32 0 -64 15t-54 45z" />
<glyph unicode="&#x2154;" horiz-adv-x="979" d="M76 0zM79 339v43q0 42 6.5 73t20.5 53.5t37.5 38t56.5 26.5q34 11 47 24t13 36q0 49 -56 49q-27 0 -45.5 -16t-29.5 -43l-53 45q20 38 50.5 60t82.5 22q48 0 82.5 -28.5t34.5 -86.5q0 -47 -22 -73.5t-74 -45.5q-26 -9 -41.5 -19t-24 -23t-11.5 -30t-3 -40h174v-65h-245z M163 0l563 727h87l-564 -727h-86zM685 91q15 -21 33 -32t42 -11q32 0 53 20.5t21 55.5q0 30 -19.5 52.5t-51.5 22.5h-19t-19 -2l-11 41l92 91h-149v64h220v-66l-70 -77q19 -4 36.5 -14t31 -25.5t21.5 -36t8 -45.5q0 -72 -40.5 -109.5t-106.5 -37.5q-32 0 -64 15t-54 45z" />
<glyph unicode="%" horiz-adv-x="876" d="M76 0zM222 331q-67 0 -106.5 52.5t-39.5 158.5q0 104 39 156t107 52q67 0 107 -52t40 -156q0 -106 -40 -158.5t-107 -52.5zM222 397q37 0 58 32.5t21 112.5q0 78 -21 111t-58 33t-57.5 -33t-20.5 -111q0 -80 20.5 -112.5t57.5 -32.5zM115 0l563 727h87l-564 -727h-86z M654 -18q-67 0 -106.5 52.5t-39.5 158.5q0 104 39 156t107 52q67 0 107 -52t40 -156q0 -106 -40 -158.5t-107 -52.5zM654 48q37 0 58 32.5t21 112.5q0 78 -21 111t-58 33t-57.5 -33t-20.5 -111q0 -80 20.5 -112.5t57.5 -32.5z" />
<glyph unicode="&#x2030;" horiz-adv-x="1166" d="M76 0zM222 331q-67 0 -106.5 52.5t-39.5 158.5q0 104 39 156t107 52q67 0 107 -52t40 -156q0 -106 -40 -158.5t-107 -52.5zM222 397q37 0 58 32.5t21 112.5q0 78 -21 111t-58 33t-57.5 -33t-20.5 -111q0 -80 20.5 -112.5t57.5 -32.5zM95 0l563 727h87l-564 -727h-86z M614 -18q-67 0 -106.5 52.5t-39.5 158.5q0 104 39 156t107 52q67 0 107 -52t40 -156q0 -106 -40 -158.5t-107 -52.5zM614 48q37 0 58 32.5t21 112.5q0 78 -21 111t-58 33t-57.5 -33t-20.5 -111q0 -80 20.5 -112.5t57.5 -32.5zM944 -18q-67 0 -106.5 52.5t-39.5 158.5 q0 104 39 156t107 52q67 0 107 -52t40 -156q0 -106 -40 -158.5t-107 -52.5zM944 48q37 0 58 32.5t21 112.5q0 78 -21 111t-58 33t-57.5 -33t-20.5 -111q0 -80 20.5 -112.5t57.5 -32.5z" />
<glyph unicode="&#xfb01;" horiz-adv-x="556" d="M69 0zM69 0zM69 0v727h391v-100h-291v-205h282v-98h-282v-324h-100zM393 0zM393 0v727h101v-727h-101z" />
<glyph unicode="&#xfb02;" horiz-adv-x="580" d="M69 0zM69 0zM69 0v727h391v-100h-291v-205h282v-98h-282v-324h-100zM389 0zM389 0v727h100v-628h352v-99h-452z" />
<glyph horiz-adv-x="580" d="M0 0z" />
</font>
</defs>
</svg>
