<?xml version="1.0" standalone="no"?>
<!DOCTYPE svg PUBLIC "-//W3C//DTD SVG 1.1//EN" "http://www.w3.org/Graphics/SVG/1.1/DTD/svg11.dtd" >
<svg xmlns="http://www.w3.org/2000/svg" xmlns:xlink="http://www.w3.org/1999/xlink" version="1.1">
<metadata></metadata>
<defs>
<font id="mixolydian_titlinglight" horiz-adv-x="572" >
<font-face units-per-em="1000" ascent="760" descent="-240" />
<missing-glyph horiz-adv-x="289" />
<glyph horiz-adv-x="289" />
<glyph unicode=" "  horiz-adv-x="289" />
<glyph unicode="&#x09;" horiz-adv-x="289" />
<glyph unicode="&#xa0;" horiz-adv-x="289" />
<glyph unicode="!" horiz-adv-x="233" d="M96 214l-19 217v296h79v-296l-19 -217h-41zM81 0v132h71v-132h-71z" />
<glyph unicode="&#x22;" horiz-adv-x="338" d="M53 437zM62 437l-9 305h73l-14 -305h-50zM221 437l-9 305h73l-14 -305h-50z" />
<glyph unicode="#" horiz-adv-x="602" d="M295 0l44 200h-145l-45 -200h-54l44 200h-114v58h126l48 216h-131v58h144l42 195h55l-42 -195h144l45 195h53l-44 -195h110v-58h-121l-50 -216h129v-58h-140l-45 -200h-53zM400 475h-146l-48 -218h144z" />
<glyph unicode="$" horiz-adv-x="507" d="M216 0v82q-33 4 -62 15.5t-51.5 30t-38 43.5t-21.5 56l69 15q11 -43 43.5 -72.5t92.5 -29.5q54 0 89.5 24t35.5 72q0 15 -6.5 31t-22 30t-40.5 26t-61 19q-91 17 -139.5 53.5t-48.5 104.5q0 31 13.5 55.5t35.5 42.5t51 29t61 15v85h63v-84q69 -7 110 -46t46 -108l-69 -4 q-5 45 -32.5 74t-83.5 29q-25 0 -47.5 -4.5t-40 -15t-28 -28t-10.5 -42.5q0 -73 140 -97q94 -20 138 -62.5t44 -105.5q0 -33 -12.5 -60t-35 -46t-53 -30.5t-66.5 -14.5v-82h-63z" />
<glyph unicode="%" horiz-adv-x="888" d="M79 0zM222 331q-66 0 -104.5 52.5t-38.5 158.5q0 104 38.5 156t104.5 52t104.5 -52t38.5 -156q0 -106 -39 -158.5t-104 -52.5zM222 380q42 0 67 38t25 124q0 84 -25 121.5t-67 37.5q-43 0 -67.5 -37.5t-24.5 -121.5q0 -86 25 -124t67 -38zM136 0l559 727h63l-560 -727 h-62zM667 -18q-66 0 -104.5 52.5t-38.5 158.5q0 104 38.5 156t104.5 52t104.5 -52t38.5 -156q0 -106 -39 -158.5t-104 -52.5zM667 31q42 0 67 38t25 124q0 84 -25 121.5t-67 37.5q-43 0 -67.5 -37.5t-24.5 -121.5q0 -86 25 -124t67 -38z" />
<glyph unicode="&#x26;" horiz-adv-x="701" d="M609 0l-97 87q-52 -58 -111 -80t-121 -22q-64 0 -110.5 15.5t-76.5 42t-44 62t-14 76.5q0 39 10 69.5t30.5 54.5t50.5 43.5t71 37.5q-26 25 -44 47.5t-29 44t-15.5 43t-4.5 44.5q0 49 19 82.5t48 54.5t63.5 30.5t66.5 9.5q38 0 72.5 -12t60.5 -33.5t41.5 -52.5t15.5 -69 q0 -71 -46.5 -118.5t-141.5 -82.5l202 -184q45 73 55 170h69q-4 -60 -22.5 -114t-50.5 -106l151 -140h-98zM237 344q-70 -26 -98.5 -61.5t-28.5 -90.5q0 -29 10.5 -54.5t31.5 -44.5t53 -30t76 -11q51 0 96.5 20.5t83.5 66.5zM266 413q45 16 75 32.5t48 35.5t25.5 39.5 t7.5 44.5q0 51 -33 83t-85 32q-24 0 -46.5 -7t-40.5 -21.5t-28.5 -37t-10.5 -53.5q0 -19 4.5 -36t14.5 -34t27 -36t42 -42z" />
<glyph unicode="'" horiz-adv-x="179" d="M62 437l-9 305h73l-14 -305h-50z" />
<glyph unicode="(" horiz-adv-x="355" d="M256 -181q-152 227 -152 469t152 468h69q-84 -111 -124 -227t-40 -241q0 -119 39.5 -235t122.5 -234h-67z" />
<glyph unicode=")" horiz-adv-x="354" d="M29 -181q43 60 74 117.5t51 114.5t29.5 115.5t9.5 121.5q0 126 -41 239.5t-123 228.5h68q77 -115 114.5 -229t37.5 -239t-37.5 -239.5t-114.5 -229.5h-68z" />
<glyph unicode="*" horiz-adv-x="535" d="M291 453l3 -205h-55l3 205l-175 -106l-26 46l179 101l-180 99l25 46l177 -105l-3 206h55l-3 -206l177 105l25 -46l-180 -99l179 -101l-26 -46z" />
<glyph unicode="+" d="M255 115v213h-213v61h213v213h61v-213h213v-61h-213v-213h-61z" />
<glyph unicode="," horiz-adv-x="226" d="M76 -115l30 112l-1 3h-25v132h70v-132l-34 -115h-40z" />
<glyph unicode="-" horiz-adv-x="265" d="M33 338v69h199v-69h-199z" />
<glyph unicode="." horiz-adv-x="221" d="M75 0v132h70v-132h-70z" />
<glyph unicode="/" horiz-adv-x="406" d="M23 -97l300 853h59l-299 -853h-60z" />
<glyph unicode="0" horiz-adv-x="665" d="M332 -15q-58 0 -104.5 24t-79.5 71.5t-51 118.5t-18 166q0 94 17.5 164.5t50.5 117.5t80 71t105 24t105 -24t80.5 -71t51.5 -117.5t18 -164.5q0 -95 -18 -166t-51.5 -118.5t-80.5 -71.5t-105 -24zM332 55q42 0 75.5 18t57.5 55.5t36.5 96.5t12.5 140q0 161 -49 234.5 t-133 73.5t-132.5 -73.5t-48.5 -234.5q0 -81 12.5 -140t36 -96.5t57 -55.5t75.5 -18z" />
<glyph unicode="1" horiz-adv-x="298" d="M145 0v576h-97v64h52q23 0 36.5 14.5t13.5 40.5v32h64v-727h-69z" />
<glyph unicode="2" horiz-adv-x="550" d="M63 0v70q0 36 1.5 64.5t5 52.5t10 44t16.5 39q50 90 178 127q39 11 66.5 24t44.5 30t25 39.5t8 53.5q0 66 -32 95.5t-105 29.5q-63 0 -102 -29.5t-62 -83.5l-55 48q15 32 35.5 57.5t48 43.5t62.5 27.5t80 9.5q40 0 76.5 -12t64 -36.5t43.5 -62t16 -87.5q0 -40 -9.5 -71 t-31.5 -55.5t-56.5 -44t-84.5 -35.5q-56 -18 -88.5 -39.5t-50 -52t-22.5 -73.5t-5 -104h344v-69h-421z" />
<glyph unicode="3" horiz-adv-x="566" d="M99 138q59 -83 155 -83q39 0 71.5 12.5t56 36.5t36.5 58.5t13 79.5q0 32 -11 62.5t-32 54.5t-50.5 38.5t-66.5 14.5q-14 0 -29 -1t-30 -4l-13 46l182 201l-1 4h-299v69h377v-77l-164 -186h11q43 0 79.5 -17t63.5 -46.5t42 -69t15 -84.5q0 -64 -18.5 -113t-52.5 -82 t-80.5 -50t-103.5 -17t-111 24.5t-89 75.5z" />
<glyph unicode="4" horiz-adv-x="577" d="M376 0v161h-327v66l194 500h75l-194 -499h252v267h69v-267h85v-67h-85v-161h-69z" />
<glyph unicode="5" d="M101 130q29 -34 69 -54.5t92 -20.5q40 0 73 12.5t57 36.5t37.5 60t13.5 83q0 48 -12.5 83.5t-35 58.5t-53.5 34t-67 11q-54 0 -87 -19.5t-52 -51.5l-64 16l24 348h372v-70h-311l-14 -217q25 29 58 42.5t81 13.5q51 0 93 -15.5t73 -46.5t48 -78t17 -109q0 -63 -18 -112 t-51.5 -82.5t-80.5 -50.5t-105 -17q-67 0 -115.5 25t-86.5 61z" />
<glyph unicode="6" horiz-adv-x="571" d="M124 235q0 -85 45 -133t124 -48q36 0 66 11.5t51.5 33t33.5 52t12 68.5q0 69 -43 110t-116 41q-33 0 -62 -9.5t-52 -27t-38.5 -42.5t-20.5 -56zM136 345q17 35 60.5 62t116.5 27q48 0 87 -15t66 -42.5t41.5 -66.5t14.5 -86q0 -54 -16.5 -98.5t-46.5 -75.5t-72.5 -48 t-94.5 -17q-113 0 -176 72t-63 200q0 102 30 186.5t79 146.5t112.5 99t130.5 45l14 -69q-54 -8 -104 -35.5t-89 -70t-64.5 -97t-29.5 -117.5h4z" />
<glyph unicode="7" horiz-adv-x="520" d="M153 0l244 657h-367v70h444v-72l-242 -655h-79z" />
<glyph unicode="8" horiz-adv-x="580" d="M389 395q66 -14 104 -61.5t38 -125.5q0 -49 -16.5 -90t-47.5 -70.5t-75.5 -46t-101.5 -16.5t-102 16.5t-75.5 46t-47 70.5t-16.5 90q0 78 37.5 127t103.5 60q-50 12 -81 56.5t-31 104.5q0 38 14.5 72t41.5 59.5t66.5 40t89.5 14.5t89 -14.5t66 -40t41.5 -59.5t14.5 -72 q0 -61 -30.5 -103.5t-81.5 -57.5zM459 208q0 74 -45 110.5t-124 36.5q-37 0 -68.5 -9t-54 -27t-35 -45.5t-12.5 -65.5q0 -71 44.5 -111.5t125.5 -40.5t125 40.5t44 111.5zM437 548q0 54 -39 90.5t-108 36.5q-70 0 -109 -36.5t-39 -90.5q0 -56 38 -91t110 -35q70 0 108.5 35 t38.5 91z" />
<glyph unicode="9" d="M452 485q0 87 -45.5 137.5t-123.5 50.5q-36 0 -66.5 -12t-52.5 -34t-34 -52.5t-12 -67.5q0 -40 12.5 -70.5t34 -51t51.5 -31t66 -10.5q35 0 66 13t54 33.5t36.5 45.5t13.5 49zM219 45q38 21 76.5 52t70 71.5t53.5 91.5t28 113l-4 1q-9 -15 -26 -31t-40.5 -29t-51.5 -21.5 t-59 -8.5q-44 0 -83.5 14.5t-68.5 43t-46 70.5t-17 97q0 51 16.5 93.5t47.5 73.5t73.5 48.5t95.5 17.5q57 0 102 -19.5t75.5 -55.5t47 -87.5t16.5 -114.5q0 -103 -26.5 -182t-66.5 -137.5t-87.5 -98t-90.5 -62.5z" />
<glyph unicode=":" horiz-adv-x="222" d="M75 0v132h71v-132h-71zM75 415v132h71v-132h-71z" />
<glyph unicode=";" horiz-adv-x="227" d="M76 -115l30 112l-1 3h-25v132h71v-132l-35 -115h-40zM80 415v132h71v-132h-71z" />
<glyph unicode="&#x3c;" d="M42 327v63l487 198v-62l-415 -168l415 -167v-62z" />
<glyph unicode="=" d="M42 481v61h487v-61h-487zM42 177v61h487v-61h-487z" />
<glyph unicode="&#x3e;" d="M42 129v62l415 167l-415 168v62l487 -198v-63z" />
<glyph unicode="?" horiz-adv-x="477" d="M185 203v21q0 33 4.5 59.5t15 49t29 42.5t45.5 40q43 31 61.5 59t18.5 72q0 30 -11.5 53.5t-30.5 39.5t-43 24t-49 8q-28 0 -50.5 -8t-39.5 -21.5t-29.5 -31.5t-19.5 -37l-59 39q11 26 28 49.5t42 41.5t57.5 28.5t74.5 10.5q37 0 73.5 -10.5t65.5 -34t47 -59.5t18 -87 q0 -31 -8.5 -56t-22.5 -47t-33.5 -41.5t-41.5 -38.5q-24 -20 -37.5 -36t-21 -34t-10 -40t-3.5 -55h-70zM184 0v132h71v-132h-71z" />
<glyph unicode="@" horiz-adv-x="829" d="M391 -211q-78 15 -141.5 49.5t-108 89t-68.5 129t-24 169.5q0 106 31 186.5t83 135t121 82t145 27.5t140 -23t111 -66.5t73.5 -106t26.5 -142.5q0 -64 -15 -112t-40.5 -79.5t-59 -47.5t-70.5 -16q-35 0 -58 15t-33 31q-13 -16 -38.5 -31.5t-63.5 -15.5q-25 0 -47.5 10 t-39.5 30.5t-27 52t-10 75.5q0 46 10 77.5t27 51.5t39 29t46 9q34 0 56.5 -12t34.5 -29v38h45v-243q7 -15 21.5 -26t37.5 -11q21 0 42.5 10.5t39.5 34t29.5 61.5t11.5 94q0 68 -21 121t-59 90t-91 56t-117 19q-70 0 -128.5 -26t-100.5 -74t-65 -117.5t-23 -156.5 q0 -88 20 -153t57.5 -111t91 -74.5t119.5 -43.5zM482 314q-8 17 -26 28.5t-47 11.5q-35 0 -58.5 -28t-23.5 -93q0 -63 23.5 -91.5t59.5 -28.5q28 0 45.5 11t26.5 25v165z" />
<glyph unicode="A" horiz-adv-x="600" d="M506 0l-50 150h-314l-49 -150h-76l238 727h90l238 -727h-77zM301 622h-4l-133 -405h270z" />
<glyph unicode="B" horiz-adv-x="573" d="M72 0v727h252q38 0 72.5 -12t60.5 -36t41 -60.5t15 -84.5q0 -49 -22 -89t-64 -58q21 -7 40.5 -20.5t34.5 -34.5t24 -50t9 -68q0 -103 -59 -158.5t-173 -55.5h-231zM313 68q69 0 108 38t39 107q0 63 -36 98t-91 35h-191v-278h171zM331 410q25 0 46 9.5t36 26t23 38.5t8 46 q0 32 -10 56t-27 40t-39 24t-47 8h-179v-248h189z" />
<glyph unicode="C" horiz-adv-x="640" d="M590 228q-5 -54 -24.5 -98.5t-51.5 -76.5t-74.5 -50t-92.5 -18q-63 0 -115 22t-90 68t-59 117.5t-21 171.5q0 99 21 170.5t59 117.5t90 68t115 22q50 0 92.5 -17.5t74.5 -49.5t52 -76.5t25 -98.5l-69 -7q-11 87 -58.5 130.5t-121.5 43.5q-47 0 -85 -17.5t-66 -54.5 t-43 -94.5t-15 -136.5q0 -80 15 -137.5t43 -94.5t66 -54.5t85 -17.5q72 0 120 45t59 130z" />
<glyph unicode="D" horiz-adv-x="649" d="M72 0v727h229q85 0 141.5 -28t90.5 -76.5t48 -115t14 -143.5q0 -78 -14 -144.5t-48 -115t-90.5 -76.5t-141.5 -28h-229zM297 69q63 0 106.5 19t70.5 56.5t38.5 92.5t11.5 127q0 71 -11.5 126t-38.5 92t-70.5 56t-106.5 19h-155v-588h155z" />
<glyph unicode="E" horiz-adv-x="516" d="M72 0v727h376v-70h-306v-249h302v-69h-302v-270h306v-69h-376z" />
<glyph unicode="F" horiz-adv-x="489" d="M72 0v727h381v-70h-311v-249h302v-69h-302v-339h-70z" />
<glyph unicode="G" horiz-adv-x="667" d="M369 310v70h248q1 -11 1.5 -28t0.5 -35q0 -62 -14.5 -121.5t-47 -106t-85 -75.5t-129.5 -29q-58 0 -109 22t-89.5 68t-60.5 117.5t-22 171.5q0 99 22.5 170.5t62 117.5t93.5 68t117 22q45 0 85.5 -14.5t73 -41t55 -63t32.5 -81.5l-67 -12q-19 65 -69 103t-115 38 q-47 0 -87.5 -18t-70 -55.5t-46.5 -95.5t-17 -138q0 -81 16.5 -139.5t45.5 -96t68 -55t84 -17.5q60 0 99 19.5t62 53.5t32 80.5t9 100.5h-178z" />
<glyph unicode="H" horiz-adv-x="649" d="M508 0v339h-366v-339h-70v727h70v-319h366v319h69v-727h-69z" />
<glyph unicode="I" horiz-adv-x="221" d="M76 0v727h70v-727h-70z" />
<glyph unicode="J" horiz-adv-x="518" d="M380 727h70v-478q0 -57 -14.5 -105.5t-43.5 -84t-74.5 -55t-106.5 -19.5q-53 0 -101.5 19.5t-82.5 62.5l47 55q25 -38 61 -53.5t77 -15.5q85 0 126.5 52t41.5 149v473z" />
<glyph unicode="K" horiz-adv-x="589" d="M481 0l-327 352h-12v-352h-70v727h70v-316h9l321 316h91l-349 -338l361 -389h-94z" />
<glyph unicode="L" horiz-adv-x="542" d="M72 0v727h70v-658h370v-69h-440z" />
<glyph unicode="M" horiz-adv-x="721" d="M580 0v587h-4l-186 -411h-61l-184 411h-4v-587h-69v727h93l195 -447h4l197 447h88v-727h-69z" />
<glyph unicode="N" horiz-adv-x="650" d="M510 0l-366 604h-4v-604h-68v727h84l350 -588h4v588h68v-727h-68z" />
<glyph unicode="O" horiz-adv-x="683" d="M347 -15q-61 0 -113 26t-90.5 75t-60 119t-21.5 159q0 88 21.5 158t60 119t90.5 75t113 26q60 0 110.5 -26.5t86.5 -76t56.5 -119t20.5 -156.5t-20.5 -157t-56.5 -119.5t-86.5 -76t-110.5 -26.5zM344 60q45 0 83 20t65.5 59t43 95.5t15.5 129.5q0 72 -15.5 128.5 t-43 95.5t-65.5 59t-83 20t-84 -20t-67.5 -58.5t-44.5 -95t-16 -129.5q0 -74 16 -130.5t44.5 -95t67.5 -58.5t84 -20z" />
<glyph unicode="P" horiz-adv-x="584" d="M72 0v727h270q47 0 85.5 -15.5t65.5 -44t41.5 -69.5t14.5 -92q0 -54 -15.5 -95.5t-44 -69.5t-68.5 -42.5t-89 -14.5h-190v-284h-70zM336 352q67 0 105 38.5t38 112.5t-36 114.5t-102 40.5h-199v-306h194z" />
<glyph unicode="Q" horiz-adv-x="683" d="M480 -88l-43 90q-43 -17 -90 -17q-61 0 -113 26t-90.5 75t-60 119t-21.5 159q0 88 21.5 158t60 119t90.5 75t113 26q60 0 110.5 -26.5t86.5 -76t56.5 -119t20.5 -156.5q0 -114 -34 -197.5t-92 -130.5l44 -93zM310 268l60 33l92 -196q42 38 65.5 103t23.5 156 q0 72 -15.5 128.5t-43 95.5t-65.5 59t-83 20t-84 -20t-67.5 -58.5t-44.5 -95t-16 -129.5q0 -74 16 -130.5t44.5 -95t67.5 -58.5t84 -20q33 0 60 10z" />
<glyph unicode="R" horiz-adv-x="591" d="M474 0q-6 16 -6 35v166q0 62 -33.5 88.5t-87.5 26.5h-205v-316h-70v727h252q99 0 152.5 -55t53.5 -151q0 -39 -8.5 -67.5t-22 -48.5t-31.5 -32t-36 -18q20 -5 39 -14.5t34 -26.5t24 -43t9 -63v-171q0 -10 2 -18.5t5 -18.5h-71zM340 381q24 0 46 7t38.5 23.5t26.5 42 t10 63.5q0 67 -35 103.5t-105 36.5h-179v-276h198z" />
<glyph unicode="S" horiz-adv-x="549" d="M417 522q0 33 -8 61t-25 48.5t-43.5 32.5t-63.5 12q-31 0 -57.5 -8.5t-46 -24.5t-31 -39.5t-11.5 -52.5q0 -27 8 -48.5t26.5 -38.5t49.5 -30.5t76 -24.5q109 -26 157 -79t48 -140q0 -49 -16.5 -87t-46 -64.5t-69.5 -40t-87 -13.5q-46 0 -86.5 14t-71.5 41t-51 65.5 t-25 87.5l70 18q3 -30 14.5 -58.5t31.5 -50.5t48.5 -35.5t66.5 -13.5q64 0 106.5 36t42.5 104q0 56 -34 92t-119 57q-102 25 -155 73.5t-53 137.5q0 46 18 81.5t48 59.5t68.5 36t79.5 12q97 0 152.5 -54.5t57.5 -158.5z" />
<glyph unicode="T" horiz-adv-x="549" d="M238 0v657h-205v70h483v-70h-204v-657h-74z" />
<glyph unicode="U" horiz-adv-x="614" d="M476 727h70v-468q0 -77 -15.5 -129t-45.5 -84.5t-73.5 -46.5t-100.5 -14q-58 0 -103.5 14t-76.5 46t-47 83.5t-16 126.5v472h69v-476q0 -56 11.5 -93.5t33.5 -60.5t54.5 -33t74.5 -10q40 0 71 10t52 33t31.5 61t10.5 95v474z" />
<glyph unicode="V" horiz-adv-x="600" d="M255 0l-238 727h76l206 -622h4l203 622h77l-238 -727h-90z" />
<glyph unicode="W" horiz-adv-x="882" d="M590 0l-144 582h-4l-153 -582h-94l-176 727h79l144 -618h4l159 618h77l153 -618h4l145 618h79l-179 -727h-94z" />
<glyph unicode="X" horiz-adv-x="589" d="M480 0l-187 304l-187 -304h-83l231 365l-231 362h86l188 -304l189 304h79l-229 -363l229 -364h-85z" />
<glyph unicode="Y" d="M249 0v293l-234 434h79l193 -357l192 357h78l-232 -433v-294h-76z" />
<glyph unicode="Z" horiz-adv-x="584" d="M53 0v73l388 582v4h-388v68h478v-64l-388 -590v-4h389v-69h-479z" />
<glyph unicode="[" horiz-adv-x="345" d="M114 -181v937h195v-56h-142v-825h142v-56h-195z" />
<glyph unicode="\" horiz-adv-x="406" d="M323 -97l-300 853h60l299 -853h-59z" />
<glyph unicode="]" horiz-adv-x="345" d="M36 -181v56h142v825h-142v56h195v-937h-195z" />
<glyph unicode="^" horiz-adv-x="560" d="M447 215l-167 439l-167 -439h-62l197 512h64l198 -512h-63z" />
<glyph unicode="_" horiz-adv-x="578" d="M11 -78v61h556v-61h-556z" />
<glyph unicode="`" horiz-adv-x="348" d="M52 755l32 48l213 -182l-25 -37z" />
<glyph unicode="a" horiz-adv-x="600" d="M17 0zM506 0l-50 150h-314l-49 -150h-76l238 727h90l238 -727h-77zM301 622h-4l-133 -405h270z" />
<glyph unicode="b" horiz-adv-x="573" d="M72 0zM72 0v727h252q38 0 72.5 -12t60.5 -36t41 -60.5t15 -84.5q0 -49 -22 -89t-64 -58q21 -7 40.5 -20.5t34.5 -34.5t24 -50t9 -68q0 -103 -59 -158.5t-173 -55.5h-231zM313 68q69 0 108 38t39 107q0 63 -36 98t-91 35h-191v-278h171zM331 410q25 0 46 9.5t36 26 t23 38.5t8 46q0 32 -10 56t-27 40t-39 24t-47 8h-179v-248h189z" />
<glyph unicode="c" horiz-adv-x="640" d="M62 0zM590 228q-5 -54 -24.5 -98.5t-51.5 -76.5t-74.5 -50t-92.5 -18q-63 0 -115 22t-90 68t-59 117.5t-21 171.5q0 99 21 170.5t59 117.5t90 68t115 22q50 0 92.5 -17.5t74.5 -49.5t52 -76.5t25 -98.5l-69 -7q-11 87 -58.5 130.5t-121.5 43.5q-47 0 -85 -17.5t-66 -54.5 t-43 -94.5t-15 -136.5q0 -80 15 -137.5t43 -94.5t66 -54.5t85 -17.5q72 0 120 45t59 130z" />
<glyph unicode="d" horiz-adv-x="649" d="M72 0zM72 0v727h229q85 0 141.5 -28t90.5 -76.5t48 -115t14 -143.5q0 -78 -14 -144.5t-48 -115t-90.5 -76.5t-141.5 -28h-229zM297 69q63 0 106.5 19t70.5 56.5t38.5 92.5t11.5 127q0 71 -11.5 126t-38.5 92t-70.5 56t-106.5 19h-155v-588h155z" />
<glyph unicode="e" horiz-adv-x="516" d="M72 0zM72 0v727h376v-70h-306v-249h302v-69h-302v-270h306v-69h-376z" />
<glyph unicode="f" horiz-adv-x="489" d="M72 0zM72 0v727h381v-70h-311v-249h302v-69h-302v-339h-70z" />
<glyph unicode="g" horiz-adv-x="667" d="M62 0zM369 310v70h248q1 -11 1.5 -28t0.5 -35q0 -62 -14.5 -121.5t-47 -106t-85 -75.5t-129.5 -29q-58 0 -109 22t-89.5 68t-60.5 117.5t-22 171.5q0 99 22.5 170.5t62 117.5t93.5 68t117 22q45 0 85.5 -14.5t73 -41t55 -63t32.5 -81.5l-67 -12q-19 65 -69 103t-115 38 q-47 0 -87.5 -18t-70 -55.5t-46.5 -95.5t-17 -138q0 -81 16.5 -139.5t45.5 -96t68 -55t84 -17.5q60 0 99 19.5t62 53.5t32 80.5t9 100.5h-178z" />
<glyph unicode="h" horiz-adv-x="649" d="M72 0zM508 0v339h-366v-339h-70v727h70v-319h366v319h69v-727h-69z" />
<glyph unicode="i" horiz-adv-x="221" d="M76 0zM76 0v727h70v-727h-70z" />
<glyph unicode="j" horiz-adv-x="518" d="M27 0zM380 727h70v-478q0 -57 -14.5 -105.5t-43.5 -84t-74.5 -55t-106.5 -19.5q-53 0 -101.5 19.5t-82.5 62.5l47 55q25 -38 61 -53.5t77 -15.5q85 0 126.5 52t41.5 149v473z" />
<glyph unicode="k" horiz-adv-x="589" d="M72 0zM481 0l-327 352h-12v-352h-70v727h70v-316h9l321 316h91l-349 -338l361 -389h-94z" />
<glyph unicode="l" horiz-adv-x="542" d="M72 0zM72 0v727h70v-658h370v-69h-440z" />
<glyph unicode="m" horiz-adv-x="721" d="M72 0zM580 0v587h-4l-186 -411h-61l-184 411h-4v-587h-69v727h93l195 -447h4l197 447h88v-727h-69z" />
<glyph unicode="n" horiz-adv-x="650" d="M72 0zM510 0l-366 604h-4v-604h-68v727h84l350 -588h4v588h68v-727h-68z" />
<glyph unicode="o" horiz-adv-x="683" d="M62 0zM347 -15q-61 0 -113 26t-90.5 75t-60 119t-21.5 159q0 88 21.5 158t60 119t90.5 75t113 26q60 0 110.5 -26.5t86.5 -76t56.5 -119t20.5 -156.5t-20.5 -157t-56.5 -119.5t-86.5 -76t-110.5 -26.5zM344 60q45 0 83 20t65.5 59t43 95.5t15.5 129.5q0 72 -15.5 128.5 t-43 95.5t-65.5 59t-83 20t-84 -20t-67.5 -58.5t-44.5 -95t-16 -129.5q0 -74 16 -130.5t44.5 -95t67.5 -58.5t84 -20z" />
<glyph unicode="p" horiz-adv-x="584" d="M72 0zM72 0v727h270q47 0 85.5 -15.5t65.5 -44t41.5 -69.5t14.5 -92q0 -54 -15.5 -95.5t-44 -69.5t-68.5 -42.5t-89 -14.5h-190v-284h-70zM336 352q67 0 105 38.5t38 112.5t-36 114.5t-102 40.5h-199v-306h194z" />
<glyph unicode="q" horiz-adv-x="683" d="M62 0zM480 -88l-43 90q-43 -17 -90 -17q-61 0 -113 26t-90.5 75t-60 119t-21.5 159q0 88 21.5 158t60 119t90.5 75t113 26q60 0 110.5 -26.5t86.5 -76t56.5 -119t20.5 -156.5q0 -114 -34 -197.5t-92 -130.5l44 -93zM310 268l60 33l92 -196q42 38 65.5 103t23.5 156 q0 72 -15.5 128.5t-43 95.5t-65.5 59t-83 20t-84 -20t-67.5 -58.5t-44.5 -95t-16 -129.5q0 -74 16 -130.5t44.5 -95t67.5 -58.5t84 -20q33 0 60 10z" />
<glyph unicode="r" horiz-adv-x="591" d="M72 0zM474 0q-6 16 -6 35v166q0 62 -33.5 88.5t-87.5 26.5h-205v-316h-70v727h252q99 0 152.5 -55t53.5 -151q0 -39 -8.5 -67.5t-22 -48.5t-31.5 -32t-36 -18q20 -5 39 -14.5t34 -26.5t24 -43t9 -63v-171q0 -10 2 -18.5t5 -18.5h-71zM340 381q24 0 46 7t38.5 23.5 t26.5 42t10 63.5q0 67 -35 103.5t-105 36.5h-179v-276h198z" />
<glyph unicode="s" horiz-adv-x="549" d="M43 0zM417 522q0 33 -8 61t-25 48.5t-43.5 32.5t-63.5 12q-31 0 -57.5 -8.5t-46 -24.5t-31 -39.5t-11.5 -52.5q0 -27 8 -48.5t26.5 -38.5t49.5 -30.5t76 -24.5q109 -26 157 -79t48 -140q0 -49 -16.5 -87t-46 -64.5t-69.5 -40t-87 -13.5q-46 0 -86.5 14t-71.5 41t-51 65.5 t-25 87.5l70 18q3 -30 14.5 -58.5t31.5 -50.5t48.5 -35.5t66.5 -13.5q64 0 106.5 36t42.5 104q0 56 -34 92t-119 57q-102 25 -155 73.5t-53 137.5q0 46 18 81.5t48 59.5t68.5 36t79.5 12q97 0 152.5 -54.5t57.5 -158.5z" />
<glyph unicode="t" horiz-adv-x="549" d="M33 0zM238 0v657h-205v70h483v-70h-204v-657h-74z" />
<glyph unicode="u" horiz-adv-x="614" d="M68 0zM476 727h70v-468q0 -77 -15.5 -129t-45.5 -84.5t-73.5 -46.5t-100.5 -14q-58 0 -103.5 14t-76.5 46t-47 83.5t-16 126.5v472h69v-476q0 -56 11.5 -93.5t33.5 -60.5t54.5 -33t74.5 -10q40 0 71 10t52 33t31.5 61t10.5 95v474z" />
<glyph unicode="v" horiz-adv-x="600" d="M17 0zM255 0l-238 727h76l206 -622h4l203 622h77l-238 -727h-90z" />
<glyph unicode="w" horiz-adv-x="882" d="M19 0zM590 0l-144 582h-4l-153 -582h-94l-176 727h79l144 -618h4l159 618h77l153 -618h4l145 618h79l-179 -727h-94z" />
<glyph unicode="x" horiz-adv-x="589" d="M23 0zM480 0l-187 304l-187 -304h-83l231 365l-231 362h86l188 -304l189 304h79l-229 -363l229 -364h-85z" />
<glyph unicode="y" d="M15 0zM249 0v293l-234 434h79l193 -357l192 357h78l-232 -433v-294h-76z" />
<glyph unicode="z" horiz-adv-x="584" d="M53 0zM53 0v73l388 582v4h-388v68h478v-64l-388 -590v-4h389v-69h-479z" />
<glyph unicode="{" horiz-adv-x="408" d="M328 -180q-78 0 -112 38t-34 116v151q0 72 -28 102.5t-99 32.5v56q71 2 99 32.5t28 102.5v151q0 79 34 116.5t112 37.5h56v-53h-46q-49 0 -71 -24.5t-22 -79.5v-158q0 -57 -18.5 -95t-67.5 -58q49 -21 67.5 -59t18.5 -94v-158q0 -55 22 -79.5t71 -24.5h46v-53h-56z" />
<glyph unicode="|" horiz-adv-x="271" d="M109 -181v937h52v-937h-52z" />
<glyph unicode="}" horiz-adv-x="408" d="M24 -180v53h46q48 0 70.5 24.5t22.5 79.5v158q0 56 18 94t67 59q-49 20 -67 58t-18 95v158q0 55 -22.5 79.5t-70.5 24.5h-46v53h56q78 0 111.5 -37.5t33.5 -116.5v-151q0 -72 28.5 -102.5t99.5 -32.5v-56q-71 -2 -99.5 -32.5t-28.5 -102.5v-151q0 -78 -33.5 -116 t-111.5 -38h-56z" />
<glyph unicode="~" d="M530 370q-26 -42 -59.5 -64.5t-78.5 -22.5q-39 0 -65.5 14.5t-50.5 31.5t-49.5 31.5t-62.5 14.5q-27 0 -47.5 -15.5t-39.5 -45.5l-43 32q51 84 136 84q41 0 69.5 -14.5t52 -32t46.5 -32t54 -14.5q32 0 54 17t40 48z" />
<glyph unicode="&#xa1;" horiz-adv-x="233" d="M137 513l19 -217v-296h-79v296l19 217h41zM152 727v-132h-71v132h71z" />
<glyph unicode="&#xa2;" horiz-adv-x="543" d="M251 0v85q-90 10 -145.5 80.5t-55.5 198.5q0 65 14.5 115t41 84.5t63.5 54.5t82 25v84h63v-83q73 -7 120 -52t61 -122l-68 -7q-31 118 -143 118q-73 0 -118 -54t-45 -163q0 -108 45 -162.5t118 -54.5q54 0 90.5 30t52.5 89l68 -7q-14 -78 -61.5 -123.5t-119.5 -51.5v-84 h-63z" />
<glyph unicode="&#xa3;" horiz-adv-x="547" d="M49 0v69q36 3 61 17t40.5 35t23 47.5t7.5 54.5q0 33 -6 60h-102v65h82q-10 23 -21 44.5t-20.5 45t-16 51.5t-6.5 64t13.5 70.5t41 60.5t68.5 42t96 16q65 0 113 -33t65 -82l-56 -43q-15 37 -47.5 61.5t-81.5 24.5q-33 0 -59 -10t-43.5 -27t-26.5 -40t-9 -49 q0 -34 7 -58.5t17.5 -46t22 -43t21.5 -48.5h196v-65h-181q2 -14 3 -29.5t1 -32.5q0 -49 -19 -88.5t-48 -59.5l1 -4h311v-69h-448z" />
<glyph unicode="&#xa4;" horiz-adv-x="556" d="M481 106l-92 92q-45 -40 -110 -40q-67 0 -113 41l-92 -93l-40 40l95 95q-31 48 -31 118t31 118l-95 95l40 40l91 -93q48 42 114 42q64 0 111 -41l91 92l40 -40l-96 -95q14 -23 22 -53t8 -65q0 -36 -8 -65t-22 -52l96 -96zM277 208q26 0 48.5 9.5t39.5 28.5t27 47.5 t10 65.5q0 75 -36.5 113t-88.5 38t-88 -38t-36 -113t36 -113t88 -38z" />
<glyph unicode="&#xa5;" horiz-adv-x="634" d="M356 93v-93h-76v93h-188v58h188v130h-188v58h188v48l-233 340h87l184 -277l185 277h86l-233 -340v-48h182v-58h-182v-130h182v-58h-182z" />
<glyph unicode="&#xa6;" horiz-adv-x="271" d="M109 407v349h52v-349h-52zM109 -181v349h52v-349h-52z" />
<glyph unicode="&#xa7;" horiz-adv-x="583" d="M106 25q3 -29 15 -55.5t32 -47.5t48.5 -33.5t66.5 -12.5q32 0 59.5 8.5t47.5 25.5t31.5 41.5t11.5 56.5q0 52 -34 86.5t-120 54.5q-51 12 -90.5 28.5t-65.5 40t-39.5 55.5t-13.5 75q0 44 17.5 76t47.5 55q-18 36 -18 85q0 44 18 77t48 55.5t69 34t80 11.5q97 0 153 -51.5 t58 -149.5l-69 -7q0 31 -8 58t-25.5 46.5t-44 30.5t-63.5 11q-31 0 -57.5 -8t-46.5 -23.5t-31.5 -37.5t-11.5 -49q0 -25 8 -45.5t27 -36.5t50 -29t76 -23q110 -25 158 -74.5t48 -132.5q0 -45 -15.5 -79.5t-44.5 -59.5q13 -33 13 -77q0 -46 -16.5 -82t-46 -60.5t-70 -37.5 t-87.5 -13t-87.5 13.5t-71.5 39t-51 61.5t-25 82zM438 142q27 33 27 82q0 53 -34 87t-120 54q-49 11 -86.5 26t-63.5 37q-17 -15 -27 -35.5t-10 -46.5q0 -25 8 -45.5t27 -36.5t50 -29t76 -23q104 -24 153 -70z" />
<glyph unicode="&#xa8;" horiz-adv-x="360" d="M248 644v132h71v-132h-71zM41 644v132h71v-132h-71z" />
<glyph unicode="&#xa9;" horiz-adv-x="826" d="M412 -10q-75 0 -141 29.5t-115 80t-77.5 118.5t-28.5 146q0 77 28.5 145t77.5 118.5t115 80t141 29.5t141 -29.5t115.5 -80t78.5 -118.5t29 -145q0 -78 -29 -146t-78.5 -118.5t-115.5 -80t-141 -29.5zM412 37q67 0 125.5 26t102 70t69 103.5t25.5 127.5q0 67 -25.5 126.5 t-69 104t-102 70t-125.5 25.5q-66 0 -124.5 -25.5t-102 -70t-69 -104t-25.5 -126.5q0 -68 25.5 -127.5t69 -103.5t102 -70t124.5 -26zM561 291q-3 -31 -14.5 -56.5t-31 -44t-45 -29t-55.5 -10.5q-38 0 -70 12.5t-55 39.5t-35.5 68t-12.5 98t12.5 98t35.5 67.5t55 39t70 12.5 q30 0 55.5 -10t45 -28.5t31.5 -44t15 -55.5l-42 -5q-7 46 -35.5 72t-72.5 26q-57 0 -92 -41t-35 -131q0 -91 35 -132t92 -41q44 0 73 26t34 73z" />
<glyph unicode="&#xaa;" horiz-adv-x="322" d="M293 395q-7 -5 -15 -8t-21 -3q-12 0 -22.5 8.5t-15.5 20.5q-12 -14 -33 -22.5t-50 -8.5q-45 0 -75.5 28.5t-30.5 84.5q0 49 29 74.5t77 25.5q23 0 43 -6t32 -16v29q0 64 -70 64q-23 0 -40.5 -13t-27.5 -32l-38 29q13 25 39 45t67 20q57 0 88 -29.5t31 -83.5v-154 q0 -17 14 -17q4 0 14 10zM211 521q-6 13 -23.5 21.5t-44.5 8.5q-30 0 -47 -15t-17 -44q0 -30 18 -46.5t47 -16.5q26 0 43 11t24 22v59z" />
<glyph unicode="&#xab;" horiz-adv-x="464" d="M27 222zM202 222l-175 162l175 163l31 -29l-131 -134l131 -134zM404 222l-175 162l175 163l31 -29l-131 -134l131 -134z" />
<glyph unicode="&#xac;" horiz-adv-x="547" d="M443 0v336h-401v61h462v-397h-61z" />
<glyph unicode="&#xae;" horiz-adv-x="826" d="M412 -10q-75 0 -141 29.5t-115 80t-77.5 118.5t-28.5 146q0 77 28.5 145t77.5 118.5t115 80t141 29.5t141 -29.5t115.5 -80t78.5 -118.5t29 -145q0 -78 -29 -146t-78.5 -118.5t-115.5 -80t-141 -29.5zM412 37q67 0 125.5 26t102 70t69 103.5t25.5 127.5q0 67 -25.5 126.5 t-69 104t-102 70t-125.5 25.5q-66 0 -124.5 -25.5t-102 -70t-69 -104t-25.5 -126.5q0 -68 25.5 -127.5t69 -103.5t102 -70t124.5 -26zM521 160q-5 7 -5 26v89q0 35 -23.5 50t-55.5 15h-118v-180h-42v417h152q60 0 92.5 -32.5t32.5 -86.5q0 -42 -17.5 -64t-44.5 -30 q28 -6 47.5 -25.5t19.5 -59.5v-93q0 -16 5 -26h-43zM432 380q35 0 57.5 18t22.5 58q0 36 -21 57.5t-64 21.5h-108v-155h113z" />
<glyph unicode="&#xaf;" horiz-adv-x="376" d="M52 717v44h272v-44h-272z" />
<glyph unicode="&#xb0;" horiz-adv-x="429" d="M215 428q-30 0 -57 12t-46.5 33t-31 49t-11.5 60t11.5 60t31 49t46.5 33.5t57 12.5t56.5 -12.5t46.5 -33.5t31.5 -49t11.5 -60t-11.5 -60t-31.5 -49t-46.5 -33t-56.5 -12zM215 470q21 0 40 9t33 24t22 35t8 43q0 24 -8 44.5t-22 35.5t-33 23.5t-40 8.5t-40 -9t-33 -24 t-22 -35.5t-8 -43.5t8 -43t22 -35t33 -24t40 -9z" />
<glyph unicode="&#xb1;" d="M42 0zM255 115v213h-213v61h213v213h61v-213h213v-61h-213v-213h-61zM42 -72v61h487v-61h-487z" />
<glyph unicode="&#xb2;" horiz-adv-x="332" d="M43 339zM45 339v43q0 42 6 72t20 51.5t36.5 35.5t54.5 23q40 11 57 27.5t17 46.5q0 33 -16 47t-52 14q-32 0 -52.5 -16.5t-34.5 -47.5l-38 33q18 39 48 60.5t80 21.5q23 0 43.5 -7t36.5 -20.5t25 -35t9 -49.5q0 -46 -23 -72t-79 -45q-27 -9 -44 -19t-26 -24.5t-12 -36 t-3 -53.5h185v-49h-238z" />
<glyph unicode="&#xb3;" horiz-adv-x="341" d="M37 331zM70 429q37 -49 84 -49q39 0 64 25t25 70q0 16 -6 31.5t-16.5 27.5t-25.5 19.5t-33 7.5q-6 0 -15.5 -1t-20.5 -3l-10 33l93 103h-154v49h214v-49l-82 -93q23 -1 43 -11t34.5 -26.5t22.5 -38.5t8 -46q0 -72 -39.5 -109.5t-104.5 -37.5q-32 0 -62.5 15t-51.5 45z " />
<glyph unicode="&#xb4;" horiz-adv-x="348" d="M76 584l-24 37l213 182l32 -48z" />
<glyph unicode="&#xb6;" horiz-adv-x="721" d="M570 -179v836h-161v-836h-70v455h-75q-49 0 -89.5 15t-69.5 43.5t-45 70.5t-16 97q0 52 15 93.5t42.5 71t66 45t86.5 15.5h386v-906h-70zM339 657h-84q-67 0 -104.5 -41t-37.5 -117q0 -75 39 -114t108 -39h79v311z" />
<glyph unicode="&#xb7;" horiz-adv-x="221" d="M75 304zM75 304v132h70v-132h-70z" />
<glyph unicode="&#xb8;" horiz-adv-x="188" d="M60 -236l24 83l-1 4h-25v123h71v-123l-28 -87h-41z" />
<glyph unicode="&#xb9;" horiz-adv-x="194" d="M35 339zM88 339v310h-53v46h35q20 0 20 24v23h47v-403h-49z" />
<glyph unicode="&#xba;" horiz-adv-x="337" d="M169 382q-54 0 -89.5 44t-35.5 123q0 78 35.5 122t89.5 44t87.5 -45t33.5 -121q0 -78 -33.5 -122.5t-87.5 -44.5zM168 432q33 0 54.5 30t21.5 87q0 55 -21.5 85t-54.5 30t-55 -30t-22 -85q0 -57 22 -87t55 -30z" />
<glyph unicode="&#xbb;" horiz-adv-x="464" d="M27 222zM58 222l-31 28l132 134l-132 134l31 29l175 -163zM260 222l-31 28l132 134l-132 134l31 29l175 -163z" />
<glyph unicode="&#xbc;" horiz-adv-x="859" d="M79 0zM179 339v310h-53v46h35q20 0 20 24v23h47v-403h-49zM79 0l559 727h63l-560 -727h-62zM687 -10v87h-176v43l107 273h53l-105 -269h121v144h49v-144h45v-47h-45v-87h-49z" />
<glyph unicode="&#xbd;" horiz-adv-x="847" d="M79 0zM179 339v310h-53v46h35q20 0 20 24v23h47v-403h-49zM79 0l559 727h63l-560 -727h-62zM529 -10v43q0 42 6 72t20 51.5t36.5 35.5t54.5 23q40 11 57 27.5t17 46.5q0 33 -16 47t-52 14q-32 0 -52.5 -16.5t-34.5 -47.5l-38 33q18 39 48 60.5t80 21.5q23 0 43.5 -7 t36.5 -20.5t25 -35t9 -49.5q0 -46 -23 -72t-79 -45q-27 -9 -44 -19t-26 -24.5t-12 -36t-3 -53.5h185v-49h-238z" />
<glyph unicode="&#xbe;" horiz-adv-x="937" d="M79 0zM112 429q37 -49 84 -49q39 0 64 25t25 70q0 16 -6 31.5t-16.5 27.5t-25.5 19.5t-33 7.5q-6 0 -15.5 -1t-20.5 -3l-10 33l93 103h-154v49h214v-49l-82 -93q23 -1 43 -11t34.5 -26.5t22.5 -38.5t8 -46q0 -72 -39.5 -109.5t-104.5 -37.5q-32 0 -62.5 15t-51.5 45z M157 0l559 727h63l-560 -727h-62zM765 -10v87h-176v43l107 273h53l-105 -269h121v144h49v-144h45v-47h-45v-87h-49z" />
<glyph unicode="&#xbf;" horiz-adv-x="477" d="M292 524v-21q0 -33 -4.5 -59.5t-15 -49t-29 -42.5t-45.5 -40q-21 -16 -36.5 -30t-25 -29t-14 -32.5t-4.5 -39.5q0 -30 11.5 -53.5t30.5 -39.5t43 -24t49 -8q28 0 50 8t39.5 21.5t29.5 31.5t20 37l59 -39q-11 -26 -28 -49.5t-42 -41.5t-57.5 -28.5t-74.5 -10.5 q-37 0 -73.5 10.5t-65.5 34t-47 59.5t-18 87q0 31 8.5 56t22.5 47t33.5 41.5t41.5 38.5q24 20 37.5 36t21 34t10 40t3.5 55h70zM293 727v-132h-71v132h71z" />
<glyph unicode="&#xc0;" horiz-adv-x="600" d="M17 0zM506 0l-50 150h-314l-49 -150h-76l238 727h90l238 -727h-77zM301 622h-4l-133 -405h270zM147 916l32 48l213 -182l-25 -37z" />
<glyph unicode="&#xc1;" horiz-adv-x="600" d="M17 0zM506 0l-50 150h-314l-49 -150h-76l238 727h90l238 -727h-77zM301 622h-4l-133 -405h270zM231 745l-24 37l213 182l32 -48z" />
<glyph unicode="&#xc2;" horiz-adv-x="600" d="M17 0zM506 0l-50 150h-314l-49 -150h-76l238 727h90l238 -727h-77zM301 622h-4l-133 -405h270zM299 881l-126 -125l-25 28l151 164l153 -164l-26 -28z" />
<glyph unicode="&#xc3;" horiz-adv-x="600" d="M17 0zM506 0l-50 150h-314l-49 -150h-76l238 727h90l238 -727h-77zM301 622h-4l-133 -405h270zM511 893q-19 -43 -50.5 -65.5t-69.5 -22.5q-32 0 -55 14t-43.5 30.5t-41 30.5t-46.5 14q-29 0 -47.5 -20t-35.5 -50l-33 29q17 40 46.5 63t67.5 23q34 0 58 -14t44.5 -30.5 t40.5 -30t47 -13.5q29 0 48 20t36 52z" />
<glyph unicode="&#xc4;" horiz-adv-x="600" d="M17 0zM506 0l-50 150h-314l-49 -150h-76l238 727h90l238 -727h-77zM301 622h-4l-133 -405h270zM368 805v132h71v-132h-71zM161 805v132h71v-132h-71z" />
<glyph unicode="&#xc5;" horiz-adv-x="600" d="M17 0zM506 0l-50 150h-314l-49 -150h-76l238 727h90l238 -727h-77zM301 622h-4l-133 -405h270zM300 745q-45 0 -74.5 32t-29.5 79q0 22 8 41.5t22 34.5t33 23.5t41 8.5q21 0 39.5 -8.5t33 -23.5t23 -34.5t8.5 -41.5q0 -23 -8.5 -43t-23 -35t-33 -24t-39.5 -9zM300 783 q26 0 45.5 21t19.5 52q0 28 -19.5 48.5t-45.5 20.5q-28 0 -47 -20.5t-19 -48.5q0 -31 19 -52t47 -21z" />
<glyph unicode="&#xc6;" horiz-adv-x="847" d="M456 0l-23 150h-295l-48 -150h-73l238 727h524v-70h-354l39 -249h311v-69h-300l42 -270h262v-69h-323zM354 657h-52l-142 -440h262z" />
<glyph unicode="&#xc7;" horiz-adv-x="640" d="M62 0zM590 228q-5 -54 -24.5 -98.5t-51.5 -76.5t-74.5 -50t-92.5 -18q-63 0 -115 22t-90 68t-59 117.5t-21 171.5q0 99 21 170.5t59 117.5t90 68t115 22q50 0 92.5 -17.5t74.5 -49.5t52 -76.5t25 -98.5l-69 -7q-11 87 -58.5 130.5t-121.5 43.5q-47 0 -85 -17.5t-66 -54.5 t-43 -94.5t-15 -136.5q0 -80 15 -137.5t43 -94.5t66 -54.5t85 -17.5q72 0 120 45t59 130zM316 -236l24 83l-1 4h-25v123h71v-123l-28 -87h-41z" />
<glyph unicode="&#xc8;" horiz-adv-x="516" d="M72 0zM72 0v727h376v-70h-306v-249h302v-69h-302v-270h306v-69h-376zM115 916l32 48l213 -182l-25 -37z" />
<glyph unicode="&#xc9;" horiz-adv-x="516" d="M72 0zM72 0v727h376v-70h-306v-249h302v-69h-302v-270h306v-69h-376zM199 745l-24 37l213 182l32 -48z" />
<glyph unicode="&#xca;" horiz-adv-x="516" d="M72 0zM72 0v727h376v-70h-306v-249h302v-69h-302v-270h306v-69h-376zM267 881l-126 -125l-25 28l151 164l153 -164l-26 -28z" />
<glyph unicode="&#xcb;" horiz-adv-x="516" d="M72 0zM72 0v727h376v-70h-306v-249h302v-69h-302v-270h306v-69h-376zM336 805v132h71v-132h-71zM129 805v132h71v-132h-71z" />
<glyph unicode="&#xcc;" horiz-adv-x="221" d="M0 0zM76 0v727h70v-727h-70zM-42 916l32 48l213 -182l-25 -37z" />
<glyph unicode="&#xcd;" horiz-adv-x="221" d="M18 0zM76 0v727h70v-727h-70zM42 745l-24 37l213 182l32 -48z" />
<glyph unicode="&#xce;" horiz-adv-x="221" d="M0 0zM76 0v727h70v-727h-70zM110 881l-126 -125l-25 28l151 164l153 -164l-26 -28z" />
<glyph unicode="&#xcf;" horiz-adv-x="221" d="M0 0zM76 0v727h70v-727h-70zM179 805v132h71v-132h-71zM-28 805v132h71v-132h-71z" />
<glyph unicode="&#xd0;" horiz-adv-x="646" d="M69 0v339h-58v69h58v319h229q85 0 141.5 -28t90.5 -76.5t48 -115t14 -143.5q0 -78 -14 -144.5t-48 -115t-90.5 -76.5t-141.5 -28h-229zM294 69q63 0 106.5 19t70.5 56.5t38.5 92.5t11.5 127q0 71 -11.5 126t-38.5 92t-70.5 56t-106.5 19h-155v-249h227v-69h-227v-270h155 z" />
<glyph unicode="&#xd1;" horiz-adv-x="650" d="M72 0zM510 0l-366 604h-4v-604h-68v727h84l350 -588h4v588h68v-727h-68zM536 893q-19 -43 -50.5 -65.5t-69.5 -22.5q-32 0 -55 14t-43.5 30.5t-41 30.5t-46.5 14q-29 0 -47.5 -20t-35.5 -50l-33 29q17 40 46.5 63t67.5 23q34 0 58 -14t44.5 -30.5t40.5 -30t47 -13.5 q29 0 48 20t36 52z" />
<glyph unicode="&#xd2;" horiz-adv-x="683" d="M62 0zM347 -15q-61 0 -113 26t-90.5 75t-60 119t-21.5 159q0 88 21.5 158t60 119t90.5 75t113 26q60 0 110.5 -26.5t86.5 -76t56.5 -119t20.5 -156.5t-20.5 -157t-56.5 -119.5t-86.5 -76t-110.5 -26.5zM344 60q45 0 83 20t65.5 59t43 95.5t15.5 129.5q0 72 -15.5 128.5 t-43 95.5t-65.5 59t-83 20t-84 -20t-67.5 -58.5t-44.5 -95t-16 -129.5q0 -74 16 -130.5t44.5 -95t67.5 -58.5t84 -20zM189 916l32 48l213 -182l-25 -37z" />
<glyph unicode="&#xd3;" horiz-adv-x="683" d="M62 0zM347 -15q-61 0 -113 26t-90.5 75t-60 119t-21.5 159q0 88 21.5 158t60 119t90.5 75t113 26q60 0 110.5 -26.5t86.5 -76t56.5 -119t20.5 -156.5t-20.5 -157t-56.5 -119.5t-86.5 -76t-110.5 -26.5zM344 60q45 0 83 20t65.5 59t43 95.5t15.5 129.5q0 72 -15.5 128.5 t-43 95.5t-65.5 59t-83 20t-84 -20t-67.5 -58.5t-44.5 -95t-16 -129.5q0 -74 16 -130.5t44.5 -95t67.5 -58.5t84 -20zM273 745l-24 37l213 182l32 -48z" />
<glyph unicode="&#xd4;" horiz-adv-x="683" d="M62 0zM347 -15q-61 0 -113 26t-90.5 75t-60 119t-21.5 159q0 88 21.5 158t60 119t90.5 75t113 26q60 0 110.5 -26.5t86.5 -76t56.5 -119t20.5 -156.5t-20.5 -157t-56.5 -119.5t-86.5 -76t-110.5 -26.5zM344 60q45 0 83 20t65.5 59t43 95.5t15.5 129.5q0 72 -15.5 128.5 t-43 95.5t-65.5 59t-83 20t-84 -20t-67.5 -58.5t-44.5 -95t-16 -129.5q0 -74 16 -130.5t44.5 -95t67.5 -58.5t84 -20zM340 881l-126 -125l-25 28l151 164l153 -164l-26 -28z" />
<glyph unicode="&#xd5;" horiz-adv-x="683" d="M62 0zM347 -15q-61 0 -113 26t-90.5 75t-60 119t-21.5 159q0 88 21.5 158t60 119t90.5 75t113 26q60 0 110.5 -26.5t86.5 -76t56.5 -119t20.5 -156.5t-20.5 -157t-56.5 -119.5t-86.5 -76t-110.5 -26.5zM344 60q45 0 83 20t65.5 59t43 95.5t15.5 129.5q0 72 -15.5 128.5 t-43 95.5t-65.5 59t-83 20t-84 -20t-67.5 -58.5t-44.5 -95t-16 -129.5q0 -74 16 -130.5t44.5 -95t67.5 -58.5t84 -20zM552 893q-19 -43 -50.5 -65.5t-69.5 -22.5q-32 0 -55 14t-43.5 30.5t-41 30.5t-46.5 14q-29 0 -47.5 -20t-35.5 -50l-33 29q17 40 46.5 63t67.5 23 q34 0 58 -14t44.5 -30.5t40.5 -30t47 -13.5q29 0 48 20t36 52z" />
<glyph unicode="&#xd6;" horiz-adv-x="683" d="M62 0zM347 -15q-61 0 -113 26t-90.5 75t-60 119t-21.5 159q0 88 21.5 158t60 119t90.5 75t113 26q60 0 110.5 -26.5t86.5 -76t56.5 -119t20.5 -156.5t-20.5 -157t-56.5 -119.5t-86.5 -76t-110.5 -26.5zM344 60q45 0 83 20t65.5 59t43 95.5t15.5 129.5q0 72 -15.5 128.5 t-43 95.5t-65.5 59t-83 20t-84 -20t-67.5 -58.5t-44.5 -95t-16 -129.5q0 -74 16 -130.5t44.5 -95t67.5 -58.5t84 -20zM409 805v132h71v-132h-71zM202 805v132h71v-132h-71z" />
<glyph unicode="&#xd7;" horiz-adv-x="558" d="M279 315l-151 -150l-43 43l151 150l-151 151l43 43l151 -151l151 151l42 -43l-150 -151l150 -150l-42 -43z" />
<glyph unicode="&#xd8;" horiz-adv-x="683" d="M85 -51l67 126q-42 49 -66 122t-24 167q0 88 21.5 158t60 119t90.5 75t113 26q77 0 139 -45l43 81h69l-67 -123q42 -50 66 -123.5t24 -167.5q0 -87 -20.5 -157t-56.5 -119.5t-86.5 -76t-110.5 -26.5q-85 0 -151 49l-45 -85h-66zM231 98q50 -38 113 -38q45 0 83 20 t65.5 59t43 95.5t15.5 129.5q0 72 -15 127.5t-42 93.5zM450 631q-45 36 -106 36q-45 0 -84 -20t-67.5 -58.5t-44.5 -95t-16 -129.5q0 -72 15.5 -127t41.5 -93z" />
<glyph unicode="&#xd9;" horiz-adv-x="614" d="M68 0zM476 727h70v-468q0 -77 -15.5 -129t-45.5 -84.5t-73.5 -46.5t-100.5 -14q-58 0 -103.5 14t-76.5 46t-47 83.5t-16 126.5v472h69v-476q0 -56 11.5 -93.5t33.5 -60.5t54.5 -33t74.5 -10q40 0 71 10t52 33t31.5 61t10.5 95v474zM154 916l32 48l213 -182l-25 -37z" />
<glyph unicode="&#xda;" horiz-adv-x="614" d="M68 0zM476 727h70v-468q0 -77 -15.5 -129t-45.5 -84.5t-73.5 -46.5t-100.5 -14q-58 0 -103.5 14t-76.5 46t-47 83.5t-16 126.5v472h69v-476q0 -56 11.5 -93.5t33.5 -60.5t54.5 -33t74.5 -10q40 0 71 10t52 33t31.5 61t10.5 95v474zM238 745l-24 37l213 182l32 -48z" />
<glyph unicode="&#xdb;" horiz-adv-x="614" d="M68 0zM476 727h70v-468q0 -77 -15.5 -129t-45.5 -84.5t-73.5 -46.5t-100.5 -14q-58 0 -103.5 14t-76.5 46t-47 83.5t-16 126.5v472h69v-476q0 -56 11.5 -93.5t33.5 -60.5t54.5 -33t74.5 -10q40 0 71 10t52 33t31.5 61t10.5 95v474zM306 881l-126 -125l-25 28l151 164 l153 -164l-26 -28z" />
<glyph unicode="&#xdc;" horiz-adv-x="614" d="M68 0zM476 727h70v-468q0 -77 -15.5 -129t-45.5 -84.5t-73.5 -46.5t-100.5 -14q-58 0 -103.5 14t-76.5 46t-47 83.5t-16 126.5v472h69v-476q0 -56 11.5 -93.5t33.5 -60.5t54.5 -33t74.5 -10q40 0 71 10t52 33t31.5 61t10.5 95v474zM375 805v132h71v-132h-71zM168 805v132 h71v-132h-71z" />
<glyph unicode="&#xdd;" d="M15 0zM249 0v293l-234 434h79l193 -357l192 357h78l-232 -433v-294h-76zM217 745l-24 37l213 182l32 -48z" />
<glyph unicode="&#xde;" horiz-adv-x="584" d="M142 137v-137h-70v727h70v-140h197q48 0 86.5 -15.5t66 -44.5t42.5 -70.5t15 -93.5q0 -55 -16 -97t-45 -70.5t-70 -43.5t-90 -15h-186zM332 204q69 0 108 40.5t39 115.5t-37 117t-105 42h-195v-315h190z" />
<glyph unicode="&#xdf;" horiz-adv-x="595" d="M246 78q14 -11 37.5 -18t52.5 -7q31 0 55.5 12.5t42 35t26.5 53.5t9 68q0 78 -38.5 111t-119.5 33h-15v62h12q57 0 82 28.5t25 91.5q0 72 -36.5 107t-99.5 35q-78 0 -108 -43.5t-30 -136.5v-510h-69v538q0 113 51.5 167.5t150.5 54.5q103 0 156.5 -53t53.5 -152 q0 -60 -23.5 -97.5t-52.5 -52.5q20 -3 43 -15t42.5 -34t32.5 -55t13 -79q0 -51 -12.5 -94.5t-37 -75t-61 -49.5t-84.5 -18q-41 0 -73 9t-53 23z" />
<glyph unicode="&#xe0;" horiz-adv-x="600" d="M17 0zM506 0l-50 150h-314l-49 -150h-76l238 727h90l238 -727h-77zM301 622h-4l-133 -405h270zM147 916l32 48l213 -182l-25 -37z" />
<glyph unicode="&#xe1;" horiz-adv-x="600" d="M17 0zM506 0l-50 150h-314l-49 -150h-76l238 727h90l238 -727h-77zM301 622h-4l-133 -405h270zM231 745l-24 37l213 182l32 -48z" />
<glyph unicode="&#xe2;" horiz-adv-x="600" d="M17 0zM506 0l-50 150h-314l-49 -150h-76l238 727h90l238 -727h-77zM301 622h-4l-133 -405h270zM299 881l-126 -125l-25 28l151 164l153 -164l-26 -28z" />
<glyph unicode="&#xe3;" horiz-adv-x="600" d="M17 0zM506 0l-50 150h-314l-49 -150h-76l238 727h90l238 -727h-77zM301 622h-4l-133 -405h270zM511 893q-19 -43 -50.5 -65.5t-69.5 -22.5q-32 0 -55 14t-43.5 30.5t-41 30.5t-46.5 14q-29 0 -47.5 -20t-35.5 -50l-33 29q17 40 46.5 63t67.5 23q34 0 58 -14t44.5 -30.5 t40.5 -30t47 -13.5q29 0 48 20t36 52z" />
<glyph unicode="&#xe4;" horiz-adv-x="600" d="M17 0zM506 0l-50 150h-314l-49 -150h-76l238 727h90l238 -727h-77zM301 622h-4l-133 -405h270zM368 805v132h71v-132h-71zM161 805v132h71v-132h-71z" />
<glyph unicode="&#xe5;" horiz-adv-x="600" d="M17 0zM506 0l-50 150h-314l-49 -150h-76l238 727h90l238 -727h-77zM301 622h-4l-133 -405h270zM300 745q-45 0 -74.5 32t-29.5 79q0 22 8 41.5t22 34.5t33 23.5t41 8.5q21 0 39.5 -8.5t33 -23.5t23 -34.5t8.5 -41.5q0 -23 -8.5 -43t-23 -35t-33 -24t-39.5 -9zM300 783 q26 0 45.5 21t19.5 52q0 28 -19.5 48.5t-45.5 20.5q-28 0 -47 -20.5t-19 -48.5q0 -31 19 -52t47 -21z" />
<glyph unicode="&#xe6;" horiz-adv-x="847" d="M17 0zM456 0l-23 150h-295l-48 -150h-73l238 727h524v-70h-354l39 -249h311v-69h-300l42 -270h262v-69h-323zM354 657h-52l-142 -440h262z" />
<glyph unicode="&#xe7;" horiz-adv-x="640" d="M62 0zM590 228q-5 -54 -24.5 -98.5t-51.5 -76.5t-74.5 -50t-92.5 -18q-63 0 -115 22t-90 68t-59 117.5t-21 171.5q0 99 21 170.5t59 117.5t90 68t115 22q50 0 92.5 -17.5t74.5 -49.5t52 -76.5t25 -98.5l-69 -7q-11 87 -58.5 130.5t-121.5 43.5q-47 0 -85 -17.5t-66 -54.5 t-43 -94.5t-15 -136.5q0 -80 15 -137.5t43 -94.5t66 -54.5t85 -17.5q72 0 120 45t59 130zM316 -236l24 83l-1 4h-25v123h71v-123l-28 -87h-41z" />
<glyph unicode="&#xe8;" horiz-adv-x="516" d="M72 0zM72 0v727h376v-70h-306v-249h302v-69h-302v-270h306v-69h-376zM115 916l32 48l213 -182l-25 -37z" />
<glyph unicode="&#xe9;" horiz-adv-x="516" d="M72 0zM72 0v727h376v-70h-306v-249h302v-69h-302v-270h306v-69h-376zM199 745l-24 37l213 182l32 -48z" />
<glyph unicode="&#xea;" horiz-adv-x="516" d="M72 0zM72 0v727h376v-70h-306v-249h302v-69h-302v-270h306v-69h-376zM267 881l-126 -125l-25 28l151 164l153 -164l-26 -28z" />
<glyph unicode="&#xeb;" horiz-adv-x="516" d="M72 0zM72 0v727h376v-70h-306v-249h302v-69h-302v-270h306v-69h-376zM336 805v132h71v-132h-71zM129 805v132h71v-132h-71z" />
<glyph unicode="&#xec;" horiz-adv-x="221" d="M0 0zM76 0v727h70v-727h-70zM-42 916l32 48l213 -182l-25 -37z" />
<glyph unicode="&#xed;" horiz-adv-x="221" d="M18 0zM76 0v727h70v-727h-70zM42 745l-24 37l213 182l32 -48z" />
<glyph unicode="&#xee;" horiz-adv-x="221" d="M0 0zM76 0v727h70v-727h-70zM110 881l-126 -125l-25 28l151 164l153 -164l-26 -28z" />
<glyph unicode="&#xef;" horiz-adv-x="221" d="M0 0zM76 0v727h70v-727h-70zM179 805v132h71v-132h-71zM-28 805v132h71v-132h-71z" />
<glyph unicode="&#xf0;" horiz-adv-x="646" d="M11 0zM69 0v339h-58v69h58v319h229q85 0 141.5 -28t90.5 -76.5t48 -115t14 -143.5q0 -78 -14 -144.5t-48 -115t-90.5 -76.5t-141.5 -28h-229zM294 69q63 0 106.5 19t70.5 56.5t38.5 92.5t11.5 127q0 71 -11.5 126t-38.5 92t-70.5 56t-106.5 19h-155v-249h227v-69h-227 v-270h155z" />
<glyph unicode="&#xf1;" horiz-adv-x="650" d="M72 0zM510 0l-366 604h-4v-604h-68v727h84l350 -588h4v588h68v-727h-68zM536 893q-19 -43 -50.5 -65.5t-69.5 -22.5q-32 0 -55 14t-43.5 30.5t-41 30.5t-46.5 14q-29 0 -47.5 -20t-35.5 -50l-33 29q17 40 46.5 63t67.5 23q34 0 58 -14t44.5 -30.5t40.5 -30t47 -13.5 q29 0 48 20t36 52z" />
<glyph unicode="&#xf2;" horiz-adv-x="683" d="M62 0zM347 -15q-61 0 -113 26t-90.5 75t-60 119t-21.5 159q0 88 21.5 158t60 119t90.5 75t113 26q60 0 110.5 -26.5t86.5 -76t56.5 -119t20.5 -156.5t-20.5 -157t-56.5 -119.5t-86.5 -76t-110.5 -26.5zM344 60q45 0 83 20t65.5 59t43 95.5t15.5 129.5q0 72 -15.5 128.5 t-43 95.5t-65.5 59t-83 20t-84 -20t-67.5 -58.5t-44.5 -95t-16 -129.5q0 -74 16 -130.5t44.5 -95t67.5 -58.5t84 -20zM189 916l32 48l213 -182l-25 -37z" />
<glyph unicode="&#xf3;" horiz-adv-x="683" d="M62 0zM347 -15q-61 0 -113 26t-90.5 75t-60 119t-21.5 159q0 88 21.5 158t60 119t90.5 75t113 26q60 0 110.5 -26.5t86.5 -76t56.5 -119t20.5 -156.5t-20.5 -157t-56.5 -119.5t-86.5 -76t-110.5 -26.5zM344 60q45 0 83 20t65.5 59t43 95.5t15.5 129.5q0 72 -15.5 128.5 t-43 95.5t-65.5 59t-83 20t-84 -20t-67.5 -58.5t-44.5 -95t-16 -129.5q0 -74 16 -130.5t44.5 -95t67.5 -58.5t84 -20zM273 745l-24 37l213 182l32 -48z" />
<glyph unicode="&#xf4;" horiz-adv-x="683" d="M62 0zM347 -15q-61 0 -113 26t-90.5 75t-60 119t-21.5 159q0 88 21.5 158t60 119t90.5 75t113 26q60 0 110.5 -26.5t86.5 -76t56.5 -119t20.5 -156.5t-20.5 -157t-56.5 -119.5t-86.5 -76t-110.5 -26.5zM344 60q45 0 83 20t65.5 59t43 95.5t15.5 129.5q0 72 -15.5 128.5 t-43 95.5t-65.5 59t-83 20t-84 -20t-67.5 -58.5t-44.5 -95t-16 -129.5q0 -74 16 -130.5t44.5 -95t67.5 -58.5t84 -20zM340 881l-126 -125l-25 28l151 164l153 -164l-26 -28z" />
<glyph unicode="&#xf5;" horiz-adv-x="683" d="M62 0zM347 -15q-61 0 -113 26t-90.5 75t-60 119t-21.5 159q0 88 21.5 158t60 119t90.5 75t113 26q60 0 110.5 -26.5t86.5 -76t56.5 -119t20.5 -156.5t-20.5 -157t-56.5 -119.5t-86.5 -76t-110.5 -26.5zM344 60q45 0 83 20t65.5 59t43 95.5t15.5 129.5q0 72 -15.5 128.5 t-43 95.5t-65.5 59t-83 20t-84 -20t-67.5 -58.5t-44.5 -95t-16 -129.5q0 -74 16 -130.5t44.5 -95t67.5 -58.5t84 -20zM552 893q-19 -43 -50.5 -65.5t-69.5 -22.5q-32 0 -55 14t-43.5 30.5t-41 30.5t-46.5 14q-29 0 -47.5 -20t-35.5 -50l-33 29q17 40 46.5 63t67.5 23 q34 0 58 -14t44.5 -30.5t40.5 -30t47 -13.5q29 0 48 20t36 52z" />
<glyph unicode="&#xf6;" horiz-adv-x="683" d="M62 0zM347 -15q-61 0 -113 26t-90.5 75t-60 119t-21.5 159q0 88 21.5 158t60 119t90.5 75t113 26q60 0 110.5 -26.5t86.5 -76t56.5 -119t20.5 -156.5t-20.5 -157t-56.5 -119.5t-86.5 -76t-110.5 -26.5zM344 60q45 0 83 20t65.5 59t43 95.5t15.5 129.5q0 72 -15.5 128.5 t-43 95.5t-65.5 59t-83 20t-84 -20t-67.5 -58.5t-44.5 -95t-16 -129.5q0 -74 16 -130.5t44.5 -95t67.5 -58.5t84 -20zM409 805v132h71v-132h-71zM202 805v132h71v-132h-71z" />
<glyph unicode="&#xf7;" d="M42 328v61h487v-61h-487zM251 489v132h70v-132h-70zM251 96v132h70v-132h-70z" />
<glyph unicode="&#xf8;" horiz-adv-x="683" d="M62 0zM85 -51l67 126q-42 49 -66 122t-24 167q0 88 21.5 158t60 119t90.5 75t113 26q77 0 139 -45l43 81h69l-67 -123q42 -50 66 -123.5t24 -167.5q0 -87 -20.5 -157t-56.5 -119.5t-86.5 -76t-110.5 -26.5q-85 0 -151 49l-45 -85h-66zM231 98q50 -38 113 -38q45 0 83 20 t65.5 59t43 95.5t15.5 129.5q0 72 -15 127.5t-42 93.5zM450 631q-45 36 -106 36q-45 0 -84 -20t-67.5 -58.5t-44.5 -95t-16 -129.5q0 -72 15.5 -127t41.5 -93z" />
<glyph unicode="&#xf9;" horiz-adv-x="614" d="M68 0zM476 727h70v-468q0 -77 -15.5 -129t-45.5 -84.5t-73.5 -46.5t-100.5 -14q-58 0 -103.5 14t-76.5 46t-47 83.5t-16 126.5v472h69v-476q0 -56 11.5 -93.5t33.5 -60.5t54.5 -33t74.5 -10q40 0 71 10t52 33t31.5 61t10.5 95v474zM154 916l32 48l213 -182l-25 -37z" />
<glyph unicode="&#xfa;" horiz-adv-x="614" d="M68 0zM476 727h70v-468q0 -77 -15.5 -129t-45.5 -84.5t-73.5 -46.5t-100.5 -14q-58 0 -103.5 14t-76.5 46t-47 83.5t-16 126.5v472h69v-476q0 -56 11.5 -93.5t33.5 -60.5t54.5 -33t74.5 -10q40 0 71 10t52 33t31.5 61t10.5 95v474zM238 745l-24 37l213 182l32 -48z" />
<glyph unicode="&#xfb;" horiz-adv-x="614" d="M68 0zM476 727h70v-468q0 -77 -15.5 -129t-45.5 -84.5t-73.5 -46.5t-100.5 -14q-58 0 -103.5 14t-76.5 46t-47 83.5t-16 126.5v472h69v-476q0 -56 11.5 -93.5t33.5 -60.5t54.5 -33t74.5 -10q40 0 71 10t52 33t31.5 61t10.5 95v474zM306 881l-126 -125l-25 28l151 164 l153 -164l-26 -28z" />
<glyph unicode="&#xfc;" horiz-adv-x="614" d="M68 0zM476 727h70v-468q0 -77 -15.5 -129t-45.5 -84.5t-73.5 -46.5t-100.5 -14q-58 0 -103.5 14t-76.5 46t-47 83.5t-16 126.5v472h69v-476q0 -56 11.5 -93.5t33.5 -60.5t54.5 -33t74.5 -10q40 0 71 10t52 33t31.5 61t10.5 95v474zM375 805v132h71v-132h-71zM168 805v132 h71v-132h-71z" />
<glyph unicode="&#xfd;" d="M15 0zM249 0v293l-234 434h79l193 -357l192 357h78l-232 -433v-294h-76zM217 745l-24 37l213 182l32 -48z" />
<glyph unicode="&#xfe;" horiz-adv-x="584" d="M72 0zM142 137v-137h-70v727h70v-140h197q48 0 86.5 -15.5t66 -44.5t42.5 -70.5t15 -93.5q0 -55 -16 -97t-45 -70.5t-70 -43.5t-90 -15h-186zM332 204q69 0 108 40.5t39 115.5t-37 117t-105 42h-195v-315h190z" />
<glyph unicode="&#xff;" d="M15 0zM249 0v293l-234 434h79l193 -357l192 357h78l-232 -433v-294h-76zM354 805v132h71v-132h-71zM147 805v132h71v-132h-71z" />
<glyph unicode="&#x100;" horiz-adv-x="600" d="M17 0zM506 0l-50 150h-314l-49 -150h-76l238 727h90l238 -727h-77zM301 622h-4l-133 -405h270zM164 878v44h272v-44h-272z" />
<glyph unicode="&#x101;" horiz-adv-x="600" d="M17 0zM506 0l-50 150h-314l-49 -150h-76l238 727h90l238 -727h-77zM301 622h-4l-133 -405h270zM164 878v44h272v-44h-272z" />
<glyph unicode="&#x102;" horiz-adv-x="600" d="M17 0zM506 0l-50 150h-314l-49 -150h-76l238 727h90l238 -727h-77zM301 622h-4l-133 -405h270zM454 952q-1 -32 -11 -63.5t-28.5 -57t-47 -41.5t-67.5 -16t-67.5 16t-47 41.5t-28.5 57t-11 63.5h41q3 -57 31.5 -96.5t81.5 -39.5q26 0 46.5 11t34.5 29.5t22 43t9 52.5h42z " />
<glyph unicode="&#x103;" horiz-adv-x="600" d="M17 0zM506 0l-50 150h-314l-49 -150h-76l238 727h90l238 -727h-77zM301 622h-4l-133 -405h270zM454 952q-1 -32 -11 -63.5t-28.5 -57t-47 -41.5t-67.5 -16t-67.5 16t-47 41.5t-28.5 57t-11 63.5h41q3 -57 31.5 -96.5t81.5 -39.5q26 0 46.5 11t34.5 29.5t22 43t9 52.5h42z " />
<glyph unicode="&#x104;" horiz-adv-x="600" d="M596 -225q-19 -7 -35 -9t-42 -2q-44 0 -73.5 25.5t-29.5 78.5q0 45 27.5 77t65.5 46l-53 159h-314l-49 -150h-76l238 727h90l238 -727q-63 -16 -90 -47.5t-27 -65.5q0 -37 21 -52.5t50 -15.5q18 0 34 2.5t33 10.5zM301 622h-4l-133 -405h270z" />
<glyph unicode="&#x105;" horiz-adv-x="600" d="M17 0zM596 -225q-19 -7 -35 -9t-42 -2q-44 0 -73.5 25.5t-29.5 78.5q0 45 27.5 77t65.5 46l-53 159h-314l-49 -150h-76l238 727h90l238 -727q-63 -16 -90 -47.5t-27 -65.5q0 -37 21 -52.5t50 -15.5q18 0 34 2.5t33 10.5zM301 622h-4l-133 -405h270z" />
<glyph unicode="&#x106;" horiz-adv-x="640" d="M62 0zM590 228q-5 -54 -24.5 -98.5t-51.5 -76.5t-74.5 -50t-92.5 -18q-63 0 -115 22t-90 68t-59 117.5t-21 171.5q0 99 21 170.5t59 117.5t90 68t115 22q50 0 92.5 -17.5t74.5 -49.5t52 -76.5t25 -98.5l-69 -7q-11 87 -58.5 130.5t-121.5 43.5q-47 0 -85 -17.5t-66 -54.5 t-43 -94.5t-15 -136.5q0 -80 15 -137.5t43 -94.5t66 -54.5t85 -17.5q72 0 120 45t59 130zM271 745l-24 37l213 182l32 -48z" />
<glyph unicode="&#x107;" horiz-adv-x="640" d="M62 0zM590 228q-5 -54 -24.5 -98.5t-51.5 -76.5t-74.5 -50t-92.5 -18q-63 0 -115 22t-90 68t-59 117.5t-21 171.5q0 99 21 170.5t59 117.5t90 68t115 22q50 0 92.5 -17.5t74.5 -49.5t52 -76.5t25 -98.5l-69 -7q-11 87 -58.5 130.5t-121.5 43.5q-47 0 -85 -17.5t-66 -54.5 t-43 -94.5t-15 -136.5q0 -80 15 -137.5t43 -94.5t66 -54.5t85 -17.5q72 0 120 45t59 130zM271 745l-24 37l213 182l32 -48z" />
<glyph unicode="&#x10a;" horiz-adv-x="640" d="M62 0zM590 228q-5 -54 -24.5 -98.5t-51.5 -76.5t-74.5 -50t-92.5 -18q-63 0 -115 22t-90 68t-59 117.5t-21 171.5q0 99 21 170.5t59 117.5t90 68t115 22q50 0 92.5 -17.5t74.5 -49.5t52 -76.5t25 -98.5l-69 -7q-11 87 -58.5 130.5t-121.5 43.5q-47 0 -85 -17.5t-66 -54.5 t-43 -94.5t-15 -136.5q0 -80 15 -137.5t43 -94.5t66 -54.5t85 -17.5q72 0 120 45t59 130zM304 805v132h71v-132h-71z" />
<glyph unicode="&#x10b;" horiz-adv-x="640" d="M62 0zM590 228q-5 -54 -24.5 -98.5t-51.5 -76.5t-74.5 -50t-92.5 -18q-63 0 -115 22t-90 68t-59 117.5t-21 171.5q0 99 21 170.5t59 117.5t90 68t115 22q50 0 92.5 -17.5t74.5 -49.5t52 -76.5t25 -98.5l-69 -7q-11 87 -58.5 130.5t-121.5 43.5q-47 0 -85 -17.5t-66 -54.5 t-43 -94.5t-15 -136.5q0 -80 15 -137.5t43 -94.5t66 -54.5t85 -17.5q72 0 120 45t59 130zM304 805v132h71v-132h-71z" />
<glyph unicode="&#x10c;" horiz-adv-x="640" d="M62 0zM590 228q-5 -54 -24.5 -98.5t-51.5 -76.5t-74.5 -50t-92.5 -18q-63 0 -115 22t-90 68t-59 117.5t-21 171.5q0 99 21 170.5t59 117.5t90 68t115 22q50 0 92.5 -17.5t74.5 -49.5t52 -76.5t25 -98.5l-69 -7q-11 87 -58.5 130.5t-121.5 43.5q-47 0 -85 -17.5t-66 -54.5 t-43 -94.5t-15 -136.5q0 -80 15 -137.5t43 -94.5t66 -54.5t85 -17.5q72 0 120 45t59 130zM188 920l25 28l127 -125l126 125l26 -28l-152 -164z" />
<glyph unicode="&#x10d;" horiz-adv-x="640" d="M62 0zM590 228q-5 -54 -24.5 -98.5t-51.5 -76.5t-74.5 -50t-92.5 -18q-63 0 -115 22t-90 68t-59 117.5t-21 171.5q0 99 21 170.5t59 117.5t90 68t115 22q50 0 92.5 -17.5t74.5 -49.5t52 -76.5t25 -98.5l-69 -7q-11 87 -58.5 130.5t-121.5 43.5q-47 0 -85 -17.5t-66 -54.5 t-43 -94.5t-15 -136.5q0 -80 15 -137.5t43 -94.5t66 -54.5t85 -17.5q72 0 120 45t59 130zM188 920l25 28l127 -125l126 125l26 -28l-152 -164z" />
<glyph unicode="&#x10e;" horiz-adv-x="649" d="M72 0zM72 0v727h229q85 0 141.5 -28t90.5 -76.5t48 -115t14 -143.5q0 -78 -14 -144.5t-48 -115t-90.5 -76.5t-141.5 -28h-229zM297 69q63 0 106.5 19t70.5 56.5t38.5 92.5t11.5 127q0 71 -11.5 126t-38.5 92t-70.5 56t-106.5 19h-155v-588h155zM152 920l25 28l127 -125 l126 125l26 -28l-152 -164z" />
<glyph unicode="&#x10f;" horiz-adv-x="649" d="M72 0zM72 0v727h229q85 0 141.5 -28t90.5 -76.5t48 -115t14 -143.5q0 -78 -14 -144.5t-48 -115t-90.5 -76.5t-141.5 -28h-229zM297 69q63 0 106.5 19t70.5 56.5t38.5 92.5t11.5 127q0 71 -11.5 126t-38.5 92t-70.5 56t-106.5 19h-155v-588h155zM152 920l25 28l127 -125 l126 125l26 -28l-152 -164z" />
<glyph unicode="&#x110;" horiz-adv-x="646" d="M11 0zM69 0v339h-58v69h58v319h229q85 0 141.5 -28t90.5 -76.5t48 -115t14 -143.5q0 -78 -14 -144.5t-48 -115t-90.5 -76.5t-141.5 -28h-229zM294 69q63 0 106.5 19t70.5 56.5t38.5 92.5t11.5 127q0 71 -11.5 126t-38.5 92t-70.5 56t-106.5 19h-155v-249h227v-69h-227 v-270h155z" />
<glyph unicode="&#x111;" horiz-adv-x="646" d="M11 0zM69 0v339h-58v69h58v319h229q85 0 141.5 -28t90.5 -76.5t48 -115t14 -143.5q0 -78 -14 -144.5t-48 -115t-90.5 -76.5t-141.5 -28h-229zM294 69q63 0 106.5 19t70.5 56.5t38.5 92.5t11.5 127q0 71 -11.5 126t-38.5 92t-70.5 56t-106.5 19h-155v-249h227v-69h-227 v-270h155z" />
<glyph unicode="&#x112;" horiz-adv-x="516" d="M72 0zM72 0v727h376v-70h-306v-249h302v-69h-302v-270h306v-69h-376zM132 878v44h272v-44h-272z" />
<glyph unicode="&#x113;" horiz-adv-x="516" d="M72 0zM72 0v727h376v-70h-306v-249h302v-69h-302v-270h306v-69h-376zM132 878v44h272v-44h-272z" />
<glyph unicode="&#x114;" horiz-adv-x="516" d="M72 0zM72 0v727h376v-70h-306v-249h302v-69h-302v-270h306v-69h-376zM422 952q-1 -32 -11 -63.5t-28.5 -57t-47 -41.5t-67.5 -16t-67.5 16t-47 41.5t-28.5 57t-11 63.5h41q3 -57 31.5 -96.5t81.5 -39.5q26 0 46.5 11t34.5 29.5t22 43t9 52.5h42z" />
<glyph unicode="&#x115;" horiz-adv-x="516" d="M72 0zM72 0v727h376v-70h-306v-249h302v-69h-302v-270h306v-69h-376zM422 952q-1 -32 -11 -63.5t-28.5 -57t-47 -41.5t-67.5 -16t-67.5 16t-47 41.5t-28.5 57t-11 63.5h41q3 -57 31.5 -96.5t81.5 -39.5q26 0 46.5 11t34.5 29.5t22 43t9 52.5h42z" />
<glyph unicode="&#x116;" horiz-adv-x="516" d="M72 0zM72 0v727h376v-70h-306v-249h302v-69h-302v-270h306v-69h-376zM232 805v132h71v-132h-71z" />
<glyph unicode="&#x117;" horiz-adv-x="516" d="M72 0zM72 0v727h376v-70h-306v-249h302v-69h-302v-270h306v-69h-376zM232 805v132h71v-132h-71z" />
<glyph unicode="&#x118;" horiz-adv-x="516" d="M461 -225q-19 -7 -35 -9t-42 -2q-44 0 -73.5 25.5t-29.5 78.5q0 27 11 49.5t28.5 39.5t40 28t45.5 15h-334v727h376v-70h-306v-249h302v-69h-302v-270h306v-69q-63 -16 -90 -47.5t-27 -65.5q0 -37 21 -52.5t50 -15.5q18 0 34 2.5t33 10.5z" />
<glyph unicode="&#x119;" horiz-adv-x="516" d="M72 0zM461 -225q-19 -7 -35 -9t-42 -2q-44 0 -73.5 25.5t-29.5 78.5q0 27 11 49.5t28.5 39.5t40 28t45.5 15h-334v727h376v-70h-306v-249h302v-69h-302v-270h306v-69q-63 -16 -90 -47.5t-27 -65.5q0 -37 21 -52.5t50 -15.5q18 0 34 2.5t33 10.5z" />
<glyph unicode="&#x11a;" horiz-adv-x="516" d="M72 0zM72 0v727h376v-70h-306v-249h302v-69h-302v-270h306v-69h-376zM116 920l25 28l127 -125l126 125l26 -28l-152 -164z" />
<glyph unicode="&#x11b;" horiz-adv-x="516" d="M72 0zM72 0v727h376v-70h-306v-249h302v-69h-302v-270h306v-69h-376zM116 920l25 28l127 -125l126 125l26 -28l-152 -164z" />
<glyph unicode="&#x11e;" horiz-adv-x="667" d="M62 0zM369 310v70h248q1 -11 1.5 -28t0.5 -35q0 -62 -14.5 -121.5t-47 -106t-85 -75.5t-129.5 -29q-58 0 -109 22t-89.5 68t-60.5 117.5t-22 171.5q0 99 22.5 170.5t62 117.5t93.5 68t117 22q45 0 85.5 -14.5t73 -41t55 -63t32.5 -81.5l-67 -12q-19 65 -69 103t-115 38 q-47 0 -87.5 -18t-70 -55.5t-46.5 -95.5t-17 -138q0 -81 16.5 -139.5t45.5 -96t68 -55t84 -17.5q60 0 99 19.5t62 53.5t32 80.5t9 100.5h-178zM507 952q-1 -32 -11 -63.5t-28.5 -57t-47 -41.5t-67.5 -16t-67.5 16t-47 41.5t-28.5 57t-11 63.5h41q3 -57 31.5 -96.5 t81.5 -39.5q26 0 46.5 11t34.5 29.5t22 43t9 52.5h42z" />
<glyph unicode="&#x11f;" horiz-adv-x="667" d="M62 0zM369 310v70h248q1 -11 1.5 -28t0.5 -35q0 -62 -14.5 -121.5t-47 -106t-85 -75.5t-129.5 -29q-58 0 -109 22t-89.5 68t-60.5 117.5t-22 171.5q0 99 22.5 170.5t62 117.5t93.5 68t117 22q45 0 85.5 -14.5t73 -41t55 -63t32.5 -81.5l-67 -12q-19 65 -69 103t-115 38 q-47 0 -87.5 -18t-70 -55.5t-46.5 -95.5t-17 -138q0 -81 16.5 -139.5t45.5 -96t68 -55t84 -17.5q60 0 99 19.5t62 53.5t32 80.5t9 100.5h-178zM507 952q-1 -32 -11 -63.5t-28.5 -57t-47 -41.5t-67.5 -16t-67.5 16t-47 41.5t-28.5 57t-11 63.5h41q3 -57 31.5 -96.5 t81.5 -39.5q26 0 46.5 11t34.5 29.5t22 43t9 52.5h42z" />
<glyph unicode="&#x120;" horiz-adv-x="667" d="M62 0zM369 310v70h248q1 -11 1.5 -28t0.5 -35q0 -62 -14.5 -121.5t-47 -106t-85 -75.5t-129.5 -29q-58 0 -109 22t-89.5 68t-60.5 117.5t-22 171.5q0 99 22.5 170.5t62 117.5t93.5 68t117 22q45 0 85.5 -14.5t73 -41t55 -63t32.5 -81.5l-67 -12q-19 65 -69 103t-115 38 q-47 0 -87.5 -18t-70 -55.5t-46.5 -95.5t-17 -138q0 -81 16.5 -139.5t45.5 -96t68 -55t84 -17.5q60 0 99 19.5t62 53.5t32 80.5t9 100.5h-178zM318 805v132h71v-132h-71z" />
<glyph unicode="&#x121;" horiz-adv-x="667" d="M62 0zM369 310v70h248q1 -11 1.5 -28t0.5 -35q0 -62 -14.5 -121.5t-47 -106t-85 -75.5t-129.5 -29q-58 0 -109 22t-89.5 68t-60.5 117.5t-22 171.5q0 99 22.5 170.5t62 117.5t93.5 68t117 22q45 0 85.5 -14.5t73 -41t55 -63t32.5 -81.5l-67 -12q-19 65 -69 103t-115 38 q-47 0 -87.5 -18t-70 -55.5t-46.5 -95.5t-17 -138q0 -81 16.5 -139.5t45.5 -96t68 -55t84 -17.5q60 0 99 19.5t62 53.5t32 80.5t9 100.5h-178zM318 805v132h71v-132h-71z" />
<glyph unicode="&#x122;" horiz-adv-x="667" d="M62 0zM369 310v70h248q1 -11 1.5 -28t0.5 -35q0 -62 -14.5 -121.5t-47 -106t-85 -75.5t-129.5 -29q-58 0 -109 22t-89.5 68t-60.5 117.5t-22 171.5q0 99 22.5 170.5t62 117.5t93.5 68t117 22q45 0 85.5 -14.5t73 -41t55 -63t32.5 -81.5l-67 -12q-19 65 -69 103t-115 38 q-47 0 -87.5 -18t-70 -55.5t-46.5 -95.5t-17 -138q0 -81 16.5 -139.5t45.5 -96t68 -55t84 -17.5q60 0 99 19.5t62 53.5t32 80.5t9 100.5h-178zM320 -236l24 83l-1 4h-25v123h71v-123l-28 -87h-41z" />
<glyph unicode="&#x123;" horiz-adv-x="667" d="M62 0zM369 310v70h248q1 -11 1.5 -28t0.5 -35q0 -62 -14.5 -121.5t-47 -106t-85 -75.5t-129.5 -29q-58 0 -109 22t-89.5 68t-60.5 117.5t-22 171.5q0 99 22.5 170.5t62 117.5t93.5 68t117 22q45 0 85.5 -14.5t73 -41t55 -63t32.5 -81.5l-67 -12q-19 65 -69 103t-115 38 q-47 0 -87.5 -18t-70 -55.5t-46.5 -95.5t-17 -138q0 -81 16.5 -139.5t45.5 -96t68 -55t84 -17.5q60 0 99 19.5t62 53.5t32 80.5t9 100.5h-178zM320 -236l24 83l-1 4h-25v123h71v-123l-28 -87h-41z" />
<glyph unicode="&#x126;" horiz-adv-x="649" d="M508 0v339h-366v-339h-70v538h-72v44h72v145h70v-145h366v145h69v-145h72v-44h-72v-538h-69zM508 408v130h-366v-130h366z" />
<glyph unicode="&#x127;" horiz-adv-x="649" d="M0 0zM508 0v339h-366v-339h-70v538h-72v44h72v145h70v-145h366v145h69v-145h72v-44h-72v-538h-69zM508 408v130h-366v-130h366z" />
<glyph unicode="&#x12a;" horiz-adv-x="221" d="M0 0zM76 0v727h70v-727h-70zM-25 878v44h272v-44h-272z" />
<glyph unicode="&#x12b;" horiz-adv-x="221" d="M0 0zM76 0v727h70v-727h-70zM-25 878v44h272v-44h-272z" />
<glyph unicode="&#x12c;" horiz-adv-x="221" d="M0 0zM76 0v727h70v-727h-70zM265 952q-1 -32 -11 -63.5t-28.5 -57t-47 -41.5t-67.5 -16t-67.5 16t-47 41.5t-28.5 57t-11 63.5h41q3 -57 31.5 -96.5t81.5 -39.5q26 0 46.5 11t34.5 29.5t22 43t9 52.5h42z" />
<glyph unicode="&#x12d;" horiz-adv-x="221" d="M0 0zM76 0v727h70v-727h-70zM265 952q-1 -32 -11 -63.5t-28.5 -57t-47 -41.5t-67.5 -16t-67.5 16t-47 41.5t-28.5 57t-11 63.5h41q3 -57 31.5 -96.5t81.5 -39.5q26 0 46.5 11t34.5 29.5t22 43t9 52.5h42z" />
<glyph unicode="&#x12e;" horiz-adv-x="221" d="M159 -225q-19 -7 -35 -9t-42 -2q-44 0 -73.5 25.5t-29.5 78.5q0 46 29 78.5t68 46.5v734h70v-727q-63 -16 -90 -47.5t-27 -65.5q0 -37 21 -52.5t50 -15.5q18 0 34 2.5t33 10.5z" />
<glyph unicode="&#x12f;" horiz-adv-x="221" d="M0 0zM159 -225q-19 -7 -35 -9t-42 -2q-44 0 -73.5 25.5t-29.5 78.5q0 46 29 78.5t68 46.5v734h70v-727q-63 -16 -90 -47.5t-27 -65.5q0 -37 21 -52.5t50 -15.5q18 0 34 2.5t33 10.5z" />
<glyph unicode="&#x130;" horiz-adv-x="221" d="M75 0zM76 0v727h70v-727h-70zM75 805v132h71v-132h-71z" />
<glyph unicode="&#x131;" horiz-adv-x="221" d="M76 0zM76 0v727h70v-727h-70z" />
<glyph unicode="&#x132;" horiz-adv-x="739" d="M76 0zM76 0v727h70v-727h-70zM601 727h70v-478q0 -57 -14.5 -105.5t-43.5 -84t-74.5 -55t-106.5 -19.5q-53 0 -101.5 19.5t-82.5 62.5l47 55q25 -38 61 -53.5t77 -15.5q85 0 126.5 52t41.5 149v473z" />
<glyph unicode="&#x133;" horiz-adv-x="739" d="M76 0zM76 0v727h70v-727h-70zM601 727h70v-478q0 -57 -14.5 -105.5t-43.5 -84t-74.5 -55t-106.5 -19.5q-53 0 -101.5 19.5t-82.5 62.5l47 55q25 -38 61 -53.5t77 -15.5q85 0 126.5 52t41.5 149v473z" />
<glyph unicode="&#x136;" horiz-adv-x="589" d="M72 0zM481 0l-327 352h-12v-352h-70v727h70v-316h9l321 316h91l-349 -338l361 -389h-94zM261 -236l24 83l-1 4h-25v123h71v-123l-28 -87h-41z" />
<glyph unicode="&#x137;" horiz-adv-x="589" d="M72 0zM481 0l-327 352h-12v-352h-70v727h70v-316h9l321 316h91l-349 -338l361 -389h-94zM261 -236l24 83l-1 4h-25v123h71v-123l-28 -87h-41z" />
<glyph unicode="&#x139;" horiz-adv-x="542" d="M72 0zM72 0v727h70v-658h370v-69h-440zM122 745l-24 37l213 182l32 -48z" />
<glyph unicode="&#x13a;" horiz-adv-x="542" d="M72 0zM72 0v727h70v-658h370v-69h-440zM122 745l-24 37l213 182l32 -48z" />
<glyph unicode="&#x13b;" horiz-adv-x="542" d="M72 0zM72 0v727h70v-658h370v-69h-440zM257 -236l24 83l-1 4h-25v123h71v-123l-28 -87h-41z" />
<glyph unicode="&#x13c;" horiz-adv-x="542" d="M72 0zM72 0v727h70v-658h370v-69h-440zM257 -236l24 83l-1 4h-25v123h71v-123l-28 -87h-41z" />
<glyph unicode="&#x13d;" horiz-adv-x="542" d="M72 0zM72 0v727h70v-658h370v-69h-440zM251 532l24 83l-1 4h-25v123h71v-123l-28 -87h-41z" />
<glyph unicode="&#x13e;" horiz-adv-x="542" d="M72 0zM72 0v727h70v-658h370v-69h-440zM251 532l24 83l-1 4h-25v123h71v-123l-28 -87h-41z" />
<glyph unicode="&#x13f;" horiz-adv-x="542" d="M72 0zM72 0v727h70v-658h370v-69h-440zM220 311v132h71v-132h-71z" />
<glyph unicode="&#x140;" horiz-adv-x="542" d="M72 0zM72 0v727h70v-658h370v-69h-440zM220 311v132h71v-132h-71z" />
<glyph unicode="&#x141;" horiz-adv-x="539" d="M69 0v372l-58 -36v70l58 36v285h70v-242l226 142v-70l-226 -141v-347h370v-69h-440z" />
<glyph unicode="&#x142;" horiz-adv-x="539" d="M11 0zM69 0v372l-58 -36v70l58 36v285h70v-242l226 142v-70l-226 -141v-347h370v-69h-440z" />
<glyph unicode="&#x143;" horiz-adv-x="650" d="M72 0zM510 0l-366 604h-4v-604h-68v727h84l350 -588h4v588h68v-727h-68zM256 745l-24 37l213 182l32 -48z" />
<glyph unicode="&#x144;" horiz-adv-x="650" d="M72 0zM510 0l-366 604h-4v-604h-68v727h84l350 -588h4v588h68v-727h-68zM256 745l-24 37l213 182l32 -48z" />
<glyph unicode="&#x145;" horiz-adv-x="650" d="M72 0zM510 0l-366 604h-4v-604h-68v727h84l350 -588h4v588h68v-727h-68zM291 -236l24 83l-1 4h-25v123h71v-123l-28 -87h-41z" />
<glyph unicode="&#x146;" horiz-adv-x="650" d="M72 0zM510 0l-366 604h-4v-604h-68v727h84l350 -588h4v588h68v-727h-68zM291 -236l24 83l-1 4h-25v123h71v-123l-28 -87h-41z" />
<glyph unicode="&#x147;" horiz-adv-x="650" d="M72 0zM510 0l-366 604h-4v-604h-68v727h84l350 -588h4v588h68v-727h-68zM173 920l25 28l127 -125l126 125l26 -28l-152 -164z" />
<glyph unicode="&#x148;" horiz-adv-x="650" d="M72 0zM510 0l-366 604h-4v-604h-68v727h84l350 -588h4v588h68v-727h-68zM173 920l25 28l127 -125l126 125l26 -28l-152 -164z" />
<glyph unicode="&#x14a;" horiz-adv-x="650" d="M578 19q0 -45 -12 -84t-36 -67.5t-59 -45t-81 -16.5q-41 0 -72 13t-55 32l39 56q15 -12 36 -22t47 -10q55 0 87 35.5t37 90.5l-365 603h-4v-604h-68v727h84l350 -588h4v588h68v-708v0z" />
<glyph unicode="&#x14b;" horiz-adv-x="650" d="M72 0zM578 19q0 -45 -12 -84t-36 -67.5t-59 -45t-81 -16.5q-41 0 -72 13t-55 32l39 56q15 -12 36 -22t47 -10q55 0 87 35.5t37 90.5l-365 603h-4v-604h-68v727h84l350 -588h4v588h68v-708v0z" />
<glyph unicode="&#x14c;" horiz-adv-x="683" d="M62 0zM347 -15q-61 0 -113 26t-90.5 75t-60 119t-21.5 159q0 88 21.5 158t60 119t90.5 75t113 26q60 0 110.5 -26.5t86.5 -76t56.5 -119t20.5 -156.5t-20.5 -157t-56.5 -119.5t-86.5 -76t-110.5 -26.5zM344 60q45 0 83 20t65.5 59t43 95.5t15.5 129.5q0 72 -15.5 128.5 t-43 95.5t-65.5 59t-83 20t-84 -20t-67.5 -58.5t-44.5 -95t-16 -129.5q0 -74 16 -130.5t44.5 -95t67.5 -58.5t84 -20zM205 878v44h272v-44h-272z" />
<glyph unicode="&#x14d;" horiz-adv-x="683" d="M62 0zM347 -15q-61 0 -113 26t-90.5 75t-60 119t-21.5 159q0 88 21.5 158t60 119t90.5 75t113 26q60 0 110.5 -26.5t86.5 -76t56.5 -119t20.5 -156.5t-20.5 -157t-56.5 -119.5t-86.5 -76t-110.5 -26.5zM344 60q45 0 83 20t65.5 59t43 95.5t15.5 129.5q0 72 -15.5 128.5 t-43 95.5t-65.5 59t-83 20t-84 -20t-67.5 -58.5t-44.5 -95t-16 -129.5q0 -74 16 -130.5t44.5 -95t67.5 -58.5t84 -20zM205 878v44h272v-44h-272z" />
<glyph unicode="&#x14e;" horiz-adv-x="683" d="M62 0zM347 -15q-61 0 -113 26t-90.5 75t-60 119t-21.5 159q0 88 21.5 158t60 119t90.5 75t113 26q60 0 110.5 -26.5t86.5 -76t56.5 -119t20.5 -156.5t-20.5 -157t-56.5 -119.5t-86.5 -76t-110.5 -26.5zM344 60q45 0 83 20t65.5 59t43 95.5t15.5 129.5q0 72 -15.5 128.5 t-43 95.5t-65.5 59t-83 20t-84 -20t-67.5 -58.5t-44.5 -95t-16 -129.5q0 -74 16 -130.5t44.5 -95t67.5 -58.5t84 -20zM495 952q-1 -32 -11 -63.5t-28.5 -57t-47 -41.5t-67.5 -16t-67.5 16t-47 41.5t-28.5 57t-11 63.5h41q3 -57 31.5 -96.5t81.5 -39.5q26 0 46.5 11 t34.5 29.5t22 43t9 52.5h42z" />
<glyph unicode="&#x14f;" horiz-adv-x="683" d="M62 0zM347 -15q-61 0 -113 26t-90.5 75t-60 119t-21.5 159q0 88 21.5 158t60 119t90.5 75t113 26q60 0 110.5 -26.5t86.5 -76t56.5 -119t20.5 -156.5t-20.5 -157t-56.5 -119.5t-86.5 -76t-110.5 -26.5zM344 60q45 0 83 20t65.5 59t43 95.5t15.5 129.5q0 72 -15.5 128.5 t-43 95.5t-65.5 59t-83 20t-84 -20t-67.5 -58.5t-44.5 -95t-16 -129.5q0 -74 16 -130.5t44.5 -95t67.5 -58.5t84 -20zM495 952q-1 -32 -11 -63.5t-28.5 -57t-47 -41.5t-67.5 -16t-67.5 16t-47 41.5t-28.5 57t-11 63.5h41q3 -57 31.5 -96.5t81.5 -39.5q26 0 46.5 11 t34.5 29.5t22 43t9 52.5h42z" />
<glyph unicode="&#x150;" horiz-adv-x="683" d="M62 0zM347 -15q-61 0 -113 26t-90.5 75t-60 119t-21.5 159q0 88 21.5 158t60 119t90.5 75t113 26q60 0 110.5 -26.5t86.5 -76t56.5 -119t20.5 -156.5t-20.5 -157t-56.5 -119.5t-86.5 -76t-110.5 -26.5zM344 60q45 0 83 20t65.5 59t43 95.5t15.5 129.5q0 72 -15.5 128.5 t-43 95.5t-65.5 59t-83 20t-84 -20t-67.5 -58.5t-44.5 -95t-16 -129.5q0 -74 16 -130.5t44.5 -95t67.5 -58.5t84 -20zM383 745l-25 37l213 182l33 -48zM163 745l-24 37l212 182l33 -48z" />
<glyph unicode="&#x151;" horiz-adv-x="683" d="M62 0zM347 -15q-61 0 -113 26t-90.5 75t-60 119t-21.5 159q0 88 21.5 158t60 119t90.5 75t113 26q60 0 110.5 -26.5t86.5 -76t56.5 -119t20.5 -156.5t-20.5 -157t-56.5 -119.5t-86.5 -76t-110.5 -26.5zM344 60q45 0 83 20t65.5 59t43 95.5t15.5 129.5q0 72 -15.5 128.5 t-43 95.5t-65.5 59t-83 20t-84 -20t-67.5 -58.5t-44.5 -95t-16 -129.5q0 -74 16 -130.5t44.5 -95t67.5 -58.5t84 -20zM383 745l-25 37l213 182l33 -48zM163 745l-24 37l212 182l33 -48z" />
<glyph unicode="&#x152;" horiz-adv-x="954" d="M509 0v55q-32 -34 -73 -52t-89 -18q-61 0 -113 26t-90.5 75t-60 119t-21.5 159q0 88 21.5 158t60 119t90.5 75t113 26q48 0 89 -18.5t73 -52.5v56h377v-70h-306v-249h302v-69h-302v-270h306v-69h-377zM509 572q-23 42 -64.5 68.5t-95.5 26.5q-47 0 -86.5 -20t-68.5 -58.5 t-45.5 -95t-16.5 -129.5q0 -74 16.5 -130.5t45.5 -95t68.5 -58.5t86.5 -20q54 0 95.5 23.5t64.5 61.5v427z" />
<glyph unicode="&#x153;" horiz-adv-x="954" d="M62 0zM509 0v55q-32 -34 -73 -52t-89 -18q-61 0 -113 26t-90.5 75t-60 119t-21.5 159q0 88 21.5 158t60 119t90.5 75t113 26q48 0 89 -18.5t73 -52.5v56h377v-70h-306v-249h302v-69h-302v-270h306v-69h-377zM509 572q-23 42 -64.5 68.5t-95.5 26.5q-47 0 -86.5 -20 t-68.5 -58.5t-45.5 -95t-16.5 -129.5q0 -74 16.5 -130.5t45.5 -95t68.5 -58.5t86.5 -20q54 0 95.5 23.5t64.5 61.5v427z" />
<glyph unicode="&#x154;" horiz-adv-x="591" d="M72 0zM474 0q-6 16 -6 35v166q0 62 -33.5 88.5t-87.5 26.5h-205v-316h-70v727h252q99 0 152.5 -55t53.5 -151q0 -39 -8.5 -67.5t-22 -48.5t-31.5 -32t-36 -18q20 -5 39 -14.5t34 -26.5t24 -43t9 -63v-171q0 -10 2 -18.5t5 -18.5h-71zM340 381q24 0 46 7t38.5 23.5 t26.5 42t10 63.5q0 67 -35 103.5t-105 36.5h-179v-276h198zM217 745l-24 37l213 182l32 -48z" />
<glyph unicode="&#x155;" horiz-adv-x="591" d="M72 0zM474 0q-6 16 -6 35v166q0 62 -33.5 88.5t-87.5 26.5h-205v-316h-70v727h252q99 0 152.5 -55t53.5 -151q0 -39 -8.5 -67.5t-22 -48.5t-31.5 -32t-36 -18q20 -5 39 -14.5t34 -26.5t24 -43t9 -63v-171q0 -10 2 -18.5t5 -18.5h-71zM340 381q24 0 46 7t38.5 23.5 t26.5 42t10 63.5q0 67 -35 103.5t-105 36.5h-179v-276h198zM217 745l-24 37l213 182l32 -48z" />
<glyph unicode="&#x156;" horiz-adv-x="591" d="M72 0zM474 0q-6 16 -6 35v166q0 62 -33.5 88.5t-87.5 26.5h-205v-316h-70v727h252q99 0 152.5 -55t53.5 -151q0 -39 -8.5 -67.5t-22 -48.5t-31.5 -32t-36 -18q20 -5 39 -14.5t34 -26.5t24 -43t9 -63v-171q0 -10 2 -18.5t5 -18.5h-71zM340 381q24 0 46 7t38.5 23.5 t26.5 42t10 63.5q0 67 -35 103.5t-105 36.5h-179v-276h198zM262 -236l24 83l-1 4h-25v123h71v-123l-28 -87h-41z" />
<glyph unicode="&#x157;" horiz-adv-x="591" d="M72 0zM474 0q-6 16 -6 35v166q0 62 -33.5 88.5t-87.5 26.5h-205v-316h-70v727h252q99 0 152.5 -55t53.5 -151q0 -39 -8.5 -67.5t-22 -48.5t-31.5 -32t-36 -18q20 -5 39 -14.5t34 -26.5t24 -43t9 -63v-171q0 -10 2 -18.5t5 -18.5h-71zM340 381q24 0 46 7t38.5 23.5 t26.5 42t10 63.5q0 67 -35 103.5t-105 36.5h-179v-276h198zM262 -236l24 83l-1 4h-25v123h71v-123l-28 -87h-41z" />
<glyph unicode="&#x158;" horiz-adv-x="591" d="M72 0zM474 0q-6 16 -6 35v166q0 62 -33.5 88.5t-87.5 26.5h-205v-316h-70v727h252q99 0 152.5 -55t53.5 -151q0 -39 -8.5 -67.5t-22 -48.5t-31.5 -32t-36 -18q20 -5 39 -14.5t34 -26.5t24 -43t9 -63v-171q0 -10 2 -18.5t5 -18.5h-71zM340 381q24 0 46 7t38.5 23.5 t26.5 42t10 63.5q0 67 -35 103.5t-105 36.5h-179v-276h198zM133 920l25 28l127 -125l126 125l26 -28l-152 -164z" />
<glyph unicode="&#x159;" horiz-adv-x="591" d="M72 0zM474 0q-6 16 -6 35v166q0 62 -33.5 88.5t-87.5 26.5h-205v-316h-70v727h252q99 0 152.5 -55t53.5 -151q0 -39 -8.5 -67.5t-22 -48.5t-31.5 -32t-36 -18q20 -5 39 -14.5t34 -26.5t24 -43t9 -63v-171q0 -10 2 -18.5t5 -18.5h-71zM340 381q24 0 46 7t38.5 23.5 t26.5 42t10 63.5q0 67 -35 103.5t-105 36.5h-179v-276h198zM133 920l25 28l127 -125l126 125l26 -28l-152 -164z" />
<glyph unicode="&#x15a;" horiz-adv-x="549" d="M43 0zM417 522q0 33 -8 61t-25 48.5t-43.5 32.5t-63.5 12q-31 0 -57.5 -8.5t-46 -24.5t-31 -39.5t-11.5 -52.5q0 -27 8 -48.5t26.5 -38.5t49.5 -30.5t76 -24.5q109 -26 157 -79t48 -140q0 -49 -16.5 -87t-46 -64.5t-69.5 -40t-87 -13.5q-46 0 -86.5 14t-71.5 41t-51 65.5 t-25 87.5l70 18q3 -30 14.5 -58.5t31.5 -50.5t48.5 -35.5t66.5 -13.5q64 0 106.5 36t42.5 104q0 56 -34 92t-119 57q-102 25 -155 73.5t-53 137.5q0 46 18 81.5t48 59.5t68.5 36t79.5 12q97 0 152.5 -54.5t57.5 -158.5zM206 745l-24 37l213 182l32 -48z" />
<glyph unicode="&#x15b;" horiz-adv-x="549" d="M43 0zM417 522q0 33 -8 61t-25 48.5t-43.5 32.5t-63.5 12q-31 0 -57.5 -8.5t-46 -24.5t-31 -39.5t-11.5 -52.5q0 -27 8 -48.5t26.5 -38.5t49.5 -30.5t76 -24.5q109 -26 157 -79t48 -140q0 -49 -16.5 -87t-46 -64.5t-69.5 -40t-87 -13.5q-46 0 -86.5 14t-71.5 41t-51 65.5 t-25 87.5l70 18q3 -30 14.5 -58.5t31.5 -50.5t48.5 -35.5t66.5 -13.5q64 0 106.5 36t42.5 104q0 56 -34 92t-119 57q-102 25 -155 73.5t-53 137.5q0 46 18 81.5t48 59.5t68.5 36t79.5 12q97 0 152.5 -54.5t57.5 -158.5zM206 745l-24 37l213 182l32 -48z" />
<glyph unicode="&#x15e;" horiz-adv-x="549" d="M43 0zM417 522q0 33 -8 61t-25 48.5t-43.5 32.5t-63.5 12q-31 0 -57.5 -8.5t-46 -24.5t-31 -39.5t-11.5 -52.5q0 -27 8 -48.5t26.5 -38.5t49.5 -30.5t76 -24.5q109 -26 157 -79t48 -140q0 -49 -16.5 -87t-46 -64.5t-69.5 -40t-87 -13.5q-46 0 -86.5 14t-71.5 41t-51 65.5 t-25 87.5l70 18q3 -30 14.5 -58.5t31.5 -50.5t48.5 -35.5t66.5 -13.5q64 0 106.5 36t42.5 104q0 56 -34 92t-119 57q-102 25 -155 73.5t-53 137.5q0 46 18 81.5t48 59.5t68.5 36t79.5 12q97 0 152.5 -54.5t57.5 -158.5zM241 -236l24 83l-1 4h-25v123h71v-123l-28 -87h-41z " />
<glyph unicode="&#x15f;" horiz-adv-x="549" d="M43 0zM417 522q0 33 -8 61t-25 48.5t-43.5 32.5t-63.5 12q-31 0 -57.5 -8.5t-46 -24.5t-31 -39.5t-11.5 -52.5q0 -27 8 -48.5t26.5 -38.5t49.5 -30.5t76 -24.5q109 -26 157 -79t48 -140q0 -49 -16.5 -87t-46 -64.5t-69.5 -40t-87 -13.5q-46 0 -86.5 14t-71.5 41t-51 65.5 t-25 87.5l70 18q3 -30 14.5 -58.5t31.5 -50.5t48.5 -35.5t66.5 -13.5q64 0 106.5 36t42.5 104q0 56 -34 92t-119 57q-102 25 -155 73.5t-53 137.5q0 46 18 81.5t48 59.5t68.5 36t79.5 12q97 0 152.5 -54.5t57.5 -158.5zM241 -236l24 83l-1 4h-25v123h71v-123l-28 -87h-41z " />
<glyph unicode="&#x160;" horiz-adv-x="549" d="M43 0zM417 522q0 33 -8 61t-25 48.5t-43.5 32.5t-63.5 12q-31 0 -57.5 -8.5t-46 -24.5t-31 -39.5t-11.5 -52.5q0 -27 8 -48.5t26.5 -38.5t49.5 -30.5t76 -24.5q109 -26 157 -79t48 -140q0 -49 -16.5 -87t-46 -64.5t-69.5 -40t-87 -13.5q-46 0 -86.5 14t-71.5 41t-51 65.5 t-25 87.5l70 18q3 -30 14.5 -58.5t31.5 -50.5t48.5 -35.5t66.5 -13.5q64 0 106.5 36t42.5 104q0 56 -34 92t-119 57q-102 25 -155 73.5t-53 137.5q0 46 18 81.5t48 59.5t68.5 36t79.5 12q97 0 152.5 -54.5t57.5 -158.5zM122 920l25 28l127 -125l126 125l26 -28l-152 -164z " />
<glyph unicode="&#x161;" horiz-adv-x="549" d="M43 0zM417 522q0 33 -8 61t-25 48.5t-43.5 32.5t-63.5 12q-31 0 -57.5 -8.5t-46 -24.5t-31 -39.5t-11.5 -52.5q0 -27 8 -48.5t26.5 -38.5t49.5 -30.5t76 -24.5q109 -26 157 -79t48 -140q0 -49 -16.5 -87t-46 -64.5t-69.5 -40t-87 -13.5q-46 0 -86.5 14t-71.5 41t-51 65.5 t-25 87.5l70 18q3 -30 14.5 -58.5t31.5 -50.5t48.5 -35.5t66.5 -13.5q64 0 106.5 36t42.5 104q0 56 -34 92t-119 57q-102 25 -155 73.5t-53 137.5q0 46 18 81.5t48 59.5t68.5 36t79.5 12q97 0 152.5 -54.5t57.5 -158.5zM122 920l25 28l127 -125l126 125l26 -28l-152 -164z " />
<glyph unicode="&#x162;" horiz-adv-x="549" d="M33 0zM238 0v657h-205v70h483v-70h-204v-657h-74zM241 -236l24 83l-1 4h-25v123h71v-123l-28 -87h-41z" />
<glyph unicode="&#x163;" horiz-adv-x="549" d="M33 0zM238 0v657h-205v70h483v-70h-204v-657h-74zM241 -236l24 83l-1 4h-25v123h71v-123l-28 -87h-41z" />
<glyph unicode="&#x164;" horiz-adv-x="549" d="M33 0zM238 0v657h-205v70h483v-70h-204v-657h-74zM122 920l25 28l127 -125l126 125l26 -28l-152 -164z" />
<glyph unicode="&#x165;" horiz-adv-x="549" d="M33 0zM238 0v657h-205v70h483v-70h-204v-657h-74zM122 920l25 28l127 -125l126 125l26 -28l-152 -164z" />
<glyph unicode="&#x166;" horiz-adv-x="549" d="M238 0v439h-113v69h113v149h-205v70h483v-70h-204v-149h112v-69h-112v-439h-74z" />
<glyph unicode="&#x167;" horiz-adv-x="549" d="M33 0zM238 0v439h-113v69h113v149h-205v70h483v-70h-204v-149h112v-69h-112v-439h-74z" />
<glyph unicode="&#x168;" horiz-adv-x="614" d="M68 0zM476 727h70v-468q0 -77 -15.5 -129t-45.5 -84.5t-73.5 -46.5t-100.5 -14q-58 0 -103.5 14t-76.5 46t-47 83.5t-16 126.5v472h69v-476q0 -56 11.5 -93.5t33.5 -60.5t54.5 -33t74.5 -10q40 0 71 10t52 33t31.5 61t10.5 95v474zM518 893q-19 -43 -50.5 -65.5 t-69.5 -22.5q-32 0 -55 14t-43.5 30.5t-41 30.5t-46.5 14q-29 0 -47.5 -20t-35.5 -50l-33 29q17 40 46.5 63t67.5 23q34 0 58 -14t44.5 -30.5t40.5 -30t47 -13.5q29 0 48 20t36 52z" />
<glyph unicode="&#x169;" horiz-adv-x="614" d="M68 0zM476 727h70v-468q0 -77 -15.5 -129t-45.5 -84.5t-73.5 -46.5t-100.5 -14q-58 0 -103.5 14t-76.5 46t-47 83.5t-16 126.5v472h69v-476q0 -56 11.5 -93.5t33.5 -60.5t54.5 -33t74.5 -10q40 0 71 10t52 33t31.5 61t10.5 95v474zM518 893q-19 -43 -50.5 -65.5 t-69.5 -22.5q-32 0 -55 14t-43.5 30.5t-41 30.5t-46.5 14q-29 0 -47.5 -20t-35.5 -50l-33 29q17 40 46.5 63t67.5 23q34 0 58 -14t44.5 -30.5t40.5 -30t47 -13.5q29 0 48 20t36 52z" />
<glyph unicode="&#x16a;" horiz-adv-x="614" d="M68 0zM476 727h70v-468q0 -77 -15.5 -129t-45.5 -84.5t-73.5 -46.5t-100.5 -14q-58 0 -103.5 14t-76.5 46t-47 83.5t-16 126.5v472h69v-476q0 -56 11.5 -93.5t33.5 -60.5t54.5 -33t74.5 -10q40 0 71 10t52 33t31.5 61t10.5 95v474zM171 878v44h272v-44h-272z" />
<glyph unicode="&#x16b;" horiz-adv-x="614" d="M68 0zM476 727h70v-468q0 -77 -15.5 -129t-45.5 -84.5t-73.5 -46.5t-100.5 -14q-58 0 -103.5 14t-76.5 46t-47 83.5t-16 126.5v472h69v-476q0 -56 11.5 -93.5t33.5 -60.5t54.5 -33t74.5 -10q40 0 71 10t52 33t31.5 61t10.5 95v474zM171 878v44h272v-44h-272z" />
<glyph unicode="&#x16c;" horiz-adv-x="614" d="M68 0zM476 727h70v-468q0 -77 -15.5 -129t-45.5 -84.5t-73.5 -46.5t-100.5 -14q-58 0 -103.5 14t-76.5 46t-47 83.5t-16 126.5v472h69v-476q0 -56 11.5 -93.5t33.5 -60.5t54.5 -33t74.5 -10q40 0 71 10t52 33t31.5 61t10.5 95v474zM461 952q-1 -32 -11 -63.5t-28.5 -57 t-47 -41.5t-67.5 -16t-67.5 16t-47 41.5t-28.5 57t-11 63.5h41q3 -57 31.5 -96.5t81.5 -39.5q26 0 46.5 11t34.5 29.5t22 43t9 52.5h42z" />
<glyph unicode="&#x16d;" horiz-adv-x="614" d="M68 0zM476 727h70v-468q0 -77 -15.5 -129t-45.5 -84.5t-73.5 -46.5t-100.5 -14q-58 0 -103.5 14t-76.5 46t-47 83.5t-16 126.5v472h69v-476q0 -56 11.5 -93.5t33.5 -60.5t54.5 -33t74.5 -10q40 0 71 10t52 33t31.5 61t10.5 95v474zM461 952q-1 -32 -11 -63.5t-28.5 -57 t-47 -41.5t-67.5 -16t-67.5 16t-47 41.5t-28.5 57t-11 63.5h41q3 -57 31.5 -96.5t81.5 -39.5q26 0 46.5 11t34.5 29.5t22 43t9 52.5h42z" />
<glyph unicode="&#x16e;" horiz-adv-x="614" d="M68 0zM476 727h70v-468q0 -77 -15.5 -129t-45.5 -84.5t-73.5 -46.5t-100.5 -14q-58 0 -103.5 14t-76.5 46t-47 83.5t-16 126.5v472h69v-476q0 -56 11.5 -93.5t33.5 -60.5t54.5 -33t74.5 -10q40 0 71 10t52 33t31.5 61t10.5 95v474zM307 745q-45 0 -74.5 32t-29.5 79 q0 22 8 41.5t22 34.5t33 23.5t41 8.5q21 0 39.5 -8.5t33 -23.5t23 -34.5t8.5 -41.5q0 -23 -8.5 -43t-23 -35t-33 -24t-39.5 -9zM307 783q26 0 45.5 21t19.5 52q0 28 -19.5 48.5t-45.5 20.5q-28 0 -47 -20.5t-19 -48.5q0 -31 19 -52t47 -21z" />
<glyph unicode="&#x16f;" horiz-adv-x="614" d="M68 0zM476 727h70v-468q0 -77 -15.5 -129t-45.5 -84.5t-73.5 -46.5t-100.5 -14q-58 0 -103.5 14t-76.5 46t-47 83.5t-16 126.5v472h69v-476q0 -56 11.5 -93.5t33.5 -60.5t54.5 -33t74.5 -10q40 0 71 10t52 33t31.5 61t10.5 95v474zM307 745q-45 0 -74.5 32t-29.5 79 q0 22 8 41.5t22 34.5t33 23.5t41 8.5q21 0 39.5 -8.5t33 -23.5t23 -34.5t8.5 -41.5q0 -23 -8.5 -43t-23 -35t-33 -24t-39.5 -9zM307 783q26 0 45.5 21t19.5 52q0 28 -19.5 48.5t-45.5 20.5q-28 0 -47 -20.5t-19 -48.5q0 -31 19 -52t47 -21z" />
<glyph unicode="&#x170;" horiz-adv-x="614" d="M68 0zM476 727h70v-468q0 -77 -15.5 -129t-45.5 -84.5t-73.5 -46.5t-100.5 -14q-58 0 -103.5 14t-76.5 46t-47 83.5t-16 126.5v472h69v-476q0 -56 11.5 -93.5t33.5 -60.5t54.5 -33t74.5 -10q40 0 71 10t52 33t31.5 61t10.5 95v474zM348 745l-25 37l213 182l33 -48z M128 745l-24 37l212 182l33 -48z" />
<glyph unicode="&#x171;" horiz-adv-x="614" d="M68 0zM476 727h70v-468q0 -77 -15.5 -129t-45.5 -84.5t-73.5 -46.5t-100.5 -14q-58 0 -103.5 14t-76.5 46t-47 83.5t-16 126.5v472h69v-476q0 -56 11.5 -93.5t33.5 -60.5t54.5 -33t74.5 -10q40 0 71 10t52 33t31.5 61t10.5 95v474zM348 745l-25 37l213 182l33 -48z M128 745l-24 37l212 182l33 -48z" />
<glyph unicode="&#x172;" horiz-adv-x="614" d="M429 -225q-19 -7 -35 -9t-42 -2q-44 0 -73.5 25.5t-29.5 78.5q0 42 23.5 71.5t56.5 46.5q-5 0 -9 -0.5t-9 -0.5q-58 0 -103.5 14t-76.5 46t-47 83.5t-16 126.5v472h69v-476q0 -56 11.5 -93.5t33.5 -60.5t54.5 -33t74.5 -10q40 0 71 10t52 33t31.5 61t10.5 95v474h70v-468 q0 -119 -37.5 -180.5t-107.5 -82.5q-55 -17 -78.5 -47t-23.5 -62q0 -37 21 -52.5t50 -15.5q18 0 34 2.5t33 10.5z" />
<glyph unicode="&#x173;" horiz-adv-x="614" d="M68 0zM429 -225q-19 -7 -35 -9t-42 -2q-44 0 -73.5 25.5t-29.5 78.5q0 42 23.5 71.5t56.5 46.5q-5 0 -9 -0.5t-9 -0.5q-58 0 -103.5 14t-76.5 46t-47 83.5t-16 126.5v472h69v-476q0 -56 11.5 -93.5t33.5 -60.5t54.5 -33t74.5 -10q40 0 71 10t52 33t31.5 61t10.5 95v474 h70v-468q0 -119 -37.5 -180.5t-107.5 -82.5q-55 -17 -78.5 -47t-23.5 -62q0 -37 21 -52.5t50 -15.5q18 0 34 2.5t33 10.5z" />
<glyph unicode="&#x174;" horiz-adv-x="882" d="M19 0zM590 0l-144 582h-4l-153 -582h-94l-176 727h79l144 -618h4l159 618h77l153 -618h4l145 618h79l-179 -727h-94zM440 881l-126 -125l-25 28l151 164l153 -164l-26 -28z" />
<glyph unicode="&#x175;" horiz-adv-x="882" d="M19 0zM590 0l-144 582h-4l-153 -582h-94l-176 727h79l144 -618h4l159 618h77l153 -618h4l145 618h79l-179 -727h-94zM440 881l-126 -125l-25 28l151 164l153 -164l-26 -28z" />
<glyph unicode="&#x176;" d="M15 0zM249 0v293l-234 434h79l193 -357l192 357h78l-232 -433v-294h-76zM285 881l-126 -125l-25 28l151 164l153 -164l-26 -28z" />
<glyph unicode="&#x177;" d="M15 0zM249 0v293l-234 434h79l193 -357l192 357h78l-232 -433v-294h-76zM285 881l-126 -125l-25 28l151 164l153 -164l-26 -28z" />
<glyph unicode="&#x178;" d="M15 0zM249 0v293l-234 434h79l193 -357l192 357h78l-232 -433v-294h-76zM354 805v132h71v-132h-71zM147 805v132h71v-132h-71z" />
<glyph unicode="&#x179;" horiz-adv-x="584" d="M53 0zM53 0v73l388 582v4h-388v68h478v-64l-388 -590v-4h389v-69h-479zM223 745l-24 37l213 182l32 -48z" />
<glyph unicode="&#x17a;" horiz-adv-x="584" d="M53 0zM53 0v73l388 582v4h-388v68h478v-64l-388 -590v-4h389v-69h-479zM223 745l-24 37l213 182l32 -48z" />
<glyph unicode="&#x17b;" horiz-adv-x="584" d="M53 0zM53 0v73l388 582v4h-388v68h478v-64l-388 -590v-4h389v-69h-479zM256 805v132h71v-132h-71z" />
<glyph unicode="&#x17c;" horiz-adv-x="584" d="M53 0zM53 0v73l388 582v4h-388v68h478v-64l-388 -590v-4h389v-69h-479zM256 805v132h71v-132h-71z" />
<glyph unicode="&#x17d;" horiz-adv-x="584" d="M53 0zM53 0v73l388 582v4h-388v68h478v-64l-388 -590v-4h389v-69h-479zM140 920l25 28l127 -125l126 125l26 -28l-152 -164z" />
<glyph unicode="&#x17e;" horiz-adv-x="584" d="M53 0zM53 0v73l388 582v4h-388v68h478v-64l-388 -590v-4h389v-69h-479zM140 920l25 28l127 -125l126 125l26 -28l-152 -164z" />
<glyph unicode="&#x192;" horiz-adv-x="513" d="M24 -128q63 14 96.5 56.5t47.5 120.5l72 410h-75l13 69h74q10 54 24 94.5t35 67t50 39.5t68 13q19 0 31.5 -2.5t22.5 -6.5v-67q-11 5 -24 8.5t-30 3.5q-28 0 -47.5 -10.5t-32.5 -30t-21 -47t-14 -62.5h130l-12 -69h-127l-73 -409q-18 -103 -66 -165.5t-142 -78.5v66z" />
<glyph unicode="&#x218;" horiz-adv-x="549" d="M43 0zM417 522q0 33 -8 61t-25 48.5t-43.5 32.5t-63.5 12q-31 0 -57.5 -8.5t-46 -24.5t-31 -39.5t-11.5 -52.5q0 -27 8 -48.5t26.5 -38.5t49.5 -30.5t76 -24.5q109 -26 157 -79t48 -140q0 -49 -16.5 -87t-46 -64.5t-69.5 -40t-87 -13.5q-46 0 -86.5 14t-71.5 41t-51 65.5 t-25 87.5l70 18q3 -30 14.5 -58.5t31.5 -50.5t48.5 -35.5t66.5 -13.5q64 0 106.5 36t42.5 104q0 56 -34 92t-119 57q-102 25 -155 73.5t-53 137.5q0 46 18 81.5t48 59.5t68.5 36t79.5 12q97 0 152.5 -54.5t57.5 -158.5zM241 -236l24 83l-1 4h-25v123h71v-123l-28 -87h-41z " />
<glyph unicode="&#x219;" horiz-adv-x="549" d="M43 0zM417 522q0 33 -8 61t-25 48.5t-43.5 32.5t-63.5 12q-31 0 -57.5 -8.5t-46 -24.5t-31 -39.5t-11.5 -52.5q0 -27 8 -48.5t26.5 -38.5t49.5 -30.5t76 -24.5q109 -26 157 -79t48 -140q0 -49 -16.5 -87t-46 -64.5t-69.5 -40t-87 -13.5q-46 0 -86.5 14t-71.5 41t-51 65.5 t-25 87.5l70 18q3 -30 14.5 -58.5t31.5 -50.5t48.5 -35.5t66.5 -13.5q64 0 106.5 36t42.5 104q0 56 -34 92t-119 57q-102 25 -155 73.5t-53 137.5q0 46 18 81.5t48 59.5t68.5 36t79.5 12q97 0 152.5 -54.5t57.5 -158.5zM241 -236l24 83l-1 4h-25v123h71v-123l-28 -87h-41z " />
<glyph unicode="&#x21a;" horiz-adv-x="549" d="M33 0zM238 0v657h-205v70h483v-70h-204v-657h-74zM241 -236l24 83l-1 4h-25v123h71v-123l-28 -87h-41z" />
<glyph unicode="&#x21b;" horiz-adv-x="549" d="M33 0zM238 0v657h-205v70h483v-70h-204v-657h-74zM241 -236l24 83l-1 4h-25v123h71v-123l-28 -87h-41z" />
<glyph unicode="&#x2c6;" horiz-adv-x="407" d="M203 720l-126 -125l-25 28l151 164l153 -164l-26 -28z" />
<glyph unicode="&#x2c7;" horiz-adv-x="407" d="M52 759l25 28l127 -125l126 125l26 -28l-152 -164z" />
<glyph unicode="&#x2d8;" horiz-adv-x="373" d="M340 791q-1 -32 -11 -63.5t-28.5 -57t-47 -41.5t-67.5 -16t-67.5 16t-47 41.5t-28.5 57t-11 63.5h41q3 -57 31.5 -96.5t81.5 -39.5q26 0 46.5 11t34.5 29.5t22 43t9 52.5h42z" />
<glyph unicode="&#x2d9;" horiz-adv-x="182" d="M55 644v132h71v-132h-71z" />
<glyph unicode="&#x2da;" horiz-adv-x="312" d="M156 584q-45 0 -74.5 32t-29.5 79q0 22 8 41.5t22 34.5t33 23.5t41 8.5q21 0 39.5 -8.5t33 -23.5t23 -34.5t8.5 -41.5q0 -23 -8.5 -43t-23 -35t-33 -24t-39.5 -9zM156 622q26 0 45.5 21t19.5 52q0 28 -19.5 48.5t-45.5 20.5q-28 0 -47 -20.5t-19 -48.5q0 -31 19 -52 t47 -21z" />
<glyph unicode="&#x2db;" horiz-adv-x="292" d="M232 -225q-19 -7 -35 -9t-42 -2q-44 0 -73.5 25.5t-29.5 78.5q0 27 11 49.5t28.5 39.5t40 28t45.5 15h42q-63 -16 -90 -47.5t-27 -65.5q0 -37 21 -52.5t50 -15.5q18 0 34 2.5t33 10.5z" />
<glyph unicode="&#x2dc;" horiz-adv-x="526" d="M474 732q-19 -43 -50.5 -65.5t-69.5 -22.5q-32 0 -55 14t-43.5 30.5t-41 30.5t-46.5 14q-29 0 -47.5 -20t-35.5 -50l-33 29q17 40 46.5 63t67.5 23q34 0 58 -14t44.5 -30.5t40.5 -30t47 -13.5q29 0 48 20t36 52z" />
<glyph unicode="&#x2dd;" horiz-adv-x="568" d="M296 584l-25 37l213 182l33 -48zM76 584l-24 37l212 182l33 -48z" />
<glyph unicode="&#x394;" horiz-adv-x="600" d="M17 0l238 727h90l238 -727h-566zM301 641h-4l-187 -574h378z" />
<glyph unicode="&#x3a9;" horiz-adv-x="680" d="M368 5l3 58q46 44 79.5 87t55.5 88.5t32 94.5t10 105q0 116 -53 175t-156 59q-102 0 -155.5 -59t-53.5 -175q0 -56 10.5 -105t32 -94.5t55 -88.5t80.5 -87l3 -58h-251v69h164q-39 37 -69.5 76.5t-51.5 83t-32 93t-11 106.5q0 146 70 227.5t209 81.5q140 0 210 -81 t70 -228q0 -57 -11 -106.5t-32 -93t-51.5 -83t-69.5 -76.5h164v-69h-251z" />
<glyph unicode="&#x3bc;" horiz-adv-x="573" d="M543 4q-8 -5 -20 -9.5t-34 -4.5q-25 0 -44 13t-22 47q-14 -23 -48.5 -44t-89.5 -21t-90 20.5t-52 42.5l-4 -1q3 -21 3.5 -44.5t0.5 -54.5v-125h-70v743h70v-397q6 -19 17 -38.5t28.5 -35.5t41.5 -26.5t55 -10.5q94 0 129 72v436h69v-469q0 -25 11 -33.5t26 -8.5 q10 0 17 5z" />
<glyph unicode="&#x3c0;" horiz-adv-x="609" d="M585 7q-9 -6 -29 -11.5t-56 -5.5q-61 0 -93 42.5t-32 112.5v351h-233v-496h-70v566h372v-413q0 -45 19.5 -69t56.5 -24q44 0 75 23z" />
<glyph unicode="&#x1e80;" horiz-adv-x="882" d="M19 0zM590 0l-144 582h-4l-153 -582h-94l-176 727h79l144 -618h4l159 618h77l153 -618h4l145 618h79l-179 -727h-94zM288 916l32 48l213 -182l-25 -37z" />
<glyph unicode="&#x1e81;" horiz-adv-x="882" d="M19 0zM590 0l-144 582h-4l-153 -582h-94l-176 727h79l144 -618h4l159 618h77l153 -618h4l145 618h79l-179 -727h-94zM288 916l32 48l213 -182l-25 -37z" />
<glyph unicode="&#x1e82;" horiz-adv-x="882" d="M19 0zM590 0l-144 582h-4l-153 -582h-94l-176 727h79l144 -618h4l159 618h77l153 -618h4l145 618h79l-179 -727h-94zM372 745l-24 37l213 182l32 -48z" />
<glyph unicode="&#x1e83;" horiz-adv-x="882" d="M19 0zM590 0l-144 582h-4l-153 -582h-94l-176 727h79l144 -618h4l159 618h77l153 -618h4l145 618h79l-179 -727h-94zM372 745l-24 37l213 182l32 -48z" />
<glyph unicode="&#x1e84;" horiz-adv-x="882" d="M19 0zM590 0l-144 582h-4l-153 -582h-94l-176 727h79l144 -618h4l159 618h77l153 -618h4l145 618h79l-179 -727h-94zM509 805v132h71v-132h-71zM302 805v132h71v-132h-71z" />
<glyph unicode="&#x1e85;" horiz-adv-x="882" d="M19 0zM590 0l-144 582h-4l-153 -582h-94l-176 727h79l144 -618h4l159 618h77l153 -618h4l145 618h79l-179 -727h-94zM509 805v132h71v-132h-71zM302 805v132h71v-132h-71z" />
<glyph unicode="&#x1ef2;" d="M15 0zM249 0v293l-234 434h79l193 -357l192 357h78l-232 -433v-294h-76zM133 916l32 48l213 -182l-25 -37z" />
<glyph unicode="&#x1ef3;" d="M15 0zM249 0v293l-234 434h79l193 -357l192 357h78l-232 -433v-294h-76zM133 916l32 48l213 -182l-25 -37z" />
<glyph unicode="&#x2013;" horiz-adv-x="526" d="M33 338v69h459v-69h-459z" />
<glyph unicode="&#x2014;" horiz-adv-x="903" d="M33 338v69h836v-69h-836z" />
<glyph unicode="&#x2018;" horiz-adv-x="226" d="M75 495v132l35 115h39l-30 -112l1 -3h25v-132h-70z" />
<glyph unicode="&#x2019;" horiz-adv-x="226" d="M76 480l30 112l-1 3h-25v132h70v-132l-34 -115h-40z" />
<glyph unicode="&#x201a;" horiz-adv-x="226" d="M76 -115l30 112l-1 3h-25v132h70v-132l-34 -115h-40z" />
<glyph unicode="&#x201c;" horiz-adv-x="382" d="M75 495zM75 495v132l35 115h39l-30 -112l1 -3h25v-132h-70zM231 495v132l35 115h39l-30 -112l1 -3h25v-132h-70z" />
<glyph unicode="&#x201d;" horiz-adv-x="382" d="M76 480zM76 480l30 112l-1 3h-25v132h70v-132l-34 -115h-40zM232 480l30 112l-1 3h-25v132h70v-132l-34 -115h-40z" />
<glyph unicode="&#x201e;" horiz-adv-x="382" d="M76 0zM76 -115l30 112l-1 3h-25v132h70v-132l-34 -115h-40zM232 -115l30 112l-1 3h-25v132h70v-132l-34 -115h-40z" />
<glyph unicode="&#x2020;" horiz-adv-x="463" d="M203 0v513h-132v58h132v156h59v-156h130v-58h-130v-513h-59z" />
<glyph unicode="&#x2021;" horiz-adv-x="463" d="M203 0v156h-132v58h132v299h-132v58h132v156h59v-156h130v-58h-130v-299h130v-58h-130v-156h-59z" />
<glyph unicode="&#x2022;" horiz-adv-x="281" d="M140 263q-19 0 -35.5 7.5t-28.5 20t-19 30t-7 37.5q0 19 7 36t19 30t28.5 20.5t35.5 7.5t35.5 -7.5t28.5 -20.5t19 -30t7 -36q0 -40 -26 -67.5t-64 -27.5z" />
<glyph unicode="&#x2026;" horiz-adv-x="710" d="M78 0v132h70v-132h-70zM320 0v132h70v-132h-70zM562 0v132h70v-132h-70z" />
<glyph unicode="&#x2030;" horiz-adv-x="1174" d="M79 0zM222 331q-66 0 -104.5 52.5t-38.5 158.5q0 104 38.5 156t104.5 52t104.5 -52t38.5 -156q0 -106 -39 -158.5t-104 -52.5zM222 380q42 0 67 38t25 124q0 84 -25 121.5t-67 37.5q-43 0 -67.5 -37.5t-24.5 -121.5q0 -86 25 -124t67 -38zM116 0l559 727h63l-560 -727 h-62zM627 -18q-66 0 -104.5 52.5t-38.5 158.5q0 104 38.5 156t104.5 52t104.5 -52t38.5 -156q0 -106 -39 -158.5t-104 -52.5zM627 31q42 0 67 38t25 124q0 84 -25 121.5t-67 37.5q-43 0 -67.5 -37.5t-24.5 -121.5q0 -86 25 -124t67 -38zM953 -18q-66 0 -104.5 52.5 t-38.5 158.5q0 104 38.5 156t104.5 52t104.5 -52t38.5 -156q0 -106 -39 -158.5t-104 -52.5zM953 31q42 0 67 38t25 124q0 84 -25 121.5t-67 37.5q-43 0 -67.5 -37.5t-24.5 -121.5q0 -86 25 -124t67 -38z" />
<glyph unicode="&#x2039;" horiz-adv-x="262" d="M202 222l-175 162l175 163l31 -29l-131 -134l131 -134z" />
<glyph unicode="&#x203a;" horiz-adv-x="262" d="M58 222l-31 28l132 134l-132 134l31 29l175 -163z" />
<glyph unicode="&#x2044;" horiz-adv-x="209" d="M-206 0l559 727h63l-560 -727h-62z" />
<glyph unicode="&#x2070;" horiz-adv-x="396" d="M53 331zM196 331q-66 0 -104.5 52.5t-38.5 158.5q0 104 38.5 156t104.5 52t104.5 -52t38.5 -156q0 -106 -39 -158.5t-104 -52.5zM196 380q42 0 67 38t25 124q0 84 -25 121.5t-67 37.5q-43 0 -67.5 -37.5t-24.5 -121.5q0 -86 25 -124t67 -38z" />
<glyph unicode="&#x2074;" horiz-adv-x="347" d="M37 339zM213 339v87h-176v43l107 273h53l-105 -269h121v144h49v-144h45v-47h-45v-87h-49z" />
<glyph unicode="&#x2075;" horiz-adv-x="345" d="M39 331zM71 424q17 -19 38.5 -31.5t48.5 -12.5q40 0 66 25t26 73q0 50 -24 72.5t-62 22.5q-27 0 -43.5 -11t-27.5 -28l-43 10l13 198h211v-49h-167l-7 -95q12 9 29.5 14.5t38.5 5.5q57 0 94 -35t37 -105q0 -72 -38.5 -109.5t-104.5 -37.5q-38 0 -66 15.5t-51 36.5z" />
<glyph unicode="&#x2076;" horiz-adv-x="344" d="M39 331zM89 470q0 -43 22.5 -66.5t62.5 -23.5q36 0 59.5 22t23.5 60q0 34 -22 55.5t-59 21.5q-33 0 -57.5 -19t-29.5 -50zM249 698q-27 -4 -52.5 -16.5t-46 -32t-34.5 -44.5t-20 -54q13 14 35 24t54 10q56 0 87.5 -32.5t31.5 -87.5q0 -62 -35 -98t-95 -36q-64 0 -99.5 40 t-35.5 112q0 57 17 103.5t45 81t64 55t75 24.5z" />
<glyph unicode="&#x2077;" horiz-adv-x="316" d="M26 339zM90 339l136 354h-200v49h252v-47l-133 -356h-55z" />
<glyph unicode="&#x2078;" horiz-adv-x="349" d="M37 331zM293 645q0 -31 -13.5 -53t-34.5 -34q29 -11 46 -37t17 -64q0 -57 -35 -91.5t-101 -34.5q-64 0 -99.5 34.5t-35.5 91.5q0 38 17 64t46 37q-22 12 -34.5 35t-12.5 52q0 43 31 74t88 31q58 0 89.5 -31t31.5 -74zM258 457q0 36 -23 54.5t-63 18.5q-38 0 -61.5 -17.5 t-23.5 -55.5q0 -35 22.5 -55.5t62.5 -20.5q41 0 63.5 20.5t22.5 55.5zM246 640q0 27 -19.5 44.5t-54.5 17.5t-54 -17.5t-19 -44.5q0 -28 19 -45t54 -17t54.5 17t19.5 45z" />
<glyph unicode="&#x2079;" horiz-adv-x="345" d="M38 329zM255 606q0 44 -23.5 69.5t-62.5 25.5q-37 0 -60 -23t-23 -60q0 -40 23 -61t59 -21q18 0 34 6.5t27.5 17t18.5 22.5t7 24zM126 371q40 22 75.5 61t46.5 95q-15 -14 -38.5 -24.5t-49.5 -10.5q-25 0 -47.5 8t-39 24t-26 40t-9.5 55q0 57 35.5 94t95.5 37 q66 0 101.5 -41t35.5 -113q0 -57 -15 -100.5t-38 -76.5t-50 -55t-51 -35z" />
<glyph unicode="&#x2080;" horiz-adv-x="396" d="M196 -18q-66 0 -104.5 52.5t-38.5 158.5q0 104 38.5 156t104.5 52t104.5 -52t38.5 -156q0 -106 -39 -158.5t-104 -52.5zM196 31q42 0 67 38t25 124q0 84 -25 121.5t-67 37.5q-43 0 -67.5 -37.5t-24.5 -121.5q0 -86 25 -124t67 -38z" />
<glyph unicode="&#x2081;" horiz-adv-x="194" d="M88 -10v310h-53v46h35q20 0 20 24v23h47v-403h-49z" />
<glyph unicode="&#x2082;" horiz-adv-x="332" d="M45 -10v43q0 42 6 72t20 51.5t36.5 35.5t54.5 23q40 11 57 27.5t17 46.5q0 33 -16 47t-52 14q-32 0 -52.5 -16.5t-34.5 -47.5l-38 33q18 39 48 60.5t80 21.5q23 0 43.5 -7t36.5 -20.5t25 -35t9 -49.5q0 -46 -23 -72t-79 -45q-27 -9 -44 -19t-26 -24.5t-12 -36t-3 -53.5 h185v-49h-238z" />
<glyph unicode="&#x2083;" horiz-adv-x="341" d="M70 80q37 -49 84 -49q39 0 64 25t25 70q0 16 -6 31.5t-16.5 27.5t-25.5 19.5t-33 7.5q-6 0 -15.5 -1t-20.5 -3l-10 33l93 103h-154v49h214v-49l-82 -93q23 -1 43 -11t34.5 -26.5t22.5 -38.5t8 -46q0 -72 -39.5 -109.5t-104.5 -37.5q-32 0 -62.5 15t-51.5 45z" />
<glyph unicode="&#x2084;" horiz-adv-x="347" d="M213 -10v87h-176v43l107 273h53l-105 -269h121v144h49v-144h45v-47h-45v-87h-49z" />
<glyph unicode="&#x2085;" horiz-adv-x="345" d="M71 75q17 -19 38.5 -31.5t48.5 -12.5q40 0 66 25t26 73q0 50 -24 72.5t-62 22.5q-27 0 -43.5 -11t-27.5 -28l-43 10l13 198h211v-49h-167l-7 -95q12 9 29.5 14.5t38.5 5.5q57 0 94 -35t37 -105q0 -72 -38.5 -109.5t-104.5 -37.5q-38 0 -66 15.5t-51 36.5z" />
<glyph unicode="&#x2086;" horiz-adv-x="344" d="M89 121q0 -43 22.5 -66.5t62.5 -23.5q36 0 59.5 22t23.5 60q0 34 -22 55.5t-59 21.5q-33 0 -57.5 -19t-29.5 -50zM249 349q-27 -4 -52.5 -16.5t-46 -32t-34.5 -44.5t-20 -54q13 14 35 24t54 10q56 0 87.5 -32.5t31.5 -87.5q0 -62 -35 -98t-95 -36q-64 0 -99.5 40 t-35.5 112q0 57 17 103.5t45 81t64 55t75 24.5z" />
<glyph unicode="&#x2087;" horiz-adv-x="316" d="M90 -10l136 354h-200v49h252v-47l-133 -356h-55z" />
<glyph unicode="&#x2088;" horiz-adv-x="349" d="M293 296q0 -31 -13.5 -53t-34.5 -34q29 -11 46 -37t17 -64q0 -57 -35 -91.5t-101 -34.5q-64 0 -99.5 34.5t-35.5 91.5q0 38 17 64t46 37q-22 12 -34.5 35t-12.5 52q0 43 31 74t88 31q58 0 89.5 -31t31.5 -74zM258 108q0 36 -23 54.5t-63 18.5q-38 0 -61.5 -17.5 t-23.5 -55.5q0 -35 22.5 -55.5t62.5 -20.5q41 0 63.5 20.5t22.5 55.5zM246 291q0 27 -19.5 44.5t-54.5 17.5t-54 -17.5t-19 -44.5q0 -28 19 -45t54 -17t54.5 17t19.5 45z" />
<glyph unicode="&#x2089;" horiz-adv-x="345" d="M255 257q0 44 -23.5 69.5t-62.5 25.5q-37 0 -60 -23t-23 -60q0 -40 23 -61t59 -21q18 0 34 6.5t27.5 17t18.5 22.5t7 24zM126 22q40 22 75.5 61t46.5 95q-15 -14 -38.5 -24.5t-49.5 -10.5q-25 0 -47.5 8t-39 24t-26 40t-9.5 55q0 57 35.5 94t95.5 37q66 0 101.5 -41 t35.5 -113q0 -57 -15 -100.5t-38 -76.5t-50 -55t-51 -35z" />
<glyph unicode="&#x20ac;" horiz-adv-x="616" d="M582 163q-24 -81 -84 -129.5t-145 -48.5q-61 0 -108.5 19.5t-82 55.5t-56 86t-31.5 111h-42l9 58h27q-1 13 -1.5 26t-0.5 27v26t2 26h-36l9 56h34q10 54 32 102.5t58 84.5t87.5 57.5t120.5 21.5q58 0 100.5 -11t68.5 -30l-28 -73q-56 39 -141 39q-50 0 -88 -14.5 t-65 -40.5t-45 -61t-27 -75h310l-23 -56h-296q-1 -14 -1.5 -27t-0.5 -27v-25t2 -26h256l-23 -58h-224q8 -38 22.5 -73.5t38.5 -63t57.5 -44t79.5 -16.5q60 0 103 32t63 91z" />
<glyph unicode="&#x2117;" horiz-adv-x="826" d="M412 -10q-75 0 -141 29.5t-115 80t-77.5 118.5t-28.5 146q0 77 28.5 145t77.5 118.5t115 80t141 29.5t141 -29.5t115.5 -80t78.5 -118.5t29 -145q0 -78 -29 -146t-78.5 -118.5t-115.5 -80t-141 -29.5zM412 37q67 0 125.5 26t102 70t69 103.5t25.5 127.5q0 67 -25.5 126.5 t-69 104t-102 70t-125.5 25.5q-66 0 -124.5 -25.5t-102 -70t-69 -104t-25.5 -126.5q0 -68 25.5 -127.5t69 -103.5t102 -70t124.5 -26zM290 160v417h161q58 0 92.5 -34t34.5 -94q0 -63 -37 -96.5t-97 -33.5h-112v-159h-42zM447 360q42 0 65.5 22t23.5 65q0 42 -22.5 65 t-63.5 23h-118v-175h115z" />
<glyph unicode="&#x2122;" horiz-adv-x="844" d="M732 261v375h-4l-113 -253h-42l-114 253h-4v-375h-47v466h63l123 -275h4l122 275h59v-466h-47zM164 261v420h-131v46h310v-46h-129v-420h-50z" />
<glyph unicode="&#x2153;" horiz-adv-x="867" d="M79 0zM179 339v310h-53v46h35q20 0 20 24v23h47v-403h-49zM79 0l559 727h63l-560 -727h-62zM564 80q37 -49 84 -49q39 0 64 25t25 70q0 16 -6 31.5t-16.5 27.5t-25.5 19.5t-33 7.5q-6 0 -15.5 -1t-20.5 -3l-10 33l93 103h-154v49h214v-49l-82 -93q23 -1 43 -11 t34.5 -26.5t22.5 -38.5t8 -46q0 -72 -39.5 -109.5t-104.5 -37.5q-32 0 -62.5 15t-51.5 45z" />
<glyph unicode="&#x2154;" horiz-adv-x="950" d="M79 0zM81 339v43q0 42 6 72t20 51.5t36.5 35.5t54.5 23q40 11 57 27.5t17 46.5q0 33 -16 47t-52 14q-32 0 -52.5 -16.5t-34.5 -47.5l-38 33q18 39 48 60.5t80 21.5q23 0 43.5 -7t36.5 -20.5t25 -35t9 -49.5q0 -46 -23 -72t-79 -45q-27 -9 -44 -19t-26 -24.5t-12 -36 t-3 -53.5h185v-49h-238zM162 0l559 727h63l-560 -727h-62zM647 80q37 -49 84 -49q39 0 64 25t25 70q0 16 -6 31.5t-16.5 27.5t-25.5 19.5t-33 7.5q-6 0 -15.5 -1t-20.5 -3l-10 33l93 103h-154v49h214v-49l-82 -93q23 -1 43 -11t34.5 -26.5t22.5 -38.5t8 -46 q0 -72 -39.5 -109.5t-104.5 -37.5q-32 0 -62.5 15t-51.5 45z" />
<glyph unicode="&#x215b;" horiz-adv-x="860" d="M79 0zM179 339v310h-53v46h35q20 0 20 24v23h47v-403h-49zM79 0l559 727h63l-560 -727h-62zM767 296q0 -31 -13.5 -53t-34.5 -34q29 -11 46 -37t17 -64q0 -57 -35 -91.5t-101 -34.5q-64 0 -99.5 34.5t-35.5 91.5q0 38 17 64t46 37q-22 12 -34.5 35t-12.5 52q0 43 31 74 t88 31q58 0 89.5 -31t31.5 -74zM732 108q0 36 -23 54.5t-63 18.5q-38 0 -61.5 -17.5t-23.5 -55.5q0 -35 22.5 -55.5t62.5 -20.5q41 0 63.5 20.5t22.5 55.5zM720 291q0 27 -19.5 44.5t-54.5 17.5t-54 -17.5t-19 -44.5q0 -28 19 -45t54 -17t54.5 17t19.5 45z" />
<glyph unicode="&#x215c;" horiz-adv-x="938" d="M79 0zM112 429q37 -49 84 -49q39 0 64 25t25 70q0 16 -6 31.5t-16.5 27.5t-25.5 19.5t-33 7.5q-6 0 -15.5 -1t-20.5 -3l-10 33l93 103h-154v49h214v-49l-82 -93q23 -1 43 -11t34.5 -26.5t22.5 -38.5t8 -46q0 -72 -39.5 -109.5t-104.5 -37.5q-32 0 -62.5 15t-51.5 45z M157 0l559 727h63l-560 -727h-62zM845 296q0 -31 -13.5 -53t-34.5 -34q29 -11 46 -37t17 -64q0 -57 -35 -91.5t-101 -34.5q-64 0 -99.5 34.5t-35.5 91.5q0 38 17 64t46 37q-22 12 -34.5 35t-12.5 52q0 43 31 74t88 31q58 0 89.5 -31t31.5 -74zM810 108q0 36 -23 54.5 t-63 18.5q-38 0 -61.5 -17.5t-23.5 -55.5q0 -35 22.5 -55.5t62.5 -20.5q41 0 63.5 20.5t22.5 55.5zM798 291q0 27 -19.5 44.5t-54.5 17.5t-54 -17.5t-19 -44.5q0 -28 19 -45t54 -17t54.5 17t19.5 45z" />
<glyph unicode="&#x215d;" horiz-adv-x="940" d="M79 0zM111 424q17 -19 38.5 -31.5t48.5 -12.5q40 0 66 25t26 73q0 50 -24 72.5t-62 22.5q-27 0 -43.5 -11t-27.5 -28l-43 10l13 198h211v-49h-167l-7 -95q12 9 29.5 14.5t38.5 5.5q57 0 94 -35t37 -105q0 -72 -38.5 -109.5t-104.5 -37.5q-38 0 -66 15.5t-51 36.5zM159 0 l559 727h63l-560 -727h-62zM847 296q0 -31 -13.5 -53t-34.5 -34q29 -11 46 -37t17 -64q0 -57 -35 -91.5t-101 -34.5q-64 0 -99.5 34.5t-35.5 91.5q0 38 17 64t46 37q-22 12 -34.5 35t-12.5 52q0 43 31 74t88 31q58 0 89.5 -31t31.5 -74zM812 108q0 36 -23 54.5t-63 18.5 q-38 0 -61.5 -17.5t-23.5 -55.5q0 -35 22.5 -55.5t62.5 -20.5q41 0 63.5 20.5t22.5 55.5zM800 291q0 27 -19.5 44.5t-54.5 17.5t-54 -17.5t-19 -44.5q0 -28 19 -45t54 -17t54.5 17t19.5 45z" />
<glyph unicode="&#x215e;" horiz-adv-x="904" d="M79 0zM143 339l136 354h-200v49h252v-47l-133 -356h-55zM123 0l559 727h63l-560 -727h-62zM811 296q0 -31 -13.5 -53t-34.5 -34q29 -11 46 -37t17 -64q0 -57 -35 -91.5t-101 -34.5q-64 0 -99.5 34.5t-35.5 91.5q0 38 17 64t46 37q-22 12 -34.5 35t-12.5 52q0 43 31 74 t88 31q58 0 89.5 -31t31.5 -74zM776 108q0 36 -23 54.5t-63 18.5q-38 0 -61.5 -17.5t-23.5 -55.5q0 -35 22.5 -55.5t62.5 -20.5q41 0 63.5 20.5t22.5 55.5zM764 291q0 27 -19.5 44.5t-54.5 17.5t-54 -17.5t-19 -44.5q0 -28 19 -45t54 -17t54.5 17t19.5 45z" />
<glyph unicode="&#x2202;" horiz-adv-x="588" d="M456 235q-4 27 -17 51t-34.5 42t-51 28.5t-65.5 10.5q-38 0 -70 -12t-55 -34t-36.5 -53.5t-13.5 -69.5t12 -65t33 -44.5t49 -26t60 -8.5q40 0 72.5 14t57 38t39.5 57t20 72zM471 328q3 22 3 44q0 106 -61 182.5t-169 111.5l27 67q136 -34 203.5 -133t67.5 -241 q0 -62 -13 -128t-44.5 -121t-84 -90t-130.5 -35q-46 0 -87 12.5t-71.5 38t-48 64t-17.5 91.5t17.5 97t49 76t74 49.5t92.5 17.5q68 0 115.5 -30.5t72.5 -72.5h4z" />
<glyph unicode="&#x220f;" horiz-adv-x="659" d="M518 -179v832h-378v-832h-73v906h526v-906h-75z" />
<glyph unicode="&#x2211;" horiz-adv-x="605" d="M52 -156v55l272 387l-272 385v56h506v-70h-414l260 -371l-260 -372h414v-70h-506z" />
<glyph unicode="&#x2212;" d="M42 328v61h487v-61h-487z" />
<glyph unicode="&#x221a;" horiz-adv-x="595" d="M253 0l-95 288h-121v67h175l80 -247l193 619h73l-230 -727h-75z" />
<glyph unicode="&#x221e;" horiz-adv-x="824" d="M410 275q-9 -27 -25.5 -48t-39 -36t-48.5 -22.5t-53 -7.5q-42 0 -77.5 15t-61 42.5t-40 67.5t-14.5 90q0 49 14.5 88t40 66.5t61 42.5t77.5 15q56 0 102.5 -30.5t65.5 -82.5q21 55 65.5 84t101.5 29q43 0 78.5 -14.5t61 -42.5t40 -67.5t14.5 -89.5q0 -49 -14.5 -88.5 t-40 -67t-61.5 -42.5t-78 -15q-58 0 -103.5 30.5t-65.5 83.5zM578 223q60 0 98.5 41t38.5 112t-37.5 111t-99.5 40q-63 0 -101 -39t-38 -112t36.5 -113t102.5 -40zM245 223q64 0 102 38.5t38 113.5q0 73 -38 112t-102 39q-60 0 -98.5 -41t-38.5 -110q0 -72 37.5 -112 t99.5 -40z" />
<glyph unicode="&#x222b;" horiz-adv-x="376" d="M28 -179v58h31q26 0 44 5t29 18.5t16 35.5t5 57v559q0 88 38 130.5t125 42.5h31v-58h-31q-26 0 -44 -5t-29 -18.5t-16 -36t-5 -56.5v-559q0 -88 -38 -130.5t-125 -42.5h-31z" />
<glyph unicode="&#x2248;" d="M34 153zM530 240q-26 -42 -59.5 -64.5t-78.5 -22.5q-39 0 -65.5 14.5t-50.5 31.5t-49.5 31.5t-62.5 14.5q-27 0 -47.5 -15.5t-39.5 -45.5l-43 32q51 84 136 84q41 0 69.5 -14.5t52 -32t46.5 -32t54 -14.5q32 0 54 17t40 48zM534 500q-26 -42 -59.5 -64.5t-78.5 -22.5 q-39 0 -65.5 14.5t-50.5 31.5t-49.5 31.5t-62.5 14.5q-27 0 -47.5 -15.5t-39.5 -45.5l-43 32q51 84 136 84q41 0 69.5 -14.5t52 -32t46.5 -32t54 -14.5q32 0 54 17t40 48z" />
<glyph unicode="&#x2260;" d="M209 177l-103 -177h-64l102 177h-102v61h138l141 243h-279v61h314l108 185h65l-108 -185h108v-61h-143l-142 -243h285v-61h-320z" />
<glyph unicode="&#x2264;" d="M42 0zM42 327v63l487 198v-62l-415 -168l415 -167v-62zM42 -72v61h487v-61h-487z" />
<glyph unicode="&#x2265;" d="M42 0zM42 129v62l415 167l-415 168v62l487 -198v-63zM42 -72v61h487v-61h-487z" />
<glyph unicode="&#x25ca;" horiz-adv-x="560" d="M248 0l-197 363l197 364h64l198 -364l-198 -363h-64zM439 363l-159 302l-159 -302l159 -302z" />
<glyph unicode="&#xfb01;" horiz-adv-x="522" d="M72 0zM72 0zM72 0v727h381v-70h-311v-249h302v-69h-302v-339h-70zM386 0zM386 0v727h70v-727h-70z" />
<glyph unicode="&#xfb02;" horiz-adv-x="564" d="M72 0zM72 0zM72 0v727h381v-70h-311v-249h302v-69h-302v-339h-70zM382 0zM382 0v727h70v-658h370v-69h-440z" />
<glyph horiz-adv-x="289" d="M0 0z" />
</font>
</defs>
</svg>
